<svg xmlns="http://www.w3.org/2000/svg" xmlns:xlink="http://www.w3.org/1999/xlink" width="414" height="2073" viewBox="0 0 414 2073">
  <defs>
    <clipPath id="clip-path">
      <rect id="Rectangle_5" data-name="Rectangle 5" width="254" height="179" rx="22" transform="translate(77.5 750)" fill="#fafafa"/>
    </clipPath>
    <clipPath id="clip-path-2">
      <rect id="Rectangle_23" data-name="Rectangle 23" width="342" height="218" rx="62" transform="translate(36 123)" fill="#f5f5f5"/>
    </clipPath>
    <clipPath id="clip-path-3">
      <path id="Path_1211" data-name="Path 1211" d="M139.453,62.835l4.6-10.721,3.844,2.574s-3.677,8.871-3.752,9.192S139.453,62.835,139.453,62.835Z" fill="none"/>
    </clipPath>
    <clipPath id="clip-path-4">
      <path id="Path_1213" data-name="Path 1213" d="M195.067,64.013s-.787-8.945-1.724-11.674c-.414-1.149-3.981,1.454-3.981,1.454s.977,9.554.954,9.887S195.067,64.013,195.067,64.013Z" fill="none"/>
    </clipPath>
    <clipPath id="clip-path-5">
      <path id="Path_1267" data-name="Path 1267" d="M332.647,64.26s-5.745-5.964-8-7.383c-.965-.575-2.017,3.344-2.017,3.344s6.222,6.279,6.4,6.532S332.647,64.26,332.647,64.26Z" fill="none"/>
    </clipPath>
    <clipPath id="clip-path-6">
      <path id="Path_1269" data-name="Path 1269" d="M278.642,63.2s6.067-5.619,8.411-6.894c1-.54,1.821,3.447,1.821,3.447s-6.584,5.929-6.785,6.17S278.642,63.2,278.642,63.2Z" fill="none"/>
    </clipPath>
    <clipPath id="clip-home:mobile-color">
      <rect width="414" height="2073"/>
    </clipPath>
  </defs>
  <g id="home:mobile-color" clip-path="url(#clip-home:mobile-color)">
    <rect width="414" height="2073" fill="#fff"/>
    <text id="Telegram_s_features" data-name="Telegram&apos;s features" transform="translate(128 684)" font-size="18" font-family="Roboto-Regular, Roboto"><tspan x="0" y="0">Telegram&apos;s features</tspan></text>
    <g id="Mask_Group_10" data-name="Mask Group 10" clip-path="url(#clip-path)">
      <g id="Layer_2" data-name="Layer 2" transform="translate(115 750)">
        <g id="Layer_1" data-name="Layer 1">
          <rect id="Rectangle_228" data-name="Rectangle 228" width="179" height="179" fill="#17c5cc"/>
          <path id="Path_1325" data-name="Path 1325" d="M78.442,136.287l4.837-36.452H55.936l-1.567,2.53H46.747L41.3,136.287Z" fill="#9b7f56"/>
          <path id="Path_1326" data-name="Path 1326" d="M77.1,131.871l3.158-28.537H49.77l-4.837,28.537Z" fill="#fff"/>
          <rect id="Rectangle_229" data-name="Rectangle 229" width="8.345" height="1.058" transform="translate(68.235 106.716)" fill="#a5a5a5"/>
          <rect id="Rectangle_230" data-name="Rectangle 230" width="8.345" height="1.058" transform="translate(67.917 109.5)" fill="#a5a5a5"/>
          <rect id="Rectangle_231" data-name="Rectangle 231" width="8.345" height="1.05" transform="translate(67.63 112.277)" fill="#a5a5a5"/>
          <rect id="Rectangle_232" data-name="Rectangle 232" width="8.345" height="1.058" transform="translate(67.153 115.061)" fill="#a5a5a5"/>
          <rect id="Rectangle_233" data-name="Rectangle 233" width="8.345" height="1.058" transform="translate(66.787 117.846)" fill="#a5a5a5"/>
          <rect id="Rectangle_234" data-name="Rectangle 234" width="8.345" height="1.058" transform="translate(66.381 120.63)" fill="#a5a5a5"/>
          <path id="Path_1327" data-name="Path 1327" d="M78.442,136.287H41.3l-9.674-31.862H68.76Z" fill="#fdc63a"/>
          <path id="Path_1328" data-name="Path 1328" d="M33.318,105.634H67.67l2.546,8.624L40.756,129.405Z" fill="#ffc950"/>
          <path id="Path_1329" data-name="Path 1329" d="M46.516,117.026a3.182,3.182,0,0,1,3.182,3.182v5.29h2.657v-5.29a5.831,5.831,0,0,0-5.823-5.823h-.748v2.657Z" fill="#0f303f"/>
          <path id="Path_1330" data-name="Path 1330" d="M41.854,120.193a3.182,3.182,0,0,1,3.182-3.182h.748v-2.657h-.748a5.831,5.831,0,0,0-5.823,5.823v5.29H41.87Z" fill="#2c5871"/>
          <path id="Path_1331" data-name="Path 1331" d="M54.432,125.483H45.768v12.856h8.664Z" fill="#0f303f"/>
          <path id="Path_1332" data-name="Path 1332" d="M41.854,125.483H37.1v12.856h8.664V125.483Z" fill="#2c5871"/>
          <rect id="Rectangle_235" data-name="Rectangle 235" width="2.657" height="1.106" transform="translate(39.197 124.385)" fill="#0f303f"/>
          <path id="Path_1333" data-name="Path 1333" d="M48.7,169.453v-6.786h2.132a2.784,2.784,0,0,1,2.944,2.928v.931a2.776,2.776,0,0,1-2.944,2.928Zm.915-6.062v5.346h1.217a1.886,1.886,0,0,0,1.488-.621,2.387,2.387,0,0,0,.541-1.591v-.939A2.323,2.323,0,0,0,52.324,164a1.885,1.885,0,0,0-1.488-.621Z" fill="#fff"/>
          <path id="Path_1334" data-name="Path 1334" d="M58.577,167.7H56.015l-.6,1.75H54.48l2.442-6.786h.8l2.387,6.786h-.931Zm-2.291-.8h2.029l-.986-2.92h0Z" fill="#fff"/>
          <path id="Path_1335" data-name="Path 1335" d="M65.236,163.391H63.008v6.062h-.915v-6.062H59.881v-.724h5.354Z" fill="#fff"/>
          <path id="Path_1336" data-name="Path 1336" d="M69.349,167.7H66.827l-.636,1.75h-.955l2.45-6.786h.8l2.387,6.786h-.923Zm-2.283-.8h2.021l-.986-2.92h0Z" fill="#fff"/>
          <path id="Path_1337" data-name="Path 1337" d="M77.964,166.271H75.172v2.434h3.262v.716H74.257v-6.786h4.129v.724H75.2v2.2h2.761Z" fill="#fff"/>
          <path id="Path_1338" data-name="Path 1338" d="M84.655,169.453h-.923l-3.262-5.187h0v5.187h-.915v-6.786h.915l3.27,5.179h0v-5.171h.923Z" fill="#fff"/>
          <path id="Path_1339" data-name="Path 1339" d="M91.091,167.281h0a2.037,2.037,0,0,1-.676,1.591,2.546,2.546,0,0,1-1.822.644,2.387,2.387,0,0,1-1.877-.8,3.031,3.031,0,0,1-.724-2.068v-1.177a3.055,3.055,0,0,1,.724-2.076,2.387,2.387,0,0,1,1.878-.8,2.6,2.6,0,0,1,1.83.613,2.013,2.013,0,0,1,.668,1.591h-.883a1.5,1.5,0,0,0-.422-1.122,1.591,1.591,0,0,0-1.185-.422,1.448,1.448,0,0,0-1.225.621,2.554,2.554,0,0,0-.453,1.543v1.217a2.554,2.554,0,0,0,.453,1.543,1.448,1.448,0,0,0,1.225.621,1.591,1.591,0,0,0,1.185-.414,1.519,1.519,0,0,0,.422-1.138Z" fill="#fff"/>
          <path id="Path_1340" data-name="Path 1340" d="M93.207,166.51v2.944h-.923v-6.786H94.6a2.546,2.546,0,0,1,1.7.5,1.742,1.742,0,0,1,.589,1.432,1.512,1.512,0,0,1-.27.907,1.814,1.814,0,0,1-.8.621,1.368,1.368,0,0,1,.8.589,1.885,1.885,0,0,1,.247,1.01v.636a2.068,2.068,0,0,0,.072.565.8.8,0,0,0,.239.414v.111h-.915a.8.8,0,0,1-.231-.469,3.978,3.978,0,0,1-.056-.628v-.621a1.249,1.249,0,0,0-.318-.891,1.138,1.138,0,0,0-.859-.334Zm0-.724H94.52a1.71,1.71,0,0,0,1.122-.294,1.138,1.138,0,0,0,.342-.9,1.177,1.177,0,0,0-.334-.891,1.5,1.5,0,0,0-1.042-.31h-1.4Z" fill="#fff"/>
          <path id="Path_1341" data-name="Path 1341" d="M100.351,166.112l1.774-3.445h1.05l-2.387,4.4v2.387h-.907V167L97.5,162.667h1.05Z" fill="#fff"/>
          <path id="Path_1342" data-name="Path 1342" d="M105.093,166.733v2.721h-.875v-6.786h2.594a2.387,2.387,0,0,1,1.695.557,2.124,2.124,0,0,1,0,2.952,2.387,2.387,0,0,1-1.695.557Zm0-.716h1.679a1.352,1.352,0,0,0,1.026-2.251,1.321,1.321,0,0,0-1.026-.374h-1.679Z" fill="#fff"/>
          <path id="Path_1343" data-name="Path 1343" d="M114.99,163.391h-2.236v6.062h-.915v-6.062h-2.212v-.724h5.362Z" fill="#fff"/>
          <path id="Path_1344" data-name="Path 1344" d="M116.947,169.453h-.923v-6.786h.923Z" fill="#fff"/>
          <path id="Path_1345" data-name="Path 1345" d="M123.836,166.669a2.88,2.88,0,0,1-.8,2.06,2.6,2.6,0,0,1-2,.8,2.474,2.474,0,0,1-1.933-.8,2.967,2.967,0,0,1-.748-2.06v-1.193a2.991,2.991,0,0,1,.748-2.068,2.474,2.474,0,0,1,1.933-.8,2.6,2.6,0,0,1,2,.8,2.9,2.9,0,0,1,.8,2.068Zm-.915-1.193a2.315,2.315,0,0,0-.5-1.535,1.687,1.687,0,0,0-1.352-.6,1.591,1.591,0,0,0-1.281.6,2.387,2.387,0,0,0-.453,1.535v1.217a2.387,2.387,0,0,0,.477,1.535,1.591,1.591,0,0,0,1.281.6,1.679,1.679,0,0,0,1.352-.6,2.3,2.3,0,0,0,.5-1.535Z" fill="#fff"/>
          <path id="Path_1346" data-name="Path 1346" d="M130.3,169.453h-.923l-3.262-5.187h0v5.187H125.2v-6.786h.915l3.27,5.179h0v-5.171h.923Z" fill="#fff"/>
          <path id="Path_1347" data-name="Path 1347" d="M54.893,58.195a14.98,14.98,0,0,0-3.079-.541c-.621,1.376.183,5.155-2.076,5.394s-2.251-3.564-3.134-4.773a14.376,14.376,0,0,0-5.084,2.84c.541,1.4,3.691,3.453,2.3,5.171s-4.041-.923-5.529-1.146a14.24,14.24,0,0,0-1.122,2.729,13.883,13.883,0,0,0-.533,2.936c1.36.6,5.02-.167,5.259,2.013s-3.524,2.22-4.726,3.1a14.2,14.2,0,0,0,2.737,5.139c1.4-.541,3.485-3.739,5.243-2.331s-.955,4.193-1.177,5.68a14.583,14.583,0,0,0,2.872,1.2,14.9,14.9,0,0,0,2.657.509c.628-1.384-.191-5.227,2.116-5.473S54,84.385,54.885,85.6a14.177,14.177,0,0,0,5.1-2.721c-.533-1.432-3.914-3.62-2.426-5.481s4.391.994,5.9,1.209a14.153,14.153,0,0,0,1.09-2.673,14.685,14.685,0,0,0,.525-2.824c-1.392-.636-5.362.207-5.617-2.18s3.779-2.387,5-3.31a14.36,14.36,0,0,0-2.824-5.044c-1.424.533-3.588,3.866-5.41,2.387s.955-4.232,1.177-5.728a14.129,14.129,0,0,0-2.514-1.042Zm1.1,15.2a4.295,4.295,0,1,0-.016,0Z" fill="#fff"/>
          <path id="Path_1348" data-name="Path 1348" d="M69.006,45.347a9.189,9.189,0,0,0-1.774-.8c-.573.74-.644,3.182-2.045,2.959s-.8-2.482-1.193-3.341a8.886,8.886,0,0,0-3.485.971c.119.923,1.726,2.625.636,3.461s-2.315-1.154-3.182-1.5a9.252,9.252,0,0,0-1.082,1.488,8.7,8.7,0,0,0-.74,1.679c.732.565,3.055.628,2.88,1.981s-2.45.8-3.31,1.185a8.9,8.9,0,0,0,.9,3.5c.931-.119,2.657-1.75,3.508-.636s-1.185,2.387-1.535,3.262a9.014,9.014,0,0,0,3.087,1.838c.581-.74.652-3.182,2.076-3S64.623,61,65,61.87a9.006,9.006,0,0,0,3.485-.9c-.119-.947-1.838-2.761-.668-3.668s2.506,1.241,3.389,1.591a8.942,8.942,0,0,0,1.05-1.456,9.316,9.316,0,0,0,.732-1.591c-.748-.589-3.27-.66-3.079-2.132s2.633-.891,3.508-1.273a8.982,8.982,0,0,0-.971-3.461c-.939.119-2.729,1.814-3.62.66s1.2-2.387,1.591-3.286A8.7,8.7,0,0,0,69.006,45.347ZM67.455,54.7a3.317,3.317,0,1,1-1.217-4.527A3.317,3.317,0,0,1,67.455,54.7Z" fill="#ff6d3a"/>
          <path id="Path_1349" data-name="Path 1349" d="M128.7,75.7a30.859,30.859,0,0,1,5.283-.453V73.191a32.86,32.86,0,0,0-5.809.517,30.15,30.15,0,0,1-.643-5.529h6.452V66.111h-6.452a30.23,30.23,0,0,1,.644-5.569,32.856,32.856,0,0,0,5.808.517V58.99a31.687,31.687,0,0,1-5.282-.446c1.257-3.978,3.31-6.412,5.282-6.412V50.12a17.018,17.018,0,0,0-12.945,5.969,17.914,17.914,0,0,0-1.247,1.645,17,17,0,0,0,0,18.863,17.917,17.917,0,0,0,1.249,1.647,17.025,17.025,0,0,0,12.944,5.975V82.149C132.014,82.109,129.962,79.715,128.7,75.7Zm.485-22.761a17.12,17.12,0,0,0-2.49,5.2,27.334,27.334,0,0,1-3.683-1.193,15.116,15.116,0,0,1,6.174-4.01Zm-7.47,5.672a29.245,29.245,0,0,0,4.495,1.52,32.181,32.181,0,0,0-.708,5.967h-6.42a14.9,14.9,0,0,1,2.633-7.486Zm-2.633,9.547h6.42a32.267,32.267,0,0,0,.708,5.967,28.4,28.4,0,0,0-4.495,1.512,14.853,14.853,0,0,1-2.673-7.47Zm3.978,9.141a27.319,27.319,0,0,1,3.683-1.185,16.977,16.977,0,0,0,2.49,5.195,15.012,15.012,0,0,1-6.221-4Z" fill="#2c5871"/>
          <path id="Path_1350" data-name="Path 1350" d="M148.18,57.694a17.913,17.913,0,0,0-1.249-1.647,17.017,17.017,0,0,0-12.944-5.927v2.068c1.973,0,4.026,2.387,5.282,6.412a31.688,31.688,0,0,1-5.282.446v2.068a32.718,32.718,0,0,0,5.807-.518,29.532,29.532,0,0,1,.645,5.57h-6.452v2.068h6.452a29.435,29.435,0,0,1-.652,5.529,32.7,32.7,0,0,0-5.8-.517v2.068a30.859,30.859,0,0,1,5.282.453c-1.257,3.978-3.31,6.412-5.282,6.412v2.068a17.025,17.025,0,0,0,12.944-5.975,17.912,17.912,0,0,0,1.249-1.647,17,17,0,0,0,0-18.863Zm.748,8.4h-6.42a32.18,32.18,0,0,0-.708-5.967,28.958,28.958,0,0,0,4.495-1.52,14.9,14.9,0,0,1,2.633,7.486ZM138.785,52.936a15.116,15.116,0,0,1,6.174,3.978,27.334,27.334,0,0,1-3.683,1.193,16.937,16.937,0,0,0-2.49-5.171Zm0,28.377a16.8,16.8,0,0,0,2.49-5.195,27.321,27.321,0,0,1,3.683,1.185,15.012,15.012,0,0,1-6.174,4.01Zm7.51-5.672A28.129,28.129,0,0,0,141.8,74.13a32.269,32.269,0,0,0,.708-5.967h6.42A14.853,14.853,0,0,1,146.295,75.641Z" fill="#0f303f"/>
          <path id="Path_1351" data-name="Path 1351" d="M91.926,28.68a8.862,8.862,0,0,0-.621-.8,8.425,8.425,0,0,0-12.808,0,8.863,8.863,0,0,0-.621.8,8.425,8.425,0,0,0,0,9.324,8.863,8.863,0,0,0,.621.8,8.425,8.425,0,0,0,12.808,0,8.862,8.862,0,0,0,.621-.8A8.425,8.425,0,0,0,91.926,28.68Zm.366,4.153H89.11a16.134,16.134,0,0,0-.35-2.952,14.1,14.1,0,0,0,2.228-.8,7.367,7.367,0,0,1,1.3,3.747Zm-1.965-4.527a13.564,13.564,0,0,1-1.822.589,8.218,8.218,0,0,0-1.233-2.57A7.375,7.375,0,0,1,90.327,28.306ZM84.9,32.833H81.719a14.694,14.694,0,0,1,.318-2.737,16.913,16.913,0,0,0,2.872.255,16.77,16.77,0,0,0,2.872-.255,15.363,15.363,0,0,1,.326,2.737Zm3.182,1.018a15.45,15.45,0,0,1-.326,2.737,16.325,16.325,0,0,0-5.744,0,14.773,14.773,0,0,1-.318-2.737H88.06ZM84.9,25.9c.979,0,2,1.185,2.617,3.182A15.632,15.632,0,0,1,84.9,29.3a15.465,15.465,0,0,1-2.609-.223c.621-1.965,1.639-3.15,2.609-3.15Zm-2.387.4a8.218,8.218,0,0,0-1.233,2.57,13.946,13.946,0,0,1-1.822-.589,7.423,7.423,0,0,1,3.071-1.949Zm-3.715,2.8a13.731,13.731,0,0,0,2.22.8,16.133,16.133,0,0,0-.35,2.952H77.487a7.375,7.375,0,0,1,1.329-3.715Zm-1.3,4.726h3.182a16.046,16.046,0,0,0,.35,2.952,14.55,14.55,0,0,0-2.22.8,7.4,7.4,0,0,1-1.3-3.715Zm1.965,4.527a13.946,13.946,0,0,1,1.822-.589,8.218,8.218,0,0,0,1.233,2.57,7.423,7.423,0,0,1-3.039-1.949Zm5.426,2.387c-.971,0-1.989-1.185-2.609-3.182a15.465,15.465,0,0,1,2.609-.223,15.633,15.633,0,0,1,2.617.223c-.6,2.021-1.583,3.206-2.6,3.206Zm2.387-.4a8.218,8.218,0,0,0,1.233-2.57,13.564,13.564,0,0,1,1.822.589,7.375,7.375,0,0,1-3.055,2ZM91,37.534a14.957,14.957,0,0,0-2.228-.8,16.046,16.046,0,0,0,.35-2.952H92.3A7.391,7.391,0,0,1,91,37.558Z" fill="#13a5ab"/>
          <path id="Path_1352" data-name="Path 1352" d="M95.371,65.108a8.21,8.21,0,0,1,8.2,8.2V87.034h6.9V73.31A15.116,15.116,0,0,0,95.355,58.195H93.414v6.9Z" fill="#cfcfcf"/>
          <path id="Path_1353" data-name="Path 1353" d="M83.279,73.31a8.21,8.21,0,0,1,8.21-8.2h1.949v-6.9H91.489A15.116,15.116,0,0,0,76.373,73.326V87.034h6.9Z" fill="#fff"/>
          <path id="Path_1354" data-name="Path 1354" d="M115.889,87.034H93.43v33.342h22.459Z" fill="#0f303f"/>
          <path id="Path_1355" data-name="Path 1355" d="M83.279,87.034H70.964v33.342H93.43V87.034Z" fill="#2c5871"/>
          <rect id="Rectangle_236" data-name="Rectangle 236" width="7.327" height="16.953" transform="translate(76.612 94.846)" fill="#fdc63a"/>
          <path id="Path_1356" data-name="Path 1356" d="M81.7,98a3.182,3.182,0,0,1-.111.875,1.8,1.8,0,0,1-.3.6,1.17,1.17,0,0,1-.453.366,1.464,1.464,0,0,1-.565.119,1.5,1.5,0,0,1-.565-.119,1.146,1.146,0,0,1-.446-.366,1.655,1.655,0,0,1-.294-.6,3.492,3.492,0,0,1,0-1.75,1.687,1.687,0,0,1,.294-.613,1.2,1.2,0,0,1,.446-.358,1.352,1.352,0,0,1,.565-.111,1.328,1.328,0,0,1,.565.111,1.225,1.225,0,0,1,.453.358,1.838,1.838,0,0,1,.3.613A3.182,3.182,0,0,1,81.7,98Zm-.843,0a2.967,2.967,0,0,0-.056-.652,1.3,1.3,0,0,0-.127-.4.461.461,0,0,0-.191-.2.446.446,0,0,0-.43,0,.5.5,0,0,0-.183.2,1.591,1.591,0,0,0-.127.4,4.479,4.479,0,0,0,0,1.3,1.591,1.591,0,0,0,.127.4.5.5,0,0,0,.183.2.446.446,0,0,0,.43,0,.461.461,0,0,0,.191-.2,1.3,1.3,0,0,0,.127-.4A2.968,2.968,0,0,0,80.86,98Z" fill="#2c5871"/>
          <path id="Path_1357" data-name="Path 1357" d="M79.412,104.6h.74v-2.236l-.438.366a.215.215,0,0,1-.08.048h-.088a.223.223,0,0,1-.119,0,.167.167,0,0,1-.08-.064l-.263-.342,1.2-1h.668v3.246h.636v.6h-2.18Z" fill="#2c5871"/>
          <path id="Path_1358" data-name="Path 1358" d="M80.351,106.6a1.536,1.536,0,0,1,.517.088,1.01,1.01,0,0,1,.382.223,1,1,0,0,1,.247.358,1.169,1.169,0,0,1,.088.446,1.488,1.488,0,0,1-.056.39,1.368,1.368,0,0,1-.167.342,1.75,1.75,0,0,1-.239.318l-.286.3-.748.8.263-.08h.979a.286.286,0,0,1,.207.072.263.263,0,0,1,.08.191v.477H78.927v-.263a.446.446,0,0,1,0-.167.39.39,0,0,1,.1-.159l1.114-1.114c.088-.1.175-.183.247-.27a1.59,1.59,0,0,0,.175-.255,1.05,1.05,0,0,0,.1-.247,1,1,0,0,0,0-.263.533.533,0,0,0-.111-.358.43.43,0,0,0-.334-.119.525.525,0,0,0-.167,0,.723.723,0,0,0-.135.072.318.318,0,0,0-.1.1.557.557,0,0,0-.072.135.406.406,0,0,1-.1.167.255.255,0,0,1-.175.056h-.127l-.43-.08a1.591,1.591,0,0,1,.167-.5,1.185,1.185,0,0,1,.294-.358,1.392,1.392,0,0,1,.406-.207,1.639,1.639,0,0,1,.581-.1Z" fill="#2c5871"/>
          <rect id="Rectangle_237" data-name="Rectangle 237" width="7.327" height="16.953" transform="translate(85.379 94.846)" fill="#fdc63a"/>
          <path id="Path_1359" data-name="Path 1359" d="M90.463,98a3.182,3.182,0,0,1-.1.875,1.8,1.8,0,0,1-.3.6,1.17,1.17,0,0,1-.453.366,1.5,1.5,0,0,1-.565.119,1.464,1.464,0,0,1-.565-.119,1.1,1.1,0,0,1-.446-.366,1.663,1.663,0,0,1-.3-.6,3.755,3.755,0,0,1,0-1.75,1.7,1.7,0,0,1,.3-.613,1.146,1.146,0,0,1,.446-.358,1.328,1.328,0,0,1,.565-.111,1.352,1.352,0,0,1,.565.111,1.225,1.225,0,0,1,.453.358,1.838,1.838,0,0,1,.3.613A3.182,3.182,0,0,1,90.463,98Zm-.843,0a3.031,3.031,0,0,0-.048-.652,1.281,1.281,0,0,0-.135-.4.453.453,0,0,0-.183-.2.445.445,0,0,0-.43,0,.5.5,0,0,0-.183.2,1.3,1.3,0,0,0-.127.4,4.479,4.479,0,0,0,0,1.3,1.3,1.3,0,0,0,.127.4.5.5,0,0,0,.183.2.445.445,0,0,0,.43,0,.453.453,0,0,0,.183-.2,1.281,1.281,0,0,0,.135-.4A3.03,3.03,0,0,0,89.619,98Z" fill="#2c5871"/>
          <path id="Path_1360" data-name="Path 1360" d="M88.179,104.6h.74v-2.236l-.438.366-.08.048h-.088a.191.191,0,0,1-.119,0,.167.167,0,0,1-.08-.064l-.263-.342,1.249-1.018h.668V104.6h.636v.6H88.219Z" fill="#2c5871"/>
          <path id="Path_1361" data-name="Path 1361" d="M89.1,106.6a1.455,1.455,0,0,1,.509.088,1.042,1.042,0,0,1,.39.223,1,1,0,0,1,.247.358,1.169,1.169,0,0,1,.088.446,1.217,1.217,0,0,1-.064.39,1.114,1.114,0,0,1-.159.342,3.014,3.014,0,0,1-.239.318l-.286.3-.8.8.31-.08h.986a.294.294,0,0,1,.207.072.263.263,0,0,1,.08.191v.477h-2.7v-.263a.685.685,0,0,1,0-.167.525.525,0,0,1,.111-.159l1.114-1.114c.088-.1.175-.183.247-.27a1.59,1.59,0,0,0,.167-.255,1.091,1.091,0,0,0,.1-.247,1,1,0,0,0,0-.263.533.533,0,0,0-.111-.358.43.43,0,0,0-.334-.119.525.525,0,0,0-.167,0,.8.8,0,0,0-.143.072.637.637,0,0,0-.1.1,1.035,1.035,0,0,0-.064.135.342.342,0,0,1-.111.167.231.231,0,0,1-.175.056h-.119l-.43-.08a1.543,1.543,0,0,1,.159-.5,1.337,1.337,0,0,1,.3-.358,1.392,1.392,0,0,1,.406-.207,1.639,1.639,0,0,1,.581-.1Z" fill="#2c5871"/>
          <rect id="Rectangle_238" data-name="Rectangle 238" width="7.327" height="16.953" transform="translate(94.146 94.846)" fill="#fda014"/>
          <path id="Path_1362" data-name="Path 1362" d="M99.23,98a3.182,3.182,0,0,1-.1.875,1.8,1.8,0,0,1-.3.6,1.17,1.17,0,0,1-.453.366,1.5,1.5,0,0,1-.565.119,1.432,1.432,0,0,1-.565-.119,1.17,1.17,0,0,1-.453-.366,1.79,1.79,0,0,1-.294-.6,3.755,3.755,0,0,1,0-1.75,1.83,1.83,0,0,1,.294-.613,1.225,1.225,0,0,1,.453-.358,1.3,1.3,0,0,1,.565-.111,1.352,1.352,0,0,1,.565.111,1.225,1.225,0,0,1,.453.358,1.838,1.838,0,0,1,.3.613A3.182,3.182,0,0,1,99.23,98Zm-.843,0a3.652,3.652,0,0,0-.048-.652,1.281,1.281,0,0,0-.135-.4.5.5,0,0,0-.183-.2.446.446,0,0,0-.43,0,.453.453,0,0,0-.183.2,1.3,1.3,0,0,0-.127.4,4.479,4.479,0,0,0,0,1.3,1.3,1.3,0,0,0,.127.4.453.453,0,0,0,.183.2.446.446,0,0,0,.43,0,.5.5,0,0,0,.183-.2,1.281,1.281,0,0,0,.135-.4A3.652,3.652,0,0,0,98.386,98Z" fill="#2c5871"/>
          <path id="Path_1363" data-name="Path 1363" d="M96.946,104.6h.74v-2.236l-.438.366a.239.239,0,0,1-.088.048h-.08a.191.191,0,0,1-.119,0,.167.167,0,0,1-.08-.064l-.263-.342,1.193-1h.676v3.246h.636v.6H96.938Z" fill="#2c5871"/>
          <path id="Path_1364" data-name="Path 1364" d="M97.853,106.6a1.455,1.455,0,0,1,.509.088,1.042,1.042,0,0,1,.39.223.994.994,0,0,1,.247.358,1.169,1.169,0,0,1,.088.445,1.217,1.217,0,0,1-.064.39,1.345,1.345,0,0,1-.159.342,3.016,3.016,0,0,1-.239.318l-.286.3-.756.8.27-.08h.986a.294.294,0,0,1,.207.072.255.255,0,0,1,.072.191v.477h-2.7v-.263a.685.685,0,0,1,0-.167.414.414,0,0,1,.111-.159l1.106-1.114c.1-.1.183-.183.255-.27a2.325,2.325,0,0,0,.167-.255,1.09,1.09,0,0,0,.1-.247,1,1,0,0,0,0-.263.533.533,0,0,0-.111-.358.438.438,0,0,0-.334-.119.525.525,0,0,0-.167,0,.8.8,0,0,0-.143.072.636.636,0,0,0-.1.1l-.072.135a.334.334,0,0,1-.1.167.247.247,0,0,1-.175.056h-.119l-.43-.08a1.376,1.376,0,0,1,.159-.5,1.21,1.21,0,0,1,.3-.358,1.392,1.392,0,0,1,.406-.207,1.639,1.639,0,0,1,.581-.1Z" fill="#2c5871"/>
          <rect id="Rectangle_239" data-name="Rectangle 239" width="7.327" height="16.953" transform="translate(102.905 94.846)" fill="#fda014"/>
          <path id="Path_1365" data-name="Path 1365" d="M108,98a3.183,3.183,0,0,1-.1.875,1.957,1.957,0,0,1-.3.6,1.17,1.17,0,0,1-.453.366,1.416,1.416,0,0,1-1.138,0,1.209,1.209,0,0,1-.446-.366,1.79,1.79,0,0,1-.294-.6,3.493,3.493,0,0,1,0-1.75,1.83,1.83,0,0,1,.294-.613,1.265,1.265,0,0,1,.446-.358,1.512,1.512,0,0,1,1.138,0,1.225,1.225,0,0,1,.453.358,2,2,0,0,1,.3.613A3.183,3.183,0,0,1,108,98Zm-.843,0a3.65,3.65,0,0,0-.048-.652,1.281,1.281,0,0,0-.135-.4.462.462,0,0,0-.191-.2.382.382,0,0,0-.207-.056.438.438,0,0,0-.4.255,1.536,1.536,0,0,0-.135.4,4.479,4.479,0,0,0,0,1.3,1.535,1.535,0,0,0,.135.4.438.438,0,0,0,.4.255.382.382,0,0,0,.207-.056.461.461,0,0,0,.191-.2,1.281,1.281,0,0,0,.135-.4A3.651,3.651,0,0,0,107.153,98Z" fill="#2c5871"/>
          <path id="Path_1366" data-name="Path 1366" d="M105.713,104.6h.732v-2.236l-.43.366a.239.239,0,0,1-.088.048h-.08a.231.231,0,0,1-.127,0,.311.311,0,0,1-.08-.064l-.255-.342,1.193-1h.676v3.246h.628v.6h-2.18Z" fill="#2c5871"/>
          <path id="Path_1367" data-name="Path 1367" d="M106.6,106.6a1.5,1.5,0,0,1,.517.088,1.042,1.042,0,0,1,.39.223,1.106,1.106,0,0,1,.247.358,1.17,1.17,0,0,1,.088.446,1.217,1.217,0,0,1-.064.39,1.678,1.678,0,0,1-.159.342,3.018,3.018,0,0,1-.239.318l-.286.3-.8.8.286-.072h.979a.286.286,0,0,1,.207.072.239.239,0,0,1,.08.191v.477h-2.7v-.263a.445.445,0,0,1,0-.167.414.414,0,0,1,.111-.159l1.106-1.114a3.639,3.639,0,0,0,.247-.271,1.592,1.592,0,0,0,.175-.255,1.09,1.09,0,0,0,.1-.247.987.987,0,0,0,0-.263.493.493,0,0,0-.111-.358.422.422,0,0,0-.326-.119.621.621,0,0,0-.175,0,.723.723,0,0,0-.135.072.637.637,0,0,0-.1.1,1.115,1.115,0,0,0-.072.135.334.334,0,0,1-.1.167.255.255,0,0,1-.175.056h-.119l-.43-.08a1.376,1.376,0,0,1,.159-.5,1.185,1.185,0,0,1,.294-.358,1.44,1.44,0,0,1,.414-.207A1.591,1.591,0,0,1,106.6,106.6Z" fill="#2c5871"/>
          <rect id="Rectangle_240" data-name="Rectangle 240" width="6.897" height="2.864" transform="translate(76.381 84.178)" fill="#cfcfcf"/>
          <path id="Path_1368" data-name="Path 1368" d="M115.594,39.619V35.5a4.543,4.543,0,0,0-4.543-4.543H109.89a4.543,4.543,0,0,0-4.543,4.543v4.121h-1.591V49.635h13.524V39.619Zm-8.194,0V35.5a2.466,2.466,0,0,1,2.466-2.466h1.162a2.466,2.466,0,0,1,2.466,2.466v4.121Z" fill="#13a5ab"/>
          <path id="Path_1369" data-name="Path 1369" d="M112.595,125.38v-1.591h9.475v-1.87h-9.475v-1.591h9.475v-1.862h-9.475v-1.591h9.475v-1.87h-9.475v-1.591h9.475v-1.862h-9.475v-1.591h9.475v-1.87h-9.475V106.5h9.475v-3.564H109.158v30.645H122.07v-8.2Z" fill="#fff"/>
          <path id="Path_1370" data-name="Path 1370" d="M134.974,102.937h-12.9V106.5h9.467v1.591H122.07v1.87h9.467v1.591H122.07v1.862h9.467v1.591H122.07v1.87h9.467v1.591H122.07v1.862h9.467v1.591H122.07v1.87h9.467v1.591H122.07v8.2h12.9Z" fill="#cfcfcf"/>
          <rect id="Rectangle_241" data-name="Rectangle 241" width="9.467" height="1.591" transform="translate(122.07 106.501)" fill="#8e8e8e"/>
          <rect id="Rectangle_242" data-name="Rectangle 242" width="9.467" height="1.591" transform="translate(112.603 106.501)" fill="#8e8e8e"/>
          <rect id="Rectangle_243" data-name="Rectangle 243" width="9.467" height="1.591" transform="translate(122.07 109.962)" fill="#8e8e8e"/>
          <rect id="Rectangle_244" data-name="Rectangle 244" width="9.467" height="1.591" transform="translate(112.603 109.962)" fill="#8e8e8e"/>
          <rect id="Rectangle_245" data-name="Rectangle 245" width="9.467" height="1.591" transform="translate(122.07 113.414)" fill="#8e8e8e"/>
          <rect id="Rectangle_246" data-name="Rectangle 246" width="9.467" height="1.591" transform="translate(112.603 113.414)" fill="#8e8e8e"/>
          <rect id="Rectangle_247" data-name="Rectangle 247" width="9.467" height="1.591" transform="translate(122.07 116.875)" fill="#8e8e8e"/>
          <rect id="Rectangle_248" data-name="Rectangle 248" width="9.467" height="1.591" transform="translate(112.603 116.875)" fill="#8e8e8e"/>
          <rect id="Rectangle_249" data-name="Rectangle 249" width="9.467" height="1.591" transform="translate(122.07 120.328)" fill="#8e8e8e"/>
          <rect id="Rectangle_250" data-name="Rectangle 250" width="9.467" height="1.591" transform="translate(112.603 120.328)" fill="#8e8e8e"/>
          <rect id="Rectangle_251" data-name="Rectangle 251" width="9.467" height="1.591" transform="translate(112.603 123.788)" fill="#8e8e8e"/>
          <rect id="Rectangle_252" data-name="Rectangle 252" width="9.467" height="1.591" transform="translate(122.07 123.788)" fill="#8e8e8e"/>
          <path id="Path_1371" data-name="Path 1371" d="M134.449,123.43a1.8,1.8,0,0,1,1.8,1.8v3h1.512v-3a3.31,3.31,0,0,0-3.31-3.31h-.422v1.512Z" fill="#0f303f"/>
          <path id="Path_1372" data-name="Path 1372" d="M131.839,125.228a1.8,1.8,0,0,1,1.8-1.8h.422v-1.512h-.406a3.31,3.31,0,0,0-3.31,3.31v3h1.512Z" fill="#2c5871"/>
          <path id="Path_1373" data-name="Path 1373" d="M138.976,128.228h-4.917v7.3h4.917Z" fill="#0f303f"/>
          <path id="Path_1374" data-name="Path 1374" d="M131.839,128.228h-2.7v7.3h4.917v-7.3Z" fill="#2c5871"/>
          <rect id="Rectangle_253" data-name="Rectangle 253" width="1.512" height="0.628" transform="translate(130.328 127.607)" fill="#0f303f"/>
        </g>
      </g>
    </g>
    <g id="Group_12" data-name="Group 12" transform="translate(916 40)">
      <text id="Full_End-To-End_ecnryption" data-name="Full End-To-End ecnryption" transform="translate(-709 956)" font-size="16" font-family="Roboto-Medium, Roboto" font-weight="500"><tspan x="-95.496" y="0">Full End-To-End ecnryption</tspan></text>
      <text id="Lorem_ipsum_dolor_sit_amet_consectetur_adipiscing_elit._Duis_ex_eros_scelerisque_id_mauris_non_condimentum_sollicitudin_libero._Phasellus_ac_nisl_ac_orci_convallis_venenatis._Aliquam_erat_volutpat._Aliquam_odio_tortor_pharetra_ac_tellus_a_feugiat_cons" data-name="Lorem ipsum dolor sit amet, consectetur adipiscing elit. Duis ex eros, scelerisque id mauris non, condimentum sollicitudin libero. Phasellus ac nisl ac orci convallis venenatis. Aliquam erat volutpat. Aliquam odio tortor, pharetra ac tellus a, feugiat cons" transform="translate(-836 1004.554)" font-size="14" font-family="Roboto-Regular, Roboto"><tspan x="1.219" y="15">Lorem ipsum dolor sit amet, consectetur </tspan><tspan x="3.728" y="45">adipiscing elit. Duis ex eros, scelerisque </tspan><tspan x="2.986" y="75">id mauris non, condimentum sollicitudin </tspan><tspan x="2.33" y="105">libero. Phasellus ac nisl ac orci convallis </tspan><tspan x="25.206" y="135">venenatis. Aliquam erat volutpat. </tspan><tspan x="3.437" y="165">Aliquam odio tortor, pharetra ac tellus a, </tspan><tspan x="1.359" y="195">feugiat consequat augue. Proin euismod </tspan><tspan x="9.494" y="225">imperdiet elit ut efficitur. Pellentesque </tspan><tspan x="36.239" y="255">hendrerit nisl ut erat placerat.</tspan></text>
    </g>
    <g id="Mask_Group_9" data-name="Mask Group 9" clip-path="url(#clip-path-2)">
      <g id="agents" transform="translate(36 126.179)">
        <g id="Layer_2-2" data-name="Layer 2">
          <g id="OBJECTS">
            <ellipse id="Ellipse_17" data-name="Ellipse 17" cx="30.961" cy="5.355" rx="30.961" ry="5.355" transform="translate(65.961 194.613)" fill="#c1c1c1" opacity="0.5"/>
            <path id="Path_1066" data-name="Path 1066" d="M82.576,64.49l-9.491,14.4S82.564,92.44,84.609,96.7c.678,1.3-5.676,5.992-6.383,4.849-.81-1.252-16.339-22.406-15.776-25.279.747-3.884,17.718-28.588,17.718-28.588,1.678-1.149,3.482-1.563,6.17,1.724,2.017,2.482,1.149,8.48.126,9.767S82.576,64.49,82.576,64.49Z" fill="#0e263f"/>
            <line id="Line_92" data-name="Line 92" y1="5.159" x2="6.71" transform="translate(76.721 94.273)" fill="none" stroke="#ffd961" stroke-linecap="round" stroke-miterlimit="10" stroke-width="0.575"/>
            <line id="Line_93" data-name="Line 93" y1="5.24" x2="6.82" transform="translate(75.71 92.888)" fill="none" stroke="#ffd961" stroke-linecap="round" stroke-miterlimit="10" stroke-width="0.575"/>
            <line id="Line_94" data-name="Line 94" y1="5.291" x2="6.86" transform="translate(74.688 91.498)" fill="none" stroke="#ffd961" stroke-linecap="round" stroke-miterlimit="10" stroke-width="0.575"/>
            <path id="Path_1067" data-name="Path 1067" d="M114.9,63.2l6.13,15.1s-6.814,13.013-8.859,17.293c-.678,1.293,5.676,5.992,6.383,4.843.81-1.252,11.49-21.257,10.916-24.13-.77-3.889-11.037-28.243-11.037-28.243-1.672-1.149-3.717-1.971-6.4,1.333-2.017,2.482-1.149,8.48-.126,9.767S114.9,63.2,114.9,63.2Z" fill="#0e263f"/>
            <line id="Line_95" data-name="Line 95" x1="6.82" y1="5.24" transform="translate(114.335 90.332)" fill="none" stroke="#ffd961" stroke-linecap="round" stroke-miterlimit="10" stroke-width="0.575"/>
            <line id="Line_96" data-name="Line 96" x1="6.664" y1="5.142" transform="translate(115.318 88.936)" fill="none" stroke="#ffd961" stroke-linecap="round" stroke-miterlimit="10" stroke-width="0.575"/>
            <path id="Path_1068" data-name="Path 1068" d="M102.891,191.516a18.065,18.065,0,0,0,0,1.913c.04.448-.425,3.349-.724,5.113-.132.8.144,1.385.776,1.419,2.93.155,11.33.575,13.156.575,2.218,0,4.326-.149,4.717-1.017.575-1.293-.35-3.706-4.78-5.062-2.223-.678-2.873-3.447-2.873-2.959Z"/>
            <path id="Path_1069" data-name="Path 1069" d="M87.833,191.941c-.184,2.465,2.873,3.809,2.827,6.124a4.1,4.1,0,0,1-.19,1.724c-.735,1.074-2.591,1.206-4.114,1.206a18.088,18.088,0,0,1-6.193-.816c-2.873-1.109-1.212-5.682-1.212-8.221C78.95,190.861,87.833,191.941,87.833,191.941Z"/>
            <path id="Path_1070" data-name="Path 1070" d="M93.859,47.7l3.6-2.31,3.441.057,6.854,2.844-6.664,28.9Z" fill="#d4e8ff"/>
            <path id="Path_1071" data-name="Path 1071" d="M99.966,113.025c.339-.684-3.528,33.759-4.872,37.763-3.746,11.169-7.308,41.578-7.308,41.578a14.541,14.541,0,0,1-8.865.19V173.987c0-11.605,3.056-26.428,3.056-28.628,0-15.058-.207-27.284.672-44.433,0,0,9.072-6.251,18.718-6.17,5.125.046,9.974,7.8,14.685,6.17,1.557,14.461.833,26.916.264,42.94-.575,16.742-3.832,35.31-3.2,47.651,0,0-1.3,1.028-5.1,1.385s-5.171-.638-5.171-.638a340.093,340.093,0,0,1,1.367-42.71L100.024,119.2C99.547,117.4,99.966,113.025,99.966,113.025Z" fill="#102b51"/>
            <path id="Path_1072" data-name="Path 1072" d="M82.277,110.44s9.388,13.421,18.81.276c9.767,11.2,15.931,1.069,15.931,1.069L101.644,93.779Z" fill="#0e263f"/>
            <path id="Path_1073" data-name="Path 1073" d="M108.693,27.732c-.207,1.58-1.436,3.608-2.608,2.993a2.6,2.6,0,0,1-1.528-2.873,2.722,2.722,0,0,1,2.3-2.608C108.2,24.957,108.906,26.158,108.693,27.732Z" fill="#ed906b"/>
            <path id="Path_1074" data-name="Path 1074" d="M108.32,25.744a1.316,1.316,0,0,0-2,.684l.149-1.149a1.821,1.821,0,0,1,.954-.121,1.218,1.218,0,0,1,.9.586Z" fill="#ffbc80"/>
            <path id="Path_1075" data-name="Path 1075" d="M88.315,27.732c.213,1.58,1.436,3.608,2.608,2.993a2.6,2.6,0,0,0,1.534-2.873,2.727,2.727,0,0,0-2.3-2.608C88.809,24.957,88.108,26.158,88.315,27.732Z" fill="#ed906b"/>
            <path id="Path_1076" data-name="Path 1076" d="M88.689,25.744a1.316,1.316,0,0,1,2,.684l-.144-1.149a1.838,1.838,0,0,0-.954-.121,1.235,1.235,0,0,0-.9.586Z" fill="#ffbc80"/>
            <path id="Path_1077" data-name="Path 1077" d="M93.308,35.086c.5,1.724-.178,7.032-.3,7.342a7.291,7.291,0,0,0,6.234,3.148c4.384,0,4.384-2.223,4.384-2.223s-1.149-5.217-.575-8.043Z" fill="#ffbc80"/>
            <path id="Path_1078" data-name="Path 1078" d="M93.463,36.1a10.123,10.123,0,0,1,0,1.66s2.821,3.344,4.837,3.344,4.6-3.091,4.6-3.091-.046-2.068.046-2.93Z" fill="#ed906b"/>
            <path id="Path_1079" data-name="Path 1079" d="M106.47,24.452a7.963,7.963,0,0,1-15.92,0c0-5.906,3.562-8.744,7.957-8.744S106.47,18.672,106.47,24.452Z" fill="#ffbc80"/>
            <path id="Path_1080" data-name="Path 1080" d="M106.47,24.452c0,4.257,0,7.819-1.626,10.135-.977,1.39-3.516,3.786-5.355,4.4a5.355,5.355,0,0,1-2.218-.086c-1.827-.643-4.165-2.982-5.1-4.309-1.62-2.3-1.62-5.877-1.62-10.135" fill="#ffbc80"/>
            <path id="Path_1081" data-name="Path 1081" d="M94.939,33.9c0,.247,1.994,2.269,3.568,2.269s3.568-2.022,3.568-2.269S94.939,33.644,94.939,33.9Z" fill="#fff"/>
            <path id="Path_1082" data-name="Path 1082" d="M103.345,27.33c0,.724-.437,1.31-.977,1.31s-.971-.575-.971-1.31.437-1.316.971-1.316S103.345,26.606,103.345,27.33Z"/>
            <path id="Path_1083" data-name="Path 1083" d="M95.807,27.33c0,.724-.431,1.31-.971,1.31s-.977-.575-.977-1.31.437-1.316.977-1.316S95.807,26.606,95.807,27.33Z"/>
            <path id="Path_1084" data-name="Path 1084" d="M101.075,24.049s.213-.034.529-.057a6.894,6.894,0,0,1,1.149.046,5.469,5.469,0,0,1,1.149.259c.3.109.494.2.494.2a.167.167,0,0,1,.086.224.172.172,0,0,1-.184.1h0s-.2-.034-.494-.1c-.138-.046-.322-.057-.5-.1s-.385-.057-.575-.092c-.4-.057-.8-.086-1.1-.1a3.828,3.828,0,0,0-.5,0,.167.167,0,0,1-.172-.172.184.184,0,0,1,.121-.2Z"/>
            <path id="Path_1085" data-name="Path 1085" d="M95.8,24.388h-.5a8.477,8.477,0,0,0-1.1.1c-.2.034-.4.046-.575.092s-.362.052-.506.1c-.287.069-.488.1-.488.1h0a.167.167,0,0,1-.2-.132.172.172,0,0,1,.1-.19s.19-.086.494-.2a5.389,5.389,0,0,1,1.149-.259,6.9,6.9,0,0,1,1.149-.046,2.227,2.227,0,0,1,.529.057.186.186,0,0,1-.052.368Z"/>
            <path id="Path_1086" data-name="Path 1086" d="M97.094,31.547a5.245,5.245,0,0,1,2.781,0c.431.259-.919.6-1.39.6S96.709,31.771,97.094,31.547Z" fill="#ed906b"/>
            <path id="Path_1087" data-name="Path 1087" d="M97.461,45.387s2.063-.827,3.447.057l.666.575-.758,2.154-2.5.109-1.471-2.2Z"/>
            <path id="Path_1088" data-name="Path 1088" d="M98.312,48.277V65.013l2.781,9.135,2.775-8.083-3.056-17.9"/>
            <path id="Path_1089" data-name="Path 1089" d="M114.605,62.175c.925,7.273,1.8,21.958,2.413,29,.052.575,3.591,4.171,3.66,5.395.3,5.171-2.729,12.392-2.809,14.811,0,0-6.446,3.39-10.864,1.362-4.562-2.1-5.429-11.232-5.429-11.232S99.49,112,95.158,113.358c-4.717,1.477-14.07-1.976-13.944-4.688.253-1.683-1.994-3.7-1.827-6.929,0-.207,2.528-1.988,2.534-2.2.661-13.214.7-34.035,1.028-37.545L80.168,47.685c1.976-2.12,10.652-4.28,12.2-6.107,2.424,1.643,6.94,21.217,8.744,32.57,4.814-12.927,4.119-32.828,4.119-32.828,4.068,2.809,9.434,3.958,13.248,6.785Z" fill="#102b51"/>
            <path id="Path_1090" data-name="Path 1090" d="M93.3,40.331h-.385l-2.223,2.143,2.3,7.854,4.458-4.941S93.124,42.9,93.3,40.331Z" fill="#d4e8ff"/>
            <path id="Path_1091" data-name="Path 1091" d="M103.034,39.717h.259l2.608,1.838v8.17l-4.332-3.711-.666-.575S103.7,44.048,103.034,39.717Z" fill="#d4e8ff"/>
            <path id="Path_1092" data-name="Path 1092" d="M93,50.328l4.2-4.648.259-.293.592,1.333L92.8,50.851l-1.724-7.078Z" fill="#c1c1c1"/>
            <path id="Path_1093" data-name="Path 1093" d="M105.9,49.725l-5-4.28-.218,1.12,5.533,3.665-.316-8.308Z" fill="#c1c1c1"/>
            <path id="Path_1094" data-name="Path 1094" d="M98.507,19.1a13.8,13.8,0,0,1-3.275-.776c-2.16-.511-3.166,1.787-3.166,1.787-1.224,2.011-.965,8.313-.982,8.675s-.506.414-.517,0a38.52,38.52,0,0,1-.184-6.733c.293-2.539,1.724-6.492,5.171-6.739a6.664,6.664,0,0,1,5.435-1.379c3.981.73,5.309,4.073,5.688,7.09a47.377,47.377,0,0,1-.218,7.658c0,.477-.534.414-.534,0,0-.672.4-7.434-1.057-9.158C102.414,16.586,99.6,19.1,98.507,19.1Z" fill="#684000"/>
            <path id="Path_1095" data-name="Path 1095" d="M98.576,7.469c7.716,0,11.806,10.278,11.806,10.278a9.767,9.767,0,0,1-3.614,5.13s-.494-4.682-2.649-6.55-8.888-2.189-11.22.529a11.22,11.22,0,0,0-2.516,6.021,9.767,9.767,0,0,1-3.631-5.148S90.86,7.469,98.576,7.469Z" fill="#0a1d35"/>
            <path id="Path_1096" data-name="Path 1096" d="M89.051,18c0,2.93,3.045,5.171,9.612,5.171s9.049-2.034,9.049-5.136c0-1.8-4.791-4.022-9.526-4.022C93.561,13.921,89.051,16.018,89.051,18Z"/>
            <path id="Path_1097" data-name="Path 1097" d="M90.757,42.693l3.1,21.045,3.78.529L94.106,65.9l6.986,8.244L95.054,66l3-1.787-3.706-1.034-2.838-17.6Z" fill="#0e263f"/>
            <path id="Path_1098" data-name="Path 1098" d="M106.97,42.405l1.3,21.24-3.108.753,2.344.885-6.417,8.865,7.015-9.077-2.223-.62,3.045-.615Z" fill="#0e263f"/>
            <line id="Line_97" data-name="Line 97" y1="2.401" x2="0.873" transform="translate(114.456 46.237)" fill="none" stroke="#ffd961" stroke-linecap="round" stroke-miterlimit="10" stroke-width="0.575"/>
            <line id="Line_98" data-name="Line 98" y1="2.401" x2="0.868" transform="translate(113.433 45.766)" fill="none" stroke="#ffd961" stroke-linecap="round" stroke-miterlimit="10" stroke-width="0.575"/>
            <line id="Line_99" data-name="Line 99" y1="2.401" x2="0.868" transform="translate(112.405 45.295)" fill="none" stroke="#ffd961" stroke-linecap="round" stroke-miterlimit="10" stroke-width="0.575"/>
            <line id="Line_100" data-name="Line 100" x1="0.868" y1="2.401" transform="translate(83.225 45.875)" fill="none" stroke="#ffd961" stroke-linecap="round" stroke-miterlimit="10" stroke-width="0.575"/>
            <line id="Line_101" data-name="Line 101" x1="0.868" y1="2.401" transform="translate(84.253 45.404)" fill="none" stroke="#ffd961" stroke-linecap="round" stroke-miterlimit="10" stroke-width="0.575"/>
            <line id="Line_102" data-name="Line 102" x1="0.868" y1="2.401" transform="translate(85.282 44.933)" fill="none" stroke="#ffd961" stroke-linecap="round" stroke-miterlimit="10" stroke-width="0.575"/>
            <path id="Path_1099" data-name="Path 1099" d="M98.128,79.858a.942.942,0,1,1-.942-.942A.942.942,0,0,1,98.128,79.858Z" fill="#ffd961"/>
            <path id="Path_1100" data-name="Path 1100" d="M105.936,79.858a.942.942,0,1,1-.942-.942.942.942,0,0,1,.942.942Z" fill="#ffd961"/>
            <path id="Path_1101" data-name="Path 1101" d="M99.7,11.4a1.12,1.12,0,1,1-1.12-1.115A1.149,1.149,0,0,1,99.7,11.4Z" fill="#ffd961"/>
            <path id="Path_1102" data-name="Path 1102" d="M98.128,86.839a.942.942,0,1,1-.942-.942A.942.942,0,0,1,98.128,86.839Z" fill="#ffd961"/>
            <path id="Path_1103" data-name="Path 1103" d="M105.936,86.839a.942.942,0,1,1-.942-.942A.942.942,0,0,1,105.936,86.839Z" fill="#ffd961"/>
            <path id="Path_1104" data-name="Path 1104" d="M98.128,93.848a.942.942,0,1,1-.942-.942A.942.942,0,0,1,98.128,93.848Z" fill="#ffd961"/>
            <path id="Path_1105" data-name="Path 1105" d="M105.936,93.848a.942.942,0,1,1-.942-.942.942.942,0,0,1,.942.942Z" fill="#ffd961"/>
            <path id="Path_1106" data-name="Path 1106" d="M100.736,11.881H96.554l-1-.954H101.6Z" fill="#ffd961"/>
            <path id="Path_1107" data-name="Path 1107" d="M89.131,18.959a18.432,18.432,0,0,1,9.686-2.3,18.184,18.184,0,0,1,8.738,2.493" fill="none" stroke="#ffd961" stroke-linecap="round" stroke-miterlimit="10" stroke-width="0.575"/>
            <ellipse id="Ellipse_18" data-name="Ellipse 18" cx="30.961" cy="5.355" rx="30.961" ry="5.355" transform="translate(204.477 195.187)" fill="#c1c1c1" opacity="0.5"/>
            <path id="Path_1108" data-name="Path 1108" d="M231.761,192.119a17.954,17.954,0,0,1,0,1.907c-.04.442.431,3.338.724,5.1.132.8-.144,1.385-.776,1.419-2.919.155-11.289.575-13.111.575-2.212,0-4.315-.149-4.705-1.017-.575-1.293.35-3.694,4.768-5.044,2.212-.678,2.873-3.447,2.873-2.953Z"/>
            <path id="Path_1109" data-name="Path 1109" d="M246.773,192.544c.184,2.459-2.832,3.8-2.815,6.1a4.086,4.086,0,0,0,.19,1.724c.735,1.069,2.58,1.2,4.1,1.2a17.953,17.953,0,0,0,6.17-.816c2.873-1.1,1.212-5.665,1.212-8.193C255.661,191.464,246.773,192.544,246.773,192.544Z"/>
            <path id="Path_1110" data-name="Path 1110" d="M240.764,48.742l-3.591-2.3-3.43.057-6.831,2.838,6.647,28.812Z" fill="#d4e8ff"/>
            <path id="Path_1111" data-name="Path 1111" d="M235.329,120.356c1.005,9.56,3.189,28.151,4.2,31.162,3.752,11.134,7.3,41.446,7.3,41.446a12.984,12.984,0,0,0,4.056.776,13.341,13.341,0,0,0,4.78-.575V174.654c0-11.559-3.051-26.33-3.051-28.548,0-15.006.356-28.531-.517-45.623,0,0-18.534-.046-34.178-.046-.931,14.122-.1,28.209.46,44.186.575,16.661,3.821,35.2,3.194,47.5,0,0,1.293,1.023,5.079,1.379s5.171-.638,5.171-.638a339.153,339.153,0,0,0-1.367-42.572L233,120.126Z" fill="#102b51"/>
            <path id="Path_1112" data-name="Path 1112" d="M225.976,28.841c.213,1.574,1.431,3.591,2.6,2.982A2.58,2.58,0,0,0,230.1,28.95a2.711,2.711,0,0,0-2.3-2.6C226.47,26.072,225.786,27.267,225.976,28.841Z" fill="#ed906b"/>
            <path id="Path_1113" data-name="Path 1113" d="M226.361,26.853a1.316,1.316,0,0,1,1.982.724l-.144-1.149a1.77,1.77,0,0,0-.954-.121,1.218,1.218,0,0,0-.885.546Z" fill="#ffbc80"/>
            <path id="Path_1114" data-name="Path 1114" d="M246.291,28.841c-.207,1.574-1.431,3.591-2.6,2.982a2.591,2.591,0,0,1-1.528-2.873,2.716,2.716,0,0,1,2.3-2.6C245.8,26.072,246.5,27.267,246.291,28.841Z" fill="#ed906b"/>
            <path id="Path_1115" data-name="Path 1115" d="M245.923,26.853a1.316,1.316,0,0,0-1.994.724l.144-1.115a1.724,1.724,0,0,1,.948-.121,1.224,1.224,0,0,1,.9.511Z" fill="#ffbc80"/>
            <path id="Path_1116" data-name="Path 1116" d="M241.3,36.195c-.494,1.724.178,7.015.3,7.325a7.273,7.273,0,0,1-6.216,3.137c-4.366,0-4.366-2.218-4.366-2.218s1.149-5.205.575-8.043Z" fill="#ffbc80"/>
            <path id="Path_1117" data-name="Path 1117" d="M241.166,37.183a10.064,10.064,0,0,0,0,1.655s-2.815,3.332-4.826,3.332-4.6-3.079-4.6-3.079.04-2.063-.052-2.924Z" fill="#ed906b"/>
            <path id="Path_1118" data-name="Path 1118" d="M228.2,25.566a7.934,7.934,0,1,0,15.868,0c0-5.883-3.551-8.715-7.934-8.715S228.2,19.8,228.2,25.566Z" fill="#ffbc80"/>
            <path id="Path_1119" data-name="Path 1119" d="M228.2,25.566c0,4.24,0,7.8,1.614,10.1.977,1.39,3.5,3.78,5.343,4.384a5.326,5.326,0,0,0,2.212-.086c1.815-.643,4.148-2.97,5.079-4.3,1.62-2.3,1.62-5.86,1.62-10.1" fill="#ffbc80"/>
            <path id="Path_1120" data-name="Path 1120" d="M231.313,28.433c0,.724.437,1.31.971,1.31s.971-.575.971-1.31-.437-1.3-.971-1.3S231.313,27.709,231.313,28.433Z"/>
            <path id="Path_1121" data-name="Path 1121" d="M238.822,28.433c0,.724.437,1.31.971,1.31s.971-.575.971-1.31-.431-1.3-.971-1.3S238.822,27.709,238.822,28.433Z"/>
            <path id="Path_1122" data-name="Path 1122" d="M233.548,25.5h-.5a9.417,9.417,0,0,0-1.1.1c-.2.034-.4.046-.575.092s-.362.052-.506.1c-.287.069-.488.1-.488.1h0a.167.167,0,0,1-.2-.132.184.184,0,0,1,.1-.19s.2-.086.494-.2a5.412,5.412,0,0,1,1.149-.259,6.32,6.32,0,0,1,1.149-.04,4.234,4.234,0,0,1,.523.057.167.167,0,0,1,0,.333Z" fill="#ffd961"/>
            <path id="Path_1123" data-name="Path 1123" d="M238.811,25.17a4.441,4.441,0,0,1,.529-.057,6.251,6.251,0,0,1,1.149.04,5.562,5.562,0,0,1,1.149.259c.3.109.488.2.488.2a.167.167,0,0,1,.086.224.172.172,0,0,1-.184.1h0s-.2-.034-.488-.1c-.144-.046-.322-.057-.506-.1s-.379-.057-.575-.092c-.4-.052-.8-.086-1.1-.1h-.5a.167.167,0,1,1-.029-.333Z" fill="#ffd961"/>
            <path id="Path_1124" data-name="Path 1124" d="M237.524,32.638a5.286,5.286,0,0,0-2.775,0c-.431.259.919.575,1.385.575S237.926,32.863,237.524,32.638Z" fill="#ed906b"/>
            <path id="Path_1125" data-name="Path 1125" d="M239.029,35.178a19.643,19.643,0,0,1-5.952.2c-.2,0-.27,0,0,.115a9.767,9.767,0,0,0,2.959.442,8.1,8.1,0,0,0,3.079-.649C239.259,35.178,239.184,35.143,239.029,35.178Z" fill="#ed906b"/>
            <path id="Path_1126" data-name="Path 1126" d="M237.173,46.438s-2.051-.827-3.447.057l-.661.575.764,2.143,2.488.1,1.482-2.206Z" fill="#102b51"/>
            <path id="Path_1127" data-name="Path 1127" d="M217.565,63.984c-.919,7.245.931,29.421.322,36.448-.052.546,34.19.259,34.178.046-.661-13.156-.856-41.365,1.9-42.807L251.49,43.462c-1.971-2.114-7.687,1.011-9.238-.81-2.413,1.626-6.923,21.137-8.692,32.455-4.8-12.886-4.1-32.748-4.1-32.748-4.056,2.8-9.4,3.947-13.214,6.768Z" fill="#d4e8ff"/>
            <path id="Path_1128" data-name="Path 1128" d="M241.327,41.394h.385l2.218,2.137-2.3,7.831-4.447-4.924S241.505,43.956,241.327,41.394Z" fill="#d4e8ff"/>
            <path id="Path_1129" data-name="Path 1129" d="M231.618,40.791h-.253l-2.6,1.833v8.141l4.32-3.7.661-.575S230.957,45.106,231.618,40.791Z" fill="#d4e8ff"/>
            <path id="Path_1130" data-name="Path 1130" d="M241.62,51.362l-4.182-4.636-.264-.287-.046,1.683,4.7,3.763,1.718-7.055Z" fill="#c1c1c1"/>
            <path id="Path_1131" data-name="Path 1131" d="M228.762,50.765l4.981-4.269-.339,1.488-4.958,3.286.316-8.285Z" fill="#c1c1c1"/>
            <path id="Path_1132" data-name="Path 1132" d="M236.128,20.229a13.752,13.752,0,0,0,3.269-.776c2.126-.529,3.154,1.758,3.154,1.758,1.224,2.005.959,8.29.977,8.652s.5.414.511,0a38.1,38.1,0,0,0,.19-6.716c-.293-2.534-1.724-6.475-5.171-6.716a6.653,6.653,0,0,0-5.418-1.373c-3.97.724-5.3,4.062-5.671,7.067a47.229,47.229,0,0,0,.213,7.635c0,.471.534.414.534,0,0-.672-.4-7.411,1.051-9.129C232.238,17.724,235.042,20.229,236.128,20.229Z" fill="#ffd961"/>
            <path id="Path_1133" data-name="Path 1133" d="M236.064,8.618c-2.166,0-10.887,9.732-10.887,9.732a20.275,20.275,0,0,0,2.717,5.63s.5-4.665,2.643-6.532,8.865-2.177,11.186.529a11.175,11.175,0,0,1,2.511,6,16.873,16.873,0,0,0,3.045-5.693S238.23,8.618,236.064,8.618Z" fill="#0a1d35"/>
            <path id="Path_1134" data-name="Path 1134" d="M244.923,19.683c0,2.919-2.373,4.6-8.917,4.6s-8.664-1.488-8.664-4.6c0-1.8,7.147-4.6,8.79-4.6S244.923,17.7,244.923,19.683Z"/>
            <path id="Path_1135" data-name="Path 1135" d="M233.841,49.213,230.319,88.7l3.189,5.418,3.665-5.418-.845-39.383-1-.833Z" fill="#102b51"/>
            <path id="Path_1136" data-name="Path 1136" d="M251.938,97.421c.678,0,.839,4.975.126,4.975l-34.31.224c-.287,0-.287-4.878.322-4.878C219.087,97.743,251.938,97.421,251.938,97.421Z"/>
            <path id="Path_1137" data-name="Path 1137" d="M220.455,93.681c1.252,2.028,4.631,1.454,5.619,3.993h-1.833s-1.339,1.563,0,4.947c.776,1.953-5.389,1.724-6.147-.931a21.334,21.334,0,0,1-.931-3.8c-.115-.845-.982-1.149-1.431-1.586" fill="#ffbc80"/>
            <path id="Path_1138" data-name="Path 1138" d="M220.087,63.2l-6.021,13.921s2.419,4.964,4.757,9.727c.2.4-.144,1.431.04,1.81.776,1.58,1.465,3,1.959,4.022.672,1.293-5.584,4.516-6.291,3.372-.218-.339-1.005-1.724-2.04-3.654-.161-.3-1.149-.448-1.333-.776-2.769-5.171-5.918-13.271-5.935-15.265,0-3.074,11.019-27.215,11.019-27.215C217.915,47.984,220.087,63.2,220.087,63.2Z" fill="#d4e8ff"/>
            <path id="Path_1139" data-name="Path 1139" d="M256.575,31.673c-1.184-.511-2.953-.138-4.769-.965s-3.551-3.367-5.59-4.918a4.085,4.085,0,0,1-1.258-3.074c.2-.707,4.5,1.448,5.636,1.919s4.464,3.821,6.584,4.493C257.178,29.128,257,31.817,256.575,31.673Z" fill="#ffbc80"/>
            <path id="Path_1140" data-name="Path 1140" d="M250.083,42.986l14.541-2.873a46.859,46.859,0,0,1-7.469-3.723c-.287-.178-.419-1.149-.707-1.356l-2.827-1.724c-1.442-1.321,1.976-7.279,3.976-6.159.575.259,1.724.822,3.108,1.574.333.184,1.724.2,2.086.4,6.549,3.619,16.552,10.554,15.851,12.72-1.207,3.8-27.445,17.264-27.445,17.264-1.792.971-1.224.575-3.5-3.022-1.724-2.706-.161-8.618.994-9.767A6.473,6.473,0,0,0,250.083,42.986Z" fill="#d4e8ff"/>
            <path id="Path_1141" data-name="Path 1141" d="M234.553,10.876c0-.224.253.19.707.046s.523-.655.845-.655.3.575.7.655.776-.3.776-.046V12.6h0v.063a1.511,1.511,0,0,1-3.022,0s0-.04,0-.063h0Z" fill="#ffd961"/>
            <path id="Path_1142" data-name="Path 1142" d="M245.2,19.8c-6-2.154-11.444-2.172-18.149-.121" fill="none" stroke="#0a1d35" stroke-miterlimit="10" stroke-width="1.149"/>
            <path id="Path_1143" data-name="Path 1143" d="M226.728,20.579c0-.063,0-.115-.052-.115s-.046.052-.046.115,0,.115.046.115S226.728,20.642,226.728,20.579Z" fill="none" stroke="#0a1d35" stroke-miterlimit="10" stroke-width="1.149"/>
            <path id="Path_1144" data-name="Path 1144" d="M226.861,19.666c0,.506.23.913.511.913s.511-.408.511-.913-.23-.913-.511-.913S226.861,19.16,226.861,19.666Z" fill="#ffd961"/>
            <path id="Path_1145" data-name="Path 1145" d="M244.171,19.666c0,.506.23.913.511.913s.511-.408.511-.913-.23-.913-.511-.913S244.171,19.16,244.171,19.666Z" fill="#ffd961"/>
            <line id="Line_103" data-name="Line 103" y2="5.998" transform="translate(249.146 97.387)" fill="none" stroke="#132c51" stroke-linecap="round" stroke-miterlimit="10" stroke-width="1.149"/>
            <line id="Line_104" data-name="Line 104" y2="5.998" transform="translate(240.419 97.387)" fill="none" stroke="#132c51" stroke-linecap="round" stroke-miterlimit="10" stroke-width="1.149"/>
            <line id="Line_105" data-name="Line 105" y2="5.998" transform="translate(228.699 97.387)" fill="none" stroke="#132c51" stroke-linecap="round" stroke-miterlimit="10" stroke-width="1.149"/>
            <path id="Path_1146" data-name="Path 1146" d="M231.56,97.622h5.3v5h-5.533" fill="none" stroke="#c1c1c1" stroke-linecap="round" stroke-linejoin="round" stroke-width="1.149"/>
            <line id="Line_106" data-name="Line 106" x1="2.769" transform="translate(234.088 100.018)" fill="none" stroke="#c1c1c1" stroke-linecap="round" stroke-linejoin="round" stroke-width="0.575"/>
            <path id="Path_1147" data-name="Path 1147" d="M240.149,62.841v4.493c0,1.04,7.268,1.04,7.268,0V62.841h-2.35l-1.385,1.3-1.241-1.3Z" fill="none" stroke="#9abad8" stroke-linecap="round" stroke-linejoin="round" stroke-width="0.575"/>
            <path id="Path_1148" data-name="Path 1148" d="M247.388,62.841h.592v-2.66h-8.6v2.66h.741" fill="none" stroke="#9abad8" stroke-linecap="round" stroke-linejoin="round" stroke-width="0.575"/>
            <path id="Path_1149" data-name="Path 1149" d="M228.762,42.986v1.373L221.293,47.7s-1.953.172-2.143.167-.218-.075-.161-.167l.391-.575,9.376-4.51Z" fill="#102b51"/>
            <path id="Path_1150" data-name="Path 1150" d="M243.677,43.29l9.5-1.229,1.666.086s.448.046.138.241l-1.9,1.149-9.606,1.5S244.067,43.618,243.677,43.29Z" fill="#102b51"/>
            <line id="Line_107" data-name="Line 107" x1="8.474" y2="25.647" transform="translate(244.136 90.297)" fill="none" stroke="#000" stroke-linecap="round" stroke-miterlimit="10" stroke-width="2.298"/>
            <line id="Line_108" data-name="Line 108" x1="5.257" y1="1.735" transform="translate(245.268 94.882)" fill="none" stroke="#000" stroke-linecap="round" stroke-miterlimit="10" stroke-width="2.298"/>
            <path id="Path_1151" data-name="Path 1151" d="M222.914,109.09a3.717,3.717,0,1,1,3.717,3.717,3.717,3.717,0,0,1-3.717-3.717Zm.936,0a1.155,1.155,0,1,0-.029,0Z" fill="#c1c1c1"/>
            <path id="Path_1152" data-name="Path 1152" d="M228.331,105.838c-.529-.379.758-1.988.057-2.574s-3.344-.575-4.022.109.781,2.2.224,2.585" fill="#c1c1c1"/>
            <line id="Line_109" data-name="Line 109" y2="1.005" transform="translate(226.395 102.345)" fill="none" stroke="#c1c1c1" stroke-linecap="round" stroke-miterlimit="10" stroke-width="1.149"/>
            <path id="Path_1153" data-name="Path 1153" d="M221.885,61.95c0-.408.46.339,1.275.08s.954-1.149,1.528-1.184.575,1.011,1.252,1.189c.862.213,1.408-.54,1.408-.086V65.1h0v.109a2.735,2.735,0,0,1-5.464,0,.636.636,0,0,1,0-.109h0Z" fill="#ffc215"/>
            <path id="Path_1154" data-name="Path 1154" d="M199.623,206.12c0,3.051-14.288,5.521-31.915,5.521s-31.915-2.47-31.915-5.521,14.288-5.515,31.915-5.515S199.623,203.075,199.623,206.12Z" fill="#c1c1c1" opacity="0.5"/>
            <path id="Path_1155" data-name="Path 1155" d="M191,107.745c-2.815,2.482-2.005,5.745-2.333,7.974-.218,1.5-1.069,3.189.207,2.7,2.3-.879,1.925-4.659,1.925-4.659a1.724,1.724,0,0,1,.868,1.321c.213,1.666-1.775,5.113-2.005,6.768-.247,1.764,3.4.264,4.837-1.724,2.66-3.355,2.666-9.25,2.66-9.767v-4.51l-6.55-4.251S191.436,107.332,191,107.745Z" fill="#ffbc80"/>
            <path id="Path_1156" data-name="Path 1156" d="M187.724,42.428c3.154,2.919,6.176,7.831,6.98,18.626.62,8.319,3.367,29.255,3.528,40.584,0,.471-.8,1.235-.8,1.672.029,2.643,0,4.5-.04,5.13-.172,1.861-7.469-.506-7.469-2.3,0-.575-.132-2.126-.339-4.355-.046-.471-.609-.724-.661-1.252-1.074-10.916-4.246-35.93-4.246-35.93" fill="#102b51"/>
            <path id="Path_1157" data-name="Path 1157" d="M178.589,196.17a13.312,13.312,0,0,1-1.149,5.09c-1.235,2.516-.856,4.326-.052,5.033,1.258,1.109,10.968.959,11.9,0,.753-.764,1.482-2.62.247-5.136a12.03,12.03,0,0,1-1.149-4.734"/>
            <path id="Path_1158" data-name="Path 1158" d="M163.8,197.06a18.953,18.953,0,0,1,0,2.045c-.04.477.46,3.585.776,5.475.144.856-.155,1.482-.827,1.522-3.137.167-12.128.632-14.081.632-2.379,0-4.631-.161-5.056-1.086-.626-1.39.379-3.97,5.125-5.418,2.373-.73,3.091-3.688,3.091-3.171Z"/>
            <path id="Path_1159" data-name="Path 1159" d="M174.206,43.083l-3.855-2.476-3.683.063-7.337,3.045,7.136,30.944Z" fill="#102b51"/>
            <path id="Path_1160" data-name="Path 1160" d="M167.593,119.9c1.074,10.261,9.83,76.532,10.025,77.629s11.8,1.252,11.824.075c.414-19.109-2.516-78.031-3.1-98.972,0,0-19.9-.052-36.7-.052-1.005,15.167-.345,50.908-.345,57.854S152,192.8,152.822,197.06c0,0,1.4.948,5.475,1,4.309.046,5.5-1,5.5-1s.2-23.475.4-42.716l2.574-34.5Z" fill="#102b51"/>
            <path id="Path_1161" data-name="Path 1161" d="M158.326,22.918c.224,1.724,1.534,3.861,2.792,3.206a2.786,2.786,0,0,0,1.637-3.1A2.908,2.908,0,0,0,160.3,20.24C158.855,19.947,158.1,21.257,158.326,22.918Z" fill="#ed906b"/>
            <path id="Path_1162" data-name="Path 1162" d="M158.723,20.786a1.413,1.413,0,0,1,2.143.753l-.155-1.195a1.948,1.948,0,0,0-1.023-.132,1.321,1.321,0,0,0-.965.575Z" fill="#ffbc80"/>
            <path id="Path_1163" data-name="Path 1163" d="M180.141,22.918c-.224,1.724-1.534,3.861-2.792,3.206a2.786,2.786,0,0,1-1.637-3.1,2.908,2.908,0,0,1,2.453-2.786C179.612,19.947,180.365,21.257,180.141,22.918Z" fill="#ed906b"/>
            <path id="Path_1164" data-name="Path 1164" d="M179.744,20.786a1.413,1.413,0,0,0-2.143.753l.155-1.195a1.948,1.948,0,0,1,1.023-.132,1.321,1.321,0,0,1,.965.575Z" fill="#ffbc80"/>
            <path id="Path_1165" data-name="Path 1165" d="M174.8,29.582c-.534,1.85.19,7.526.322,7.859a7.8,7.8,0,0,1-6.67,3.349c-4.711,0-4.711-2.361-4.711-2.361s1.235-5.584.575-8.618Z" fill="#ffbc80"/>
            <path id="Path_1166" data-name="Path 1166" d="M174.654,30.674a10.341,10.341,0,0,0,0,1.77s-3.028,3.579-5.171,3.579-4.958-3.275-4.958-3.275.046-2.218-.057-3.137Z" fill="#ed906b"/>
            <path id="Path_1167" data-name="Path 1167" d="M160.71,18.2a8.52,8.52,0,1,0,17.04,0c0-6.32-3.815-9.359-8.52-9.359S160.71,12.007,160.71,18.2Z" fill="#ffbc80"/>
            <path id="Path_1168" data-name="Path 1168" d="M160.71,18.2c0,4.556,0,8.371,1.724,10.847,1.046,1.494,3.763,4.056,5.745,4.711a5.745,5.745,0,0,0,2.379-.092c1.953-.7,4.458-3.194,5.458-4.6,1.724-2.476,1.724-6.291,1.724-10.847" fill="#ffbc80"/>
            <path id="Path_1169" data-name="Path 1169" d="M164.382,21.757c0,.776.465,1.4,1.046,1.4s1.04-.626,1.04-1.4-.465-1.4-1.04-1.4S164.382,20.981,164.382,21.757Z"/>
            <path id="Path_1170" data-name="Path 1170" d="M171.89,21.757c0,.776.465,1.4,1.04,1.4s1.046-.626,1.046-1.4-.471-1.4-1.046-1.4S171.89,20.981,171.89,21.757Z"/>
            <path id="Path_1171" data-name="Path 1171" d="M166.444,18.729l-.529.057c-.161,0-.345.034-.54.052s-.408.04-.615.075-.419.046-.609.092-.385.046-.534.086a4.653,4.653,0,0,1-.523.08h-.034a.3.3,0,0,1-.327-.276.293.293,0,0,1,.155-.287,4.763,4.763,0,0,1,.529-.247,5.406,5.406,0,0,1,1.235-.3c.23-.034.46-.034.678-.052h.575a2.234,2.234,0,0,1,.419.057l.155.034h0a.3.3,0,0,1-.063.575Z" fill="#0a1d35"/>
            <path id="Path_1172" data-name="Path 1172" d="M172.1,18.132a1.149,1.149,0,0,1,.155-.034c.1,0,.247-.04.419-.057h.575a3.024,3.024,0,0,1,.672.052,5.406,5.406,0,0,1,1.235.3,4.762,4.762,0,0,1,.529.247.3.3,0,0,1-.172.575h-.034a4.877,4.877,0,0,1-.523-.08c-.149-.04-.339-.04-.529-.086s-.408-.052-.615-.092-.414-.046-.615-.075a5.137,5.137,0,0,0-.54-.052l-.529-.057a.3.3,0,0,1-.27-.333.3.3,0,0,1,.207-.259Z" fill="#0a1d35"/>
            <path id="Path_1173" data-name="Path 1173" d="M170.724,25.79a5.622,5.622,0,0,0-2.976,0c-.465.276.982.638,1.488.638S171.161,26.031,170.724,25.79Z" fill="#ed906b"/>
            <path id="Path_1174" data-name="Path 1174" d="M172.356,28.519a21.257,21.257,0,0,1-6.394.207c-.213,0-.293,0,0,.126.477.2,1.9,1.614,3.171,1.614s2.873-1.58,3.309-1.838C172.591,28.519,172.505,28.479,172.356,28.519Z" fill="#ed906b"/>
            <path id="Path_1175" data-name="Path 1175" d="M170.351,40.607s-2.206-.885-3.683.063l-.712.609.81,2.3,2.677.121,1.574-2.356Z" fill="#d4e8ff"/>
            <path id="Path_1176" data-name="Path 1176" d="M149.295,59.446c-.988,7.785.994,31.6.345,39.136-.052.575,36.712.276,36.7.052-.707-14.122-.925-44.416,2.04-45.962l-.655-10.238c-2.114-2.275-10.261-3.941-11.921-5.889-2.591,1.724-7.434,22.694-9.336,34.85-5.171-13.84-4.407-35.143-4.407-35.143-4.355,3.01-10.1,4.24-14.185,7.268Z" fill="#102b51"/>
            <path id="Path_1177" data-name="Path 1177" d="M174.809,35.2h.419l2.379,2.3L175.125,45.9l-4.769-5.291S175,37.918,174.809,35.2Z" fill="#102b51"/>
            <path id="Path_1178" data-name="Path 1178" d="M164.382,34.54h-.276L161.314,36.5v8.75l4.642-3.976.712-.609S163.675,39.176,164.382,34.54Z" fill="#102b51"/>
            <path id="Path_1179" data-name="Path 1179" d="M175.119,45.9l-4.487-4.981-.282-.31-.052,1.81,5.05,4.039,1.838-7.572Z" fill="#c1c1c1"/>
            <path id="Path_1180" data-name="Path 1180" d="M161.314,45.255l5.355-4.585-.368,1.6-5.326,3.528.339-8.894Z" fill="#c1c1c1"/>
            <path id="Path_1181" data-name="Path 1181" d="M169.23,12.461a14.9,14.9,0,0,0,3.51-.827c2.3-.575,3.39,1.884,3.39,1.884,1.31,2.154,1.028,8.905,1.046,9.3a.288.288,0,1,0,.575,0,40.937,40.937,0,0,0,.2-7.216c-.316-2.717-1.827-6.952-5.527-7.216a7.136,7.136,0,0,0-5.814-1.488c-4.263.781-5.682,4.361-6.09,7.589-.368,2.947.236,7.308.236,8.2,0,.511.575.442.575,0,0-.718-.425-7.951,1.149-9.767C165.048,9.767,168.058,12.461,169.23,12.461Z"/>
            <path id="Path_1182" data-name="Path 1182" d="M169.156,0c-1.057,0-7.187,4.154-7.785,4.757s-3.9,5.693-3.9,5.693a21.762,21.762,0,0,0,2.919,6.044s.529-5.016,2.832-7.015,9.52-2.344,12.013.575a11.985,11.985,0,0,1,2.694,6.446,18.212,18.212,0,0,0,3.275-6.113s-3.275-5.171-3.872-5.826C176.82,4.022,170.27,0,169.156,0Z" fill="#0a1d35"/>
            <path id="Path_1183" data-name="Path 1183" d="M178.676,11.875c0,3.137-2.545,4.918-9.577,4.918s-9.3-1.591-9.3-4.918c0-1.925,7.676-4.918,9.439-4.918S178.676,9.767,178.676,11.875Z"/>
            <path id="Path_1184" data-name="Path 1184" d="M166.766,43.583l-2.3,42.8,3.6,5.291,3.487-5.222L169.443,43.7l-1.074-.9Z" fill="#d4e8ff"/>
            <path id="Path_1185" data-name="Path 1185" d="M186.2,95.37c.73,0,.9,5.337.138,5.337l-36.844.241c-.31,0-.31-5.228.35-5.228C150.926,95.7,186.2,95.37,186.2,95.37Z"/>
            <path id="Path_1186" data-name="Path 1186" d="M167.691,2.424c0-.224.259.184.707.046s.523-.655.845-.655.3.575.689.655c.477.121.781-.3.781-.046V4.148h0v.057a1.511,1.511,0,0,1-3.016,0V4.148h0Z" fill="#ffd961"/>
            <path id="Path_1187" data-name="Path 1187" d="M175.361,50.983c0-.3.333.241.919.057s.689-.85,1.109-.856.391.73.9.856c.626.161,1.017-.391,1.017-.057v2.3h0v.075a1.976,1.976,0,1,1-3.947,0v-.075h0Z" fill="#c1c1c1"/>
            <path id="Path_1188" data-name="Path 1188" d="M178.974,12.013c-6.446-2.3-12.289-2.333-19.493-.138" fill="none" stroke="#0a1d35" stroke-miterlimit="10" stroke-width="1.149"/>
            <path id="Path_1189" data-name="Path 1189" d="M159.142,12.841c0-.069,0-.126-.052-.126s-.046.057-.046.126,0,.126.046.126S159.142,12.909,159.142,12.841Z" fill="none" stroke="#0a1d35" stroke-miterlimit="10" stroke-width="1.149"/>
            <line id="Line_110" data-name="Line 110" y2="6.44" transform="translate(183.203 95.313)" fill="none" stroke="#132c51" stroke-linecap="round" stroke-miterlimit="10" stroke-width="1.149"/>
            <line id="Line_111" data-name="Line 111" y2="6.44" transform="translate(173.838 95.313)" fill="none" stroke="#132c51" stroke-linecap="round" stroke-miterlimit="10" stroke-width="1.149"/>
            <line id="Line_112" data-name="Line 112" y2="6.44" transform="translate(161.245 95.313)" fill="none" stroke="#132c51" stroke-linecap="round" stroke-miterlimit="10" stroke-width="1.149"/>
            <path id="Path_1190" data-name="Path 1190" d="M164.318,95.566h5.693v5.372h-5.946" fill="none" stroke="#c1c1c1" stroke-linecap="round" stroke-linejoin="round" stroke-width="1.149"/>
            <line id="Line_113" data-name="Line 113" x1="2.976" transform="translate(167.036 98.145)" fill="none" stroke="#c1c1c1" stroke-linecap="round" stroke-linejoin="round" stroke-width="0.575"/>
            <path id="Path_1191" data-name="Path 1191" d="M173.5,61.083V65.9c0,1.115,7.808,1.115,7.808,0v-4.82H178.79l-1.488,1.39-1.333-1.39Z" fill="none" stroke="#9abad8" stroke-linecap="round" stroke-linejoin="round" stroke-width="0.575"/>
            <path id="Path_1192" data-name="Path 1192" d="M181.318,61.083h.632V58.222h-9.233v2.861h.793" fill="none" stroke="#9abad8" stroke-linecap="round" stroke-linejoin="round" stroke-width="0.575"/>
            <path id="Path_1193" data-name="Path 1193" d="M154.465,61.083V65.9c0,1.115,7.808,1.115,7.808,0v-4.82h-2.522l-1.488,1.39-1.333-1.39Z" fill="none" stroke="#9abad8" stroke-linecap="round" stroke-linejoin="round" stroke-width="0.575"/>
            <path id="Path_1194" data-name="Path 1194" d="M162.273,61.083h.632V58.222h-9.233v2.861h.793" fill="none" stroke="#9abad8" stroke-linecap="round" stroke-linejoin="round" stroke-width="0.575"/>
            <path id="Path_1195" data-name="Path 1195" d="M161.314,36.9v1.471l-8.009,3.6s-2.1.178-2.3.178-.236-.086-.172-.184.419-.615.419-.615L161.319,36.5Z" fill="#102b51"/>
            <path id="Path_1196" data-name="Path 1196" d="M182.2,94.824c0-.9,1.149-1.08,2.493-1.08,1.925,0,2.591.282,2.591,2.3v7.406c0,2.591-1.833,2.689-2.545,2.689s-2.539-.1-2.539-2.717Z" fill="#c1c1c1"/>
            <path id="Path_1197" data-name="Path 1197" d="M182.824,93.991c.689-.373,1.057.575,1.057,3.677,0,.6,3.683.575,3.683-.069,0-.753.1-2.649-.391-3.315S184.059,92.963,182.824,93.991Z" fill="#9b9b9b"/>
            <path id="Path_1198" data-name="Path 1198" d="M186.248,97.14a.362.362,0,1,1-.356-.437.4.4,0,0,1,.356.437Z"/>
            <path id="Path_1199" data-name="Path 1199" d="M182.2,95.37c.73,0,.908,5.337.138,5.337s-4.315-.052-5.1-.052c-.31,0-.155-5.205.506-5.205C178.819,95.433,182.2,95.37,182.2,95.37Z"/>
            <path id="Path_1200" data-name="Path 1200" d="M178.486,95.37c0-.494.626-.575,1.362-.575,1.057,0,1.419.155,1.419,1.264v4.05c0,1.419-1,1.477-1.39,1.477s-1.39-.057-1.39-1.488Z" fill="#c1c1c1"/>
            <path id="Path_1201" data-name="Path 1201" d="M178.831,94.916c.373-.207.575.322.575,2.011,0,.327,2.017.3,2.017-.04a4.206,4.206,0,0,0-.213-1.81A2.153,2.153,0,0,0,178.831,94.916Z" fill="#9b9b9b"/>
            <path id="Path_1202" data-name="Path 1202" d="M180.7,96.634a.2.2,0,1,1-.081-.213.2.2,0,0,1,.081.213Z"/>
            <path id="Path_1203" data-name="Path 1203" d="M178.486,95.37c.609,0,.575,5.32.063,5.32-.77,0-4.315-.052-5.1-.052-.31,0-.155-5.205.506-5.205C175.033,95.433,178.486,95.37,178.486,95.37Z"/>
            <path id="Path_1204" data-name="Path 1204" d="M150.829,107.676c-.575.529-4.476.511-5.171.057s-.488-11.169.115-11.818,4.987-.575,5.36.184S151.432,107.148,150.829,107.676Z" fill="#0a1d35"/>
            <line id="Line_114" data-name="Line 114" y2="7.141" transform="translate(146.767 91.222)" fill="none" stroke="#101e35" stroke-linecap="round" stroke-miterlimit="10" stroke-width="0.575"/>
            <path id="Path_1205" data-name="Path 1205" d="M150.449,99.248a19.552,19.552,0,0,1-4.338,0,4.3,4.3,0,0,1,.184-2.419,15.9,15.9,0,0,1,4.211,0C150.662,97.013,150.731,99.082,150.449,99.248Z" fill="#2b512d"/>
            <path id="Path_1206" data-name="Path 1206" d="M152.4,91.349c1.344,2.177,4.975,1.557,6.032,4.286h-1.965s-1.442,1.678,0,5.309c.827,2.1-5.791,1.879-6.6-.994a22.01,22.01,0,0,1-1-4.085c-.126-.908-1.057-1.229-1.54-1.724" fill="#ffbc80"/>
            <path id="Path_1207" data-name="Path 1207" d="M152,58.6l-6.469,14.938s2.6,5.332,5.113,10.451c.207.419-.155,1.534.046,1.942.827,1.689,1.574,3.223,2.1,4.326.73,1.385-5.992,4.849-6.751,3.625-.236-.368-1.08-1.873-2.189-3.93-.178-.327-1.247-.477-1.436-.827-2.97-5.579-6.354-14.254-6.371-16.4,0-3.3,11.835-29.22,11.835-29.22C149.668,42.267,152,58.6,152,58.6Z" fill="#102b51"/>
            <path id="Path_1208" data-name="Path 1208" d="M160.044,11.536s-.322-.959-.345-1.034,9.5-4.234,9.5-4.234l9.767,4.211s-.144,1.3-.126,1.4-9.307-1.626-9.307-1.626Z" fill="#0a1d35"/>
            <path id="Path_1209" data-name="Path 1209" d="M159.274,11.858c0,.546.247.982.575.982s.575-.437.575-.982-.247-.982-.575-.982S159.274,11.318,159.274,11.858Z" fill="#ffd961"/>
            <ellipse id="Ellipse_19" data-name="Ellipse 19" cx="0.552" cy="0.982" rx="0.552" ry="0.982" transform="translate(177.871 10.876)" fill="#ffd961"/>
            <g id="Group_30" data-name="Group 30" clip-path="url(#clip-path-3)">
              <path id="Path_1210" data-name="Path 1210" d="M140.022,54c.19-.4.287.54,1.2.672s1.465-.7,2.028-.431.057,1.224.661,1.724c.735.609,1.609.126,1.4.575l-1.465,3.045h0a.121.121,0,0,1-.04.109,2.932,2.932,0,1,1-5.286-2.539l.057-.1h0S139.384,55.338,140.022,54Z" fill="#ffc215"/>
            </g>
            <g id="Group_31" data-name="Group 31" clip-path="url(#clip-path-4)">
              <path id="Path_1212" data-name="Path 1212" d="M197.06,55.389c-.069-.431-.431.437-1.339.3s-1.206-1.092-1.821-1-.4,1.149-1.149,1.471c-.879.373-1.586-.339-1.505.144.259,1.643.529,3.338.529,3.338h0v.121a2.932,2.932,0,1,0,5.791-.919.6.6,0,0,0-.029-.109h0S197.284,56.877,197.06,55.389Z" fill="#ffc215"/>
            </g>
            <path id="Path_1214" data-name="Path 1214" d="M176.027,51.776c0-.2.218.161.609.04s.46-.575.735-.575.259.483.575.575.672-.259.672-.04v1.505h0v.052a1.3,1.3,0,0,1-2.608,0s0-.034,0-.052h0Z" fill="none" stroke="#fff" stroke-miterlimit="10" stroke-width="0.287"/>
            <path id="Path_1215" data-name="Path 1215" d="M158.682,43.778c-.4.7-4.073,1.93-4.86,1.724s-2.58-5.808-2.218-6.618,4.527-2.177,5.136-1.557S159.084,43.089,158.682,43.778Z" fill="#0a1d35"/>
            <line id="Line_115" data-name="Line 115" x2="1.046" y2="3.056" transform="translate(152.282 37.826)" fill="none" stroke="#101e35" stroke-linecap="round" stroke-miterlimit="10" stroke-width="0.575"/>
            <line id="Line_116" data-name="Line 116" y1="1.161" x2="3.407" transform="translate(153.937 42.141)" fill="none" stroke="#c1c1c1" stroke-linecap="round" stroke-miterlimit="10" stroke-width="0.575"/>
            <line id="Line_117" data-name="Line 117" y1="0.712" x2="2.086" transform="translate(154.276 41.411)" fill="none" stroke="#c1c1c1" stroke-linecap="round" stroke-miterlimit="10" stroke-width="0.575"/>
            <line id="Line_118" data-name="Line 118" y1="0.712" x2="2.08" transform="translate(154.925 43.307)" fill="none" stroke="#c1c1c1" stroke-linecap="round" stroke-miterlimit="10" stroke-width="0.575"/>
            <path id="Path_1216" data-name="Path 1216" d="M156.476,38.119a.236.236,0,1,1-.3-.148A.235.235,0,0,1,156.476,38.119Z" fill="#ff2c2c"/>
            <path id="Path_1217" data-name="Path 1217" d="M156.677,38.723a.236.236,0,1,1-.118-.137.236.236,0,0,1,.118.137Z" fill="#2b512d"/>
            <path id="Path_1218" data-name="Path 1218" d="M165.783,28.726c-.1.034.81.54,1.12.793a16.975,16.975,0,0,0,4.533-.132c1.408-.936,1.011-.885,1.011-.885a51.489,51.489,0,0,1-6.664.224Z" fill="#fff"/>
            <path id="Path_1219" data-name="Path 1219" d="M342,195.647c0,2.8-16.213,5.079-36.195,5.079s-36.195-2.3-36.195-5.079,16.213-5.085,36.195-5.085S342,192.837,342,195.647Z" fill="#c1c1c1" opacity="0.5"/>
            <path id="Path_1220" data-name="Path 1220" d="M316.227,63.375,329.734,75a64.8,64.8,0,0,1-5.515,6.894c-.213.236.23,1.074.034,1.3-.638.718-1.189,1.356-1.609,1.861-.919,1.034,2.654,5.062,3.568,4.171.259-.184.856-.626,1.683-1.258.149-.115,1.149.052,1.3-.075,4.855-3.734,11.008-11.393,11.123-13.662.184-3.757-19.3-20.849-19.3-20.849-1.275-1.459-2.873-2.241-6.078.19-2.424,1.821-3,7.543-2.361,8.968S316.227,63.375,316.227,63.375Z" fill="#275389"/>
            <path id="Path_1221" data-name="Path 1221" d="M292.43,187.638a11.726,11.726,0,0,0-.506,5.01c.2,2.08.052,2.976-.477,3-2.43.144-9.4.575-10.916.575-1.844,0-3.6-.138-3.918-.942-.488-1.212.287-3.447,3.97-4.717,1.85-.632,2.407-3.2,2.407-2.752Z"/>
            <path id="Path_1222" data-name="Path 1222" d="M295.3,63.375,281.262,73.418a48.6,48.6,0,0,0,6.05,8.457c.213.236-.23,1.074-.035,1.3.638.718,1.184,1.356,1.6,1.861.925,1.034-2.649,5.062-3.562,4.171-.259-.184-.856-.626-1.683-1.258-.155-.115-1.149.052-1.3-.075-4.855-3.734-11.542-12.978-11.657-15.248-.184-3.757,19.832-19.264,19.832-19.264,1.27-1.459,2.844-2.241,6.078.19,2.424,1.821,3,7.543,2.356,8.968S295.3,63.375,295.3,63.375Z" fill="#275389"/>
            <path id="Path_1223" data-name="Path 1223" d="M314.078,28.037s4.6.873,4.6,7.279c0,4.7-.988,7.193-.62,9.008.075.373,0,.833-.575.368A13.384,13.384,0,0,1,312.544,33.4"/>
            <path id="Path_1224" data-name="Path 1224" d="M320.582,187.793s-.046,1.178,0,1.781c0,.414-.333,3.114-.575,4.757-.109.747.109,1.293.575,1.321,2.264.144,8.744.575,10.158.575,1.724,0,2.873-.138,3.194-.942.448-1.212.178-3.447-3.246-4.717-1.724-.632-2.229-3.2-2.229-2.752Z"/>
            <path id="Path_1225" data-name="Path 1225" d="M311.263,53.9l-3.349-2.149-3.206.052-6.377,2.649,6.2,26.91Z" fill="#fff"/>
            <path id="Path_1226" data-name="Path 1226" d="M314.216,154.741a155.468,155.468,0,0,0,6.458,33.477c.172.954,8.141.954,8.164-.069.207-9.514-3.93-25.279-4.7-44.813-.574-14.57-2.6-38.045-4.091-45.565-.942-4.78-27.91-5.607-29.53,0-2.183,7.566-1.459,25.319-2.873,48.076-.373,6.032-5.418,38.263-4.705,41.94,0,0,.988.77,4.493,1.316s4.671-.149,4.671-.149a299.357,299.357,0,0,0,6.228-35.379c2.3-17.81,5.8-29.358,7.227-36.821C306.868,122.195,313.027,137.419,314.216,154.741Z" fill="#102b51"/>
            <path id="Path_1227" data-name="Path 1227" d="M297.457,36.367c.2,1.471,1.333,3.355,2.424,2.786a2.419,2.419,0,0,0,1.425-2.689,2.531,2.531,0,0,0-2.131-2.424C297.917,33.782,297.262,34.9,297.457,36.367Z" fill="#ed906b"/>
            <path id="Path_1228" data-name="Path 1228" d="M297.8,34.511a1.229,1.229,0,0,1,1.861.661l-.138-1.046a1.677,1.677,0,0,0-.885-.115,1.149,1.149,0,0,0-.839.5Z" fill="#ffbc80"/>
            <path id="Path_1229" data-name="Path 1229" d="M316.422,36.367c-.2,1.471-1.333,3.355-2.424,2.786a2.419,2.419,0,0,1-1.425-2.689A2.531,2.531,0,0,1,314.7,34.04C315.986,33.782,316.618,34.9,316.422,36.367Z" fill="#ed906b"/>
            <path id="Path_1230" data-name="Path 1230" d="M316.078,34.511a1.229,1.229,0,0,0-1.861.661l.138-1.046a1.678,1.678,0,0,1,.885-.115,1.149,1.149,0,0,1,.839.5Z" fill="#ffbc80"/>
            <path id="Path_1231" data-name="Path 1231" d="M311.775,42.158c-.46,1.614.172,6.555.287,6.837a6.791,6.791,0,0,1-5.8,2.93c-4.079,0-4.079-2.068-4.079-2.068s1.074-4.855.517-7.469Z" fill="#ffbc80"/>
            <path id="Path_1232" data-name="Path 1232" d="M311.637,43.089a9.508,9.508,0,0,0,0,1.54s-2.626,3.114-4.5,3.114-4.274-2.873-4.274-2.873.04-1.93-.046-2.735Z" fill="#ed906b"/>
            <path id="Path_1233" data-name="Path 1233" d="M299.526,32.259a7.411,7.411,0,0,0,14.823,0c0-5.492-3.315-8.135-7.411-8.135S299.526,26.882,299.526,32.259Z" fill="#ffbc80"/>
            <path id="Path_1234" data-name="Path 1234" d="M299.526,32.259c0,3.964,0,7.279,1.511,9.434a13.111,13.111,0,0,0,4.987,4.1,5.027,5.027,0,0,0,2.068-.08c1.724-.575,3.872-2.775,4.746-4.022,1.511-2.154,1.511-5.469,1.511-9.434" fill="#ffbc80"/>
            <path id="Path_1235" data-name="Path 1235" d="M302.72,35.356c0,.678.408,1.224.908,1.224s.908-.575.908-1.224-.408-1.218-.908-1.218S302.72,34.684,302.72,35.356Z"/>
            <path id="Path_1236" data-name="Path 1236" d="M309.252,35.356c0,.678.4,1.224.908,1.224s.9-.575.9-1.224-.4-1.218-.9-1.218S309.252,34.684,309.252,35.356Z"/>
            <path id="Path_1237" data-name="Path 1237" d="M304.5,32.748h-.132l-.327.04c-.132,0-.293.034-.465.052s-.35.034-.529.069-.362.034-.529.075-.327.034-.46.069a3.826,3.826,0,0,1-.46.063h-.034a.3.3,0,0,1-.167-.575,4.135,4.135,0,0,1,.454-.224,4.682,4.682,0,0,1,1.086-.27,2.63,2.63,0,0,0,.575-.04,1.259,1.259,0,0,1,.511.029,3.125,3.125,0,0,1,.368.052l.138.034h0a.3.3,0,0,1,.184.391.3.3,0,0,1-.213.236Z" fill="#0a1d35"/>
            <path id="Path_1238" data-name="Path 1238" d="M309.425,32.173a.917.917,0,0,1,.138-.034,3.314,3.314,0,0,1,.368-.052,3.373,3.373,0,0,0,.517-.029,1.611,1.611,0,0,1,.575.04,4.557,4.557,0,0,1,1.08.27,4.67,4.67,0,0,1,.46.224.3.3,0,0,1,.109.414.31.31,0,0,1-.281.149h-.034a3.827,3.827,0,0,1-.454-.063c-.132-.034-.3-.029-.46-.069s-.35-.04-.529-.075-.362-.046-.534-.069-.327-.046-.465-.052l-.327-.04h-.126a.31.31,0,0,1-.27-.345.3.3,0,0,1,.207-.247Z" fill="#0a1d35"/>
            <path id="Path_1239" data-name="Path 1239" d="M308.235,38.866a4.895,4.895,0,0,0-2.591,0c-.4.241.856.575,1.3.575S308.615,39.067,308.235,38.866Z" fill="#ed906b"/>
            <path id="Path_1240" data-name="Path 1240" d="M309.666,41.239a18.327,18.327,0,0,1-5.556.178c-.184,0-.259,0,0,.109.414.178,1.649,1.408,2.758,1.408s2.511-1.373,2.873-1.6C309.861,41.239,309.787,41.2,309.666,41.239Z" fill="#ed906b"/>
            <path id="Path_1241" data-name="Path 1241" d="M293.637,71.913c.988,5.13,1.2,14-3.74,25.894-.2.477,31.024.144,30.949-.04-2.942-7.164-4.24-17.488-3.447-25.354,1.362-4.315,3.522-9.635,4.55-10.175l-.575-8.9c-1.838-1.976-7.285-3.447-8.727-5.119-1.689,1.149-2.131,3.154-4.74,3.533a82.074,82.074,0,0,0-2.045,8.164c-.764-2.114-.575-6.653-1.149-8.112-3.2.184-4.022-3.838-4.022-3.838-3.786,2.614-7.147,3.683-10.7,6.32C290.006,54.281,291.569,66.558,293.637,71.913Z" fill="#275389"/>
            <path id="Path_1242" data-name="Path 1242" d="M311.792,47.042h.356l2.068,1.994-2.154,7.314-4.148-4.6S311.964,49.437,311.792,47.042Z" fill="#102b51"/>
            <path id="Path_1243" data-name="Path 1243" d="M302.72,46.473h-.236l-2.43,1.724v7.6l4.022-3.447.62-.534S302.105,50.506,302.72,46.473Z" fill="#102b51"/>
            <path id="Path_1244" data-name="Path 1244" d="M312.062,56.349l-3.907-4.326-.241-.27-.046,1.574,4.389,3.51,1.6-6.59Z" fill="#c1c1c1"/>
            <path id="Path_1245" data-name="Path 1245" d="M300.054,55.792l4.654-3.987-.316,1.39-4.636,3.068.3-7.733Z" fill="#c1c1c1"/>
            <path id="Path_1246" data-name="Path 1246" d="M306.937,27.278a12.885,12.885,0,0,0,3.051-.724c1.994-.494,2.947,1.643,2.947,1.643,1.149,1.873.9,7.739.914,8.078s.471.385.477,0A35.942,35.942,0,0,0,314.5,30c-.276-2.361-1.591-6.044-4.809-6.274a6.216,6.216,0,0,0-5.061-1.281c-3.706.678-4.941,3.792-5.291,6.6a44.074,44.074,0,0,0,.2,7.13c0,.442.494.385.494,0,0-.626-.368-6.894.988-8.52C303.3,24.94,305.914,27.278,306.937,27.278Z"/>
            <path id="Path_1247" data-name="Path 1247" d="M320.295,95c.632,0,.787,4.648.121,4.648l-30.639.207c-.27,0-.27-4.55.3-4.55C291.017,95.3,320.295,95,320.295,95Z"/>
            <line id="Line_119" data-name="Line 119" y2="5.596" transform="translate(319.088 94.968)" fill="none" stroke="#132c51" stroke-linecap="round" stroke-miterlimit="10" stroke-width="1.149"/>
            <line id="Line_120" data-name="Line 120" y2="5.596" transform="translate(299.997 94.968)" fill="none" stroke="#132c51" stroke-linecap="round" stroke-miterlimit="10" stroke-width="1.149"/>
            <path id="Path_1248" data-name="Path 1248" d="M302.668,99.851h4.947V95.186h-4.947v4.665" fill="#ffc215"/>
            <line id="Line_121" data-name="Line 121" x1="2.585" transform="translate(305.03 97.427)" fill="none" stroke="#000" stroke-linecap="round" stroke-linejoin="round" stroke-width="0.575"/>
            <path id="Path_1249" data-name="Path 1249" d="M300.054,48.53v1.281l-6.969,3.12s-1.821.161-2,.161-.207-.075-.149-.161l.362-.534,8.756-4.211Z" fill="#102b51"/>
            <path id="Path_1250" data-name="Path 1250" d="M318.215,95c.632,0,.787,4.648.121,4.648s-3.752-.046-4.441-.046c-.27,0-.132-4.527.442-4.527C315.273,95.071,318.215,95,318.215,95Z"/>
            <path id="Path_1251" data-name="Path 1251" d="M314.986,95.014c.534,0,.517,4.631.052,4.631-.666,0-3.746-.046-4.435-.046-.27,0-.132-4.527.442-4.527C311.964,95.071,314.986,95.014,314.986,95.014Z"/>
            <path id="Path_1252" data-name="Path 1252" d="M297.768,54.51c-.35.609-3.545,1.678-4.234,1.5s-2.235-5.05-1.925-5.745,3.935-1.9,4.47-1.356S298.112,53.907,297.768,54.51Z" fill="#0a1d35"/>
            <line id="Line_122" data-name="Line 122" x2="0.902" y2="2.654" transform="translate(292.201 49.334)" fill="none" stroke="#101e35" stroke-linecap="round" stroke-miterlimit="10" stroke-width="0.575"/>
            <line id="Line_123" data-name="Line 123" y1="1.011" x2="2.965" transform="translate(293.637 53.086)" fill="none" stroke="#c1c1c1" stroke-linecap="round" stroke-miterlimit="10" stroke-width="0.575"/>
            <line id="Line_124" data-name="Line 124" y1="0.615" x2="1.815" transform="translate(293.93 52.454)" fill="none" stroke="#c1c1c1" stroke-linecap="round" stroke-miterlimit="10" stroke-width="0.575"/>
            <line id="Line_125" data-name="Line 125" y1="0.62" x2="1.815" transform="translate(294.493 54.097)" fill="none" stroke="#c1c1c1" stroke-linecap="round" stroke-miterlimit="10" stroke-width="0.575"/>
            <path id="Path_1253" data-name="Path 1253" d="M295.843,49.587a.2.2,0,0,1-.385.132.2.2,0,0,1,.126-.259.207.207,0,0,1,.259.126Z" fill="#ff2c2c"/>
            <path id="Path_1254" data-name="Path 1254" d="M296.021,50.11a.2.2,0,0,1-.126.259.2.2,0,0,1-.132-.385.2.2,0,0,1,.259.126Z" fill="#2b512d"/>
            <path id="Path_1255" data-name="Path 1255" d="M303.921,41.417c-.08.034.707.471.977.689a14.719,14.719,0,0,0,3.941-.115c1.224-.816.879-.764.879-.764A45.128,45.128,0,0,1,303.921,41.417Z" fill="#fff"/>
            <path id="Path_1256" data-name="Path 1256" d="M306.972,15.995c-.873,0-5.952,3.447-6.44,3.941s-3.229,4.705-3.229,4.705a18.006,18.006,0,0,0,2.413,5s.442-4.148,2.344-5.8,7.882-1.942,9.945.465a9.933,9.933,0,0,1,2.258,5.337,15.087,15.087,0,0,0,2.706-5.062s-2.706-4.274-3.2-4.814S307.9,15.995,306.972,15.995Z" fill="#0a1d35"/>
            <path id="Path_1257" data-name="Path 1257" d="M314.837,25.853c0,2.6-2.108,4.068-7.928,4.068s-7.681-1.344-7.681-4.068c0-1.6,6.32-4.073,7.808-4.073S314.837,24.067,314.837,25.853Z"/>
            <path id="Path_1258" data-name="Path 1258" d="M305.759,18c0-.184.213.155.574.04s.437-.54.7-.54.247.46.575.54.643-.247.643-.04v1.442h0v.046a1.252,1.252,0,1,1-2.5,0v-.046h0Z" fill="#ffd961"/>
            <path id="Path_1259" data-name="Path 1259" d="M298.8,25.813c0,.448.2.81.454.81s.454-.362.454-.81S299.5,25,299.25,25,298.8,25.359,298.8,25.813Z" fill="#ffd961"/>
            <path id="Path_1260" data-name="Path 1260" d="M314.187,25.813c0,.448.2.81.454.81s.454-.362.454-.81-.2-.816-.454-.816S314.187,25.359,314.187,25.813Z" fill="#ffd961"/>
            <path id="Path_1261" data-name="Path 1261" d="M288.759,85.4a5.958,5.958,0,0,0,1.281.575c.483.109,3.039-.2,3.78.959s.138,5.814-2.195,6.262c-2.873.575-4.5-3.246-5.952-4.114a6.182,6.182,0,0,1,3.085-3.683Z" fill="#ffbc80"/>
            <path id="Path_1262" data-name="Path 1262" d="M322.759,85.4a5.9,5.9,0,0,1-1.287.575c-.477.109-3.039-.2-3.78.959s-.138,5.814,2.2,6.262c2.873.575,4.493-3.246,5.952-4.114a6.182,6.182,0,0,0-3.085-3.683Z" fill="#ffbc80"/>
            <path id="Path_1263" data-name="Path 1263" d="M305.868,59.917a29.651,29.651,0,0,0-.971,9.767c.431,5.084.46,21.631.35,25.308l.62-19.074Z" fill="#102b51"/>
            <path id="Path_1264" data-name="Path 1264" d="M310.522,60.652c0-.276.3.224.85.052s.632-.781,1.017-.787.356.672.833.793c.575.144.936-.362.936-.057v2.091h0v.075a1.815,1.815,0,1,1-3.631,0s0-.046,0-.075h0Z" fill="#c1c1c1"/>
            <path id="Path_1265" data-name="Path 1265" d="M315.135,68.138h.483V65.932H308.5v2.206h2.516l1.028,1.074,1.143-1.023Z" fill="#102b51"/>
            <g id="Group_32" data-name="Group 32" clip-path="url(#clip-path-5)">
              <path id="Path_1266" data-name="Path 1266" d="M329.091,56.929c-.3-.27-.057.575-.787.988s-1.494-.086-1.879.339.379,1.063.04,1.724c-.414.776-1.333.672-1,.977l2.3,2.086h0a1.042,1.042,0,0,1,.075.08,2.707,2.707,0,1,0,3.625-4.022.818.818,0,0,0-.086-.063h0Z" fill="#ffc215"/>
            </g>
            <g id="Group_33" data-name="Group 33" clip-path="url(#clip-path-6)">
              <path id="Path_1268" data-name="Path 1268" d="M282.606,56.085c.316-.253,0,.575.73,1.034s1.494,0,1.856.448-.442,1.04-.138,1.724c.373.8,1.293.747.942,1.028l-2.424,1.953h0l-.075.08a2.7,2.7,0,0,1-3.384-4.205.82.82,0,0,1,.086-.063h0Z" fill="#ffc215"/>
            </g>
            <path id="Path_1270" data-name="Path 1270" d="M312.378,68.006a.316.316,0,1,1-.316-.316A.316.316,0,0,1,312.378,68.006Z" fill="#ffc215"/>
            <path id="Path_1271" data-name="Path 1271" d="M302.829,68.138h.488V65.932H296.2v2.206h2.511l1.028,1.074,1.143-1.023Z" fill="#102b51"/>
            <path id="Path_1272" data-name="Path 1272" d="M300.077,68.006a.322.322,0,1,1-.322-.316.316.316,0,0,1,.322.316Z" fill="#ffc215"/>
            <path id="Path_1273" data-name="Path 1273" d="M303.346,64.869a.408.408,0,0,0-.408-.408h-6.222a.408.408,0,0,0-.408.408h0a.408.408,0,0,0,.408.408h6.193a.408.408,0,0,0,.408-.408Z" fill="#ffc215"/>
            <line id="Line_126" data-name="Line 126" y2="5.596" transform="translate(310.941 94.968)" fill="none" stroke="#132c51" stroke-linecap="round" stroke-miterlimit="10" stroke-width="1.149"/>
            <path id="Path_1274" data-name="Path 1274" d="M312.022,106.171a3.6,3.6,0,1,1,3.6,3.6,3.6,3.6,0,0,1-3.6-3.6Zm.908,0a2.694,2.694,0,1,0,2.689-2.695A2.694,2.694,0,0,0,312.929,106.171Z" fill="#c1c1c1"/>
            <path id="Path_1275" data-name="Path 1275" d="M317.3,103.023c-.511-.368.735-1.925.057-2.493s-3.246-.534-3.878.1.758,2.137.218,2.5" fill="#c1c1c1"/>
            <line id="Line_127" data-name="Line 127" y2="0.971" transform="translate(315.423 99.645)" fill="none" stroke="#c1c1c1" stroke-linecap="round" stroke-miterlimit="10" stroke-width="1.149"/>
            <path id="Path_1276" data-name="Path 1276" d="M58.739,195.647c0,2.8-13.145,5.079-29.369,5.079S0,198.451,0,195.647s13.151-5.079,29.369-5.079S58.739,192.843,58.739,195.647Z" fill="#c1c1c1" opacity="0.5"/>
            <path id="Path_1277" data-name="Path 1277" d="M31.9,27.9c-4.355,1.229-7.572,4.062-8.4,8.043-.425,2.08,0,7,2.2,8.239,0,0,5.234,0,7.71,1.517C33.408,45.726,34.977,27.031,31.9,27.9Z" fill="#684000"/>
            <path id="Path_1278" data-name="Path 1278" d="M37.482,27.9c4.349,1.229,7.572,4.062,8.394,8.043.431,2.08,0,7-2.2,8.239,0,0-5.234,0-7.71,1.517C35.965,45.726,34.4,27.031,37.482,27.9Z" fill="#684000"/>
            <path id="Path_1279" data-name="Path 1279" d="M24.342,187.868a16.9,16.9,0,0,1,0,1.764c-.034.414.4,3.085.666,4.711.126.735-.132,1.275-.712,1.31-2.7.144-10.439.546-12.122.546-2.045,0-3.987-.138-4.349-.936-.54-1.195.322-3.418,4.407-4.665,2.051-.626,2.666-3.171,2.666-2.729Z"/>
            <path id="Path_1280" data-name="Path 1280" d="M39.1,188.276c.172,2.3-2.62,3.51-2.6,5.648a3.74,3.74,0,0,0,.178,1.574c.666.988,2.39,1.109,3.786,1.109a16.771,16.771,0,0,0,5.7-.753c2.66-1.023,1.149-5.24,1.149-7.578C47.289,187.293,39.1,188.276,39.1,188.276Z"/>
            <path id="Path_1281" data-name="Path 1281" d="M39.027,55.366l-3.321-2.131-3.171.052-6.314,2.626,6.142,26.635Z" fill="#275389"/>
            <path id="Path_1282" data-name="Path 1282" d="M33.678,114.645c.092,2.091,1.385,17.81,4.24,36.229a181.9,181.9,0,0,1,1.229,37.792,12.065,12.065,0,0,0,3.752.718,12.37,12.37,0,0,0,4.418-.54s2.873-29.352,1.758-40.119c-1.775-16.742,2.717-42.514.419-50.558a58.355,58.355,0,0,0-17.511-2.982c-4.728.04-8.894,2.436-13.271,2.982-.425,5.5-2.965,28.5-2.35,49.305.546,18.54-1.2,35.046-1.465,40.394,0,0,1.195.948,4.688,1.275s4.78-.575,4.78-.575,4.987-29.875,4.947-41.038c-.04-11.628,3.309-32.794,3.309-32.794Z" fill="#102b51"/>
            <path id="Path_1283" data-name="Path 1283" d="M25.359,36.97c.19,1.454,1.321,3.321,2.4,2.758a2.4,2.4,0,0,0,1.408-2.66,2.513,2.513,0,0,0-2.108-2.407C25.813,34.414,25.164,35.517,25.359,36.97Z" fill="#ed906b"/>
            <path id="Path_1284" data-name="Path 1284" d="M25.7,35.132a1.218,1.218,0,0,1,1.844.655L27.4,34.753a1.637,1.637,0,0,0-.873-.115A1.149,1.149,0,0,0,25.7,35.132Z" fill="#ffbc80"/>
            <path id="Path_1285" data-name="Path 1285" d="M44.135,36.97c-.2,1.454-1.321,3.321-2.4,2.758a2.4,2.4,0,0,1-1.413-2.66,2.512,2.512,0,0,1,2.114-2.407C43.663,34.414,44.324,35.517,44.135,36.97Z" fill="#ed906b"/>
            <path id="Path_1286" data-name="Path 1286" d="M43.79,35.132a1.218,1.218,0,0,0-1.85.655l.138-1.034a1.649,1.649,0,0,1,.879-.115A1.149,1.149,0,0,1,43.79,35.132Z" fill="#ffbc80"/>
            <path id="Path_1287" data-name="Path 1287" d="M39.533,43.744c-.46,1.591.167,6.481.282,6.768a6.722,6.722,0,0,1-5.745,2.873c-4.022,0-4.022-2.051-4.022-2.051s1.063-4.809.511-7.423Z" fill="#ffbc80"/>
            <path id="Path_1288" data-name="Path 1288" d="M39.395,44.686a9.261,9.261,0,0,0,0,1.522s-2.626,3.085-4.47,3.085-4.234-2.873-4.234-2.873.04-1.907-.046-2.7Z" fill="#ed906b"/>
            <path id="Path_1289" data-name="Path 1289" d="M27.4,33.943a7.337,7.337,0,1,0,14.673,0c0-5.435-3.286-8.043-7.337-8.043S27.4,28.617,27.4,33.943Z" fill="#ffbc80"/>
            <path id="Path_1290" data-name="Path 1290" d="M27.4,33.943c0,3.924,0,7.21,1.5,9.342.9,1.281,3.24,3.493,4.935,4.022a4.918,4.918,0,0,0,2.045-.08c1.683-.575,3.838-2.746,4.694-3.97,1.5-2.131,1.5-5.418,1.5-9.342" fill="#ffbc80"/>
            <path id="Path_1291" data-name="Path 1291" d="M38.027,42.641c0,.23-1.833,2.091-3.286,2.091s-3.286-1.861-3.286-2.091A31.811,31.811,0,0,1,38.027,42.641Z" fill="#fff"/>
            <path id="Path_1292" data-name="Path 1292" d="M30.289,36.6c0,.666.4,1.206.9,1.206s.9-.54.9-1.206-.4-1.206-.9-1.206S30.289,35.93,30.289,36.6Z"/>
            <path id="Path_1293" data-name="Path 1293" d="M37.229,36.6c0,.666.4,1.206.9,1.206s.9-.54.9-1.206-.4-1.206-.9-1.206S37.229,35.93,37.229,36.6Z"/>
            <path id="Path_1294" data-name="Path 1294" d="M32.351,33.9h-.46a7.939,7.939,0,0,0-1.011.1c-.184.029-.368.04-.534.08s-.333.046-.465.086c-.27.069-.454.1-.454.1h0a.167.167,0,0,1-.2-.138.172.172,0,0,1,.1-.184s.178-.08.454-.184a4.82,4.82,0,0,1,1.051-.241,5.889,5.889,0,0,1,1.074-.04,1.956,1.956,0,0,1,.488.057.172.172,0,0,1,.138.2.184.184,0,0,1-.184.172Z"/>
            <path id="Path_1295" data-name="Path 1295" d="M37.217,33.563s.2-.034.488-.057a5.889,5.889,0,0,1,1.074.04,4.762,4.762,0,0,1,1.046.241c.282.1.454.184.454.184a.167.167,0,0,1,.086.224.178.178,0,0,1-.184.1h0a1.476,1.476,0,0,1-.454-.1c-.126-.04-.293-.046-.46-.086s-.35-.052-.534-.08c-.368-.052-.735-.08-1.011-.1a3.263,3.263,0,0,0-.46,0,.172.172,0,0,1,0-.339Z"/>
            <path id="Path_1296" data-name="Path 1296" d="M36.028,40.486a4.786,4.786,0,0,0-2.562,0c-.4.236.845.575,1.281.575S36.4,40.687,36.028,40.486Z" fill="#ed906b"/>
            <path id="Path_1297" data-name="Path 1297" d="M19.913,68.707c-.609,4.78-.333,7.52-.575,16.839-.1,3.74-.471,10.778-.632,12.639,0,.3,30.783,0,30.783,0a44.52,44.52,0,0,1-2.12-12.346c-.046-10.226,1.781-16.471,1.724-17.3l2.562-13.174c-1.833-1.936-9.824-3.947-11.255-5.625-2.229,1.5-6.4,19.534-8.043,30-4.435-11.916-3.792-30.248-3.792-30.248-3.74,2.591-8.687,3.648-12.2,6.239Z" fill="#275389"/>
            <path id="Path_1298" data-name="Path 1298" d="M39.544,48.576H39.9l2.04,1.982-1.965,6.676-4.269-4.022S39.705,50.943,39.544,48.576Z" fill="#102b51"/>
            <path id="Path_1299" data-name="Path 1299" d="M30.57,48.013h-.236l-2.407,1.724v7.526l4.022-3.447.615-.529S29.961,52.006,30.57,48.013Z" fill="#102b51"/>
            <path id="Path_1300" data-name="Path 1300" d="M34.741,29.013a12.648,12.648,0,0,0,3.022-.718c1.971-.488,2.919,1.626,2.919,1.626,1.149,1.856.885,7.664.9,8s.465.379.471,0a35.436,35.436,0,0,0,.172-6.211c-.27-2.338-1.568-5.981-4.757-6.211a6.147,6.147,0,0,0-5-1.264c-3.671.672-4.895,3.752-5.245,6.532a43.644,43.644,0,0,0,.2,7.055c0,.437.488.385.488,0,0-.62-.362-6.848.977-8.434C31.145,26.7,33.73,29.013,34.741,29.013Z" fill="#684000"/>
            <path id="Path_1301" data-name="Path 1301" d="M34.678,18.281c-7.1,0-10.876,9.474-10.876,9.474a9,9,0,0,0,3.326,4.723s.448-4.326,2.442-6.05,8.193-2.017,10.341.483a10.341,10.341,0,0,1,2.3,5.55,8.963,8.963,0,0,0,3.326-4.723S41.791,18.281,34.678,18.281Z" fill="#0a1d35"/>
            <path id="Path_1302" data-name="Path 1302" d="M43.485,28c0,2.7-2.809,4.74-8.859,4.74S26.29,30.863,26.29,28c0-1.66,4.418-3.7,8.773-3.729C39.3,24.239,43.485,26.169,43.485,28Z"/>
            <path id="Path_1303" data-name="Path 1303" d="M27.9,84.971a.868.868,0,1,0,.868-.868.868.868,0,0,0-.868.868Z" fill="#ffd961"/>
            <path id="Path_1304" data-name="Path 1304" d="M33.65,21.924A1.028,1.028,0,1,0,34.678,20.9a1.028,1.028,0,0,0-1.028,1.028Z" fill="#ffd961"/>
            <path id="Path_1305" data-name="Path 1305" d="M32.69,22.36h3.855l.919-.873H31.9Z" fill="#ffd961"/>
            <path id="Path_1306" data-name="Path 1306" d="M43.382,28.858a17.365,17.365,0,0,0-16.954.2" fill="none" stroke="#ffd961" stroke-linecap="round" stroke-miterlimit="10" stroke-width="0.575"/>
            <path id="Path_1307" data-name="Path 1307" d="M19.643,79.738c4.148-.138,12.536-2.367,19.384-2.367.442,0,6.32,1.568,6.32,2.258.086,2.08-5.314,4.682-5.8,3.9-3.734.109-26.25,7.664-27.858,4.981-2.114-3.533,2.649-28.726,4.654-32.748,1.54-1.074,3.447-1.815,5.9,1.229C24.1,59.285,23.3,64.8,22.355,66S19.643,79.738,19.643,79.738Z" fill="#ffbc80"/>
            <path id="Path_1308" data-name="Path 1308" d="M49.208,79.738c-4.148-.138-10.755-.276-17.6-.276-1.781.046-1.074,6.567-.419,5.51,3.734.109,24.325,5.458,25.514,2.568.8-1.942-2.511-27.749-4.516-31.8-1.54-1.074-3.447-1.815-5.9,1.229-1.856,2.3-.575,7.566-.115,9.008C46.932,68.282,49.208,79.738,49.208,79.738Z" fill="#ffbc80"/>
            <path id="Path_1309" data-name="Path 1309" d="M16.362,55.728a39.479,39.479,0,0,0-2.4,8.56c-.052.31-.632.8-.712,1.086-.437,1.534-.776,2.815-.873,3.407-.356,2.022,9.646.442,9.767-.264s2.465-7.331,2.465-7.331-1.011-5.274-.8-5.636-2.43-1.252-2.43-1.252S16.931,54.763,16.362,55.728Z" fill="#275389"/>
            <path id="Path_1310" data-name="Path 1310" d="M52.166,55.728c.575.7,1.724,5.171,2.488,9.284.057.3.7.632.781.908.356,1.293.626,2.338.718,2.873.356,2.022-9.652.442-9.767-.264S43.928,61.2,43.928,61.2s1.011-5.274.793-5.636,2.436-1.252,2.436-1.252S51.442,54.867,52.166,55.728Z" fill="#275389"/>
            <path id="Path_1311" data-name="Path 1311" d="M26.221,50.874V52.31l-7.492,2.953-1.574-.069.4-.661,8.308-3.9Z" fill="#102b51"/>
            <path id="Path_1312" data-name="Path 1312" d="M19.183,54.269c.057.115-.063.287-.27.385s-.414.086-.471,0,.069-.287.27-.385S19.126,54.154,19.183,54.269Z" fill="#ffc215"/>
            <path id="Path_1313" data-name="Path 1313" d="M42.67,51.109v1.436L50.156,55.5l1.574-.069-.391-.655-8.313-3.907Z" fill="#102b51"/>
            <path id="Path_1314" data-name="Path 1314" d="M49.707,54.5c-.057.115.063.287.264.385s.419.086.471-.029-.063-.287-.27-.385S49.759,54.39,49.707,54.5Z" fill="#ffc215"/>
            <path id="Path_1315" data-name="Path 1315" d="M32.535,53.287,33.81,58.6l1.9-5.343S32.989,53.361,32.535,53.287Z" fill="#fff"/>
            <path id="Path_1316" data-name="Path 1316" d="M14.759,109.159a3.528,3.528,0,1,1,3.528,3.528,3.528,3.528,0,0,1-3.528-3.528Zm.891,0a2.637,2.637,0,1,0,2.637-2.637A2.637,2.637,0,0,0,15.65,109.159Z" fill="#c1c1c1"/>
            <path id="Path_1317" data-name="Path 1317" d="M19.924,106.074c-.5-.362.724-1.89.057-2.442s-3.177-.529-3.8.1.741,2.091.213,2.447" fill="#c1c1c1"/>
            <line id="Line_128" data-name="Line 128" y2="0.954" transform="translate(18.092 102.759)" fill="none" stroke="#c1c1c1" stroke-linecap="round" stroke-miterlimit="10" stroke-width="1.149"/>
            <path id="Path_1318" data-name="Path 1318" d="M38.895,64.1c0-.385.437.322,1.212.08s.9-1.149,1.448-1.149.517.954,1.189,1.149c.816.2,1.333-.517,1.333-.086v2.987h0v.1a2.591,2.591,0,0,1-5.171,0,.633.633,0,0,1,0-.1h0Z" fill="#ffc215"/>
            <line id="Line_129" data-name="Line 129" x2="5.757" transform="translate(24.383 64.507)" fill="none" stroke="#fff" stroke-linecap="round" stroke-linejoin="round" stroke-width="1.149"/>
            <path id="Path_1319" data-name="Path 1319" d="M49.794,97.829c.643,0,.8,4.717.121,4.717l-31.805.218c-.276,0-.276-4.625.3-4.625l12.565-.121Z"/>
            <line id="Line_130" data-name="Line 130" y2="5.688" transform="translate(39.607 97.8)" fill="none" stroke="#132c51" stroke-linecap="round" stroke-miterlimit="10" stroke-width="1.149"/>
            <line id="Line_131" data-name="Line 131" y2="5.688" transform="translate(28.485 97.8)" fill="none" stroke="#132c51" stroke-linecap="round" stroke-miterlimit="10" stroke-width="1.149"/>
            <path id="Path_1320" data-name="Path 1320" d="M31.2,97.795h5.027v5.188H30.978V97.795" fill="#c1c1c1"/>
            <line id="Line_132" data-name="Line 132" x1="2.626" transform="translate(33.604 100.294)" fill="none" stroke="#000" stroke-linecap="round" stroke-linejoin="round" stroke-width="0.575"/>
            <path id="Path_1321" data-name="Path 1321" d="M50.879,103.287c-.575.471-4.125.4-4.746-.034s-.414-5.831.149-6.417,4.6-.471,4.935.253S51.448,102.839,50.879,103.287Z" fill="#0a1d35"/>
            <line id="Line_133" data-name="Line 133" x1="0.052" y2="2.965" transform="translate(47.151 96.134)" fill="none" stroke="#101e35" stroke-linecap="round" stroke-miterlimit="10" stroke-width="0.575"/>
            <line id="Line_134" data-name="Line 134" x2="3.309" y2="0.057" transform="translate(46.927 101.391)" fill="none" stroke="#c1c1c1" stroke-linecap="round" stroke-miterlimit="10" stroke-width="0.575"/>
            <line id="Line_135" data-name="Line 135" x2="2.028" y2="0.034" transform="translate(47.582 100.472)" fill="none" stroke="#c1c1c1" stroke-linecap="round" stroke-miterlimit="10" stroke-width="0.575"/>
            <line id="Line_136" data-name="Line 136" x2="2.028" y2="0.034" transform="translate(47.553 102.316)" fill="none" stroke="#c1c1c1" stroke-linecap="round" stroke-miterlimit="10" stroke-width="0.575"/>
            <path id="Path_1322" data-name="Path 1322" d="M50.736,97.7a.218.218,0,1,1-.1-.218.218.218,0,0,1,.1.218Z" fill="#ff2c2c"/>
            <path id="Path_1323" data-name="Path 1323" d="M50.724,98.277a.218.218,0,1,1-.1-.218.218.218,0,0,1,.1.218Z" fill="#2b512d"/>
            <path id="Path_1324" data-name="Path 1324" d="M32.529,85.115l4.3-1.971s4.717-3.671,8.25-3.775l.293.259s-4.269.092-6.423,2.832c-1.005,1.281-3.24,1.643-3.849,3.085Z" fill="#ed906b"/>
          </g>
        </g>
      </g>
    </g>
    <g id="Group_13" data-name="Group 13" transform="translate(3101 -1737)">
      <text id="What_makes_Telegram_special_" data-name="What makes Telegram special?" transform="translate(-3018.5 2143)" font-size="18" font-family="Roboto-Regular, Roboto"><tspan x="0" y="0">What makes Telegram special?</tspan></text>
      <text id="Telegram_uses_a_heavy_end-to-end_encryption_algorithm_to_keep_your_data_safe_from_potential_hackers._id_mauris_non_condimentum_sollicitudin_libero._Phasellus_ac_nisl_ac_orci_convallis_venenatis._Aliquam_erat_volutpat._Aliquam_odio_tortor_pharetra_ac_tell" data-name="Telegram uses a heavy end-to-end encryption algorithm to keep your data safe from potential hackers. id mauris non, condimentum sollicitudin libero. Phasellus ac nisl ac orci convallis venenatis. Aliquam erat volutpat. Aliquam odio tortor, pharetra ac tell" transform="translate(-3064.5 2190)" font-size="14" font-family="Roboto-Regular, Roboto"><tspan x="30.032" y="15">Telegram uses a heavy end-to-end encryption </tspan><tspan x="24.433" y="45">algorithm to keep your data safe from potential </tspan><tspan x="18.349" y="75">hackers. id mauris non, condimentum sollicitudin </tspan><tspan x="12.32" y="105">libero. Phasellus ac nisl ac orci convallis venenatis. </tspan></text>
    </g>
    <path id="Path_1" data-name="Path 1" d="M10.5,0A10.5,10.5,0,1,1,0,10.5,10.5,10.5,0,0,1,10.5,0Z" transform="translate(134.5 1382)" fill="#f64c4c"/>
    <circle id="Ellipse_3" data-name="Ellipse 3" cx="10.5" cy="10.5" r="10.5" transform="translate(196.5 1382)" fill="#d9d0d0"/>
    <circle id="Ellipse_3-2" data-name="Ellipse 3" cx="10.5" cy="10.5" r="10.5" transform="translate(258.5 1382)" fill="#d9d0d0"/>
    <g id="mobile-nav" transform="translate(47)">
      <g id="nav-mobile" transform="translate(264)">
        <path id="Rectangle_17" data-name="Rectangle 17" d="M0,0H103a0,0,0,0,1,0,0V77a0,0,0,0,1,0,0H71A71,71,0,0,1,0,6V0A0,0,0,0,1,0,0Z" fill="#40b3e0"/>
        <g id="nav-burger" transform="translate(40 18)">
          <rect id="Rectangle_16" data-name="Rectangle 16" width="38" height="5" fill="#fff"/>
          <rect id="Rectangle_16-2" data-name="Rectangle 16" width="38" height="6" transform="translate(0 12)" fill="#fff"/>
          <rect id="Rectangle_16-3" data-name="Rectangle 16" width="38" height="6" transform="translate(0 24)" fill="#fff"/>
        </g>
      </g>
      <g id="telegram" transform="translate(-69 -284)">
        <g id="Group_25" data-name="Group 25" transform="translate(69 295)">
          <path id="Path_753" data-name="Path 753" d="M27.667,0A27.666,27.666,0,0,0,0,27.667H0A27.666,27.666,0,0,0,27.667,55.333h0A27.666,27.666,0,0,0,55.333,27.667h0A27.666,27.666,0,0,0,27.667,0Z" fill="#40b3e0"/>
          <path id="Path_754" data-name="Path 754" d="M76.976,70.162,72.034,95.076a1.829,1.829,0,0,1-2.592.9l-11.4-8.743-4.147-2-6.98-2.35s-1.071-.38-1.175-1.209,1.21-1.278,1.21-1.278L74.695,69.5s2.281-1,2.281.657" transform="translate(-35.847 -54.247)" fill="#fff"/>
          <path id="Path_755" data-name="Path 755" d="M86.759,113.359s-.333-.031-.748-1.345-2.522-8.224-2.522-8.224l16.759-10.643s.968-.587.933,0c0,0,.173.1-.346.587S87.67,105.587,87.67,105.587" transform="translate(-65.443 -72.81)" fill="#d2e5f1"/>
          <path id="Path_756" data-name="Path 756" d="M103.866,155.689l-4.51,4.112a.79.79,0,0,1-.738.1l.864-7.639" transform="translate(-77.302 -119.351)" fill="#b5cfe4"/>
        </g>
      </g>
    </g>
    <g id="footer-color-mobile" transform="translate(0 1549)">
      <rect id="Rectangle_20" data-name="Rectangle 20" width="414" height="524" fill="#40b3e0"/>
      <text id="Home" transform="translate(207 116)" fill="#fff" font-size="18" font-family="Roboto-Regular, Roboto"><tspan x="-25.576" y="0">HOME</tspan></text>
      <text id="About" transform="translate(207 192)" fill="#fff" font-size="18" font-family="Roboto-Regular, Roboto"><tspan x="-28.868" y="0">ABOUT</tspan></text>
      <text id="Contact" transform="translate(207 271)" fill="#fff" font-size="18" font-family="Roboto-Regular, Roboto"><tspan x="-40.456" y="0">CONTACT</tspan></text>
      <text id="News" transform="translate(207 347)" fill="#fff" font-size="18" font-family="Roboto-Regular, Roboto"><tspan x="-24.855" y="0">NEWS</tspan></text>
      <text id="Donate" transform="translate(207 423)" fill="#fff" font-size="18" font-family="Roboto-Regular, Roboto"><tspan x="-34.295" y="0">DONATE</tspan></text>
    </g>
  </g>
</svg>
