<svg xmlns="http://www.w3.org/2000/svg" width="48.6" height="48.6" viewBox="0 0 48.6 48.6">
  <path id="donate-solid" d="M24.3,39.487A19.744,19.744,0,1,0,4.556,19.744,19.741,19.741,0,0,0,24.3,39.487ZM22.193,9.245V7.651a1.572,1.572,0,0,1,1.576-1.576h1.054A1.572,1.572,0,0,1,26.4,7.651V9.264a7.483,7.483,0,0,1,4.082,1.462,1.064,1.064,0,0,1,.114,1.623l-1.547,1.471a1.07,1.07,0,0,1-1.329.095,3.124,3.124,0,0,0-1.69-.484H22.335a1.651,1.651,0,0,0-1.547,1.737,1.715,1.715,0,0,0,1.149,1.671l5.914,1.775A5.947,5.947,0,0,1,32,24.319a5.853,5.853,0,0,1-5.61,5.923v1.595a1.572,1.572,0,0,1-1.576,1.576H23.759a1.572,1.572,0,0,1-1.576-1.576V30.223A7.483,7.483,0,0,1,18.1,28.761a1.064,1.064,0,0,1-.114-1.623l1.547-1.471a1.07,1.07,0,0,1,1.329-.095,3.124,3.124,0,0,0,1.69.484h3.692a1.651,1.651,0,0,0,1.547-1.737,1.715,1.715,0,0,0-1.149-1.671l-5.914-1.775a5.947,5.947,0,0,1-4.148-5.7,5.859,5.859,0,0,1,5.61-5.923Zm23.37,24.167H42.477a23.006,23.006,0,0,1-6.929,6.075H41.6a.847.847,0,0,1,.911.759v1.519a.847.847,0,0,1-.911.759H6.986a.847.847,0,0,1-.911-.759V40.247a.847.847,0,0,1,.911-.759h6.056a23.12,23.12,0,0,1-6.929-6.075H3.037A3.034,3.034,0,0,0,0,36.45v9.112A3.034,3.034,0,0,0,3.037,48.6H45.562A3.034,3.034,0,0,0,48.6,45.562V36.45A3.034,3.034,0,0,0,45.562,33.412Z" fill="#40b3e0"/>
</svg>
