<svg xmlns="http://www.w3.org/2000/svg" xmlns:xlink="http://www.w3.org/1999/xlink" width="320" height="468" viewBox="0 0 320 468">
  <defs>
    <clipPath id="clip-path">
      <rect id="Rectangle_39" data-name="Rectangle 39" width="320" height="468" rx="89" transform="translate(324 1444)" fill="#fff" stroke="#707070" stroke-width="1"/>
    </clipPath>
  </defs>
  <g id="encryption" transform="translate(-324 -1444)" clip-path="url(#clip-path)">
    <g id="Layer_2" data-name="Layer 2" transform="translate(324 1518)">
      <g id="Layer_1" data-name="Layer 1">
        <rect id="Rectangle_116" data-name="Rectangle 116" width="320" height="320" fill="#17c5cc"/>
        <path id="Path_250" data-name="Path 250" d="M140.231,243.641l8.647-65.166H100L97.195,183H83.57l-9.742,60.644Z" fill="#9b7f56"/>
        <path id="Path_251" data-name="Path 251" d="M137.828,235.748l5.646-51.015h-54.5l-8.647,51.015Z" fill="#fff"/>
        <rect id="Rectangle_117" data-name="Rectangle 117" width="14.919" height="1.892" transform="translate(121.984 190.777)" fill="#a5a5a5"/>
        <rect id="Rectangle_118" data-name="Rectangle 118" width="14.919" height="1.892" transform="translate(121.415 195.755)" fill="#a5a5a5"/>
        <rect id="Rectangle_119" data-name="Rectangle 119" width="14.919" height="1.877" transform="translate(120.903 200.718)" fill="#a5a5a5"/>
        <rect id="Rectangle_120" data-name="Rectangle 120" width="14.919" height="1.892" transform="translate(120.05 205.696)" fill="#a5a5a5"/>
        <rect id="Rectangle_121" data-name="Rectangle 121" width="14.919" height="1.892" transform="translate(119.396 210.674)" fill="#a5a5a5"/>
        <rect id="Rectangle_122" data-name="Rectangle 122" width="14.919" height="1.892" transform="translate(118.67 215.652)" fill="#a5a5a5"/>
        <path id="Path_252" data-name="Path 252" d="M140.231,243.641h-66.4l-17.294-56.96h66.389Z" fill="#fdc63a"/>
        <path id="Path_253" data-name="Path 253" d="M59.563,188.843h61.412l4.551,15.417L72.86,231.339Z" fill="#ffc950"/>
        <path id="Path_254" data-name="Path 254" d="M83.157,209.209a5.689,5.689,0,0,1,5.689,5.689v9.458H93.6V214.9a10.425,10.425,0,0,0-10.411-10.411H81.849v4.75Z" fill="#0f303f"/>
        <path id="Path_255" data-name="Path 255" d="M74.823,214.869a5.689,5.689,0,0,1,5.689-5.689h1.337v-4.75H80.512A10.425,10.425,0,0,0,70.1,214.841V224.3h4.75Z" fill="#2c5871"/>
        <path id="Path_256" data-name="Path 256" d="M97.308,224.327H81.82V247.31H97.308Z" fill="#0f303f"/>
        <path id="Path_257" data-name="Path 257" d="M74.823,224.327H66.332V247.31H81.82V224.327Z" fill="#2c5871"/>
        <rect id="Rectangle_123" data-name="Rectangle 123" width="4.75" height="1.977" transform="translate(70.073 222.364)" fill="#0f303f"/>
        <path id="Path_258" data-name="Path 258" d="M87.068,302.933V290.8H90.88a4.978,4.978,0,0,1,5.262,5.234V297.7a4.964,4.964,0,0,1-5.262,5.234ZM88.7,292.1v9.557H90.88a3.371,3.371,0,0,0,2.66-1.109,4.267,4.267,0,0,0,.967-2.844v-1.678a4.153,4.153,0,0,0-.967-2.844,3.371,3.371,0,0,0-2.66-1.109Z" fill="#fff"/>
        <path id="Path_259" data-name="Path 259" d="M104.718,299.8h-4.58l-1.081,3.129H97.394L101.76,290.8h1.422l4.267,12.132h-1.664Zm-4.1-1.422h3.627l-1.764-5.22h0Z" fill="#fff"/>
        <path id="Path_260" data-name="Path 260" d="M116.622,292.1H112.64v10.837H111V292.1h-3.954V290.8h9.572Z" fill="#fff"/>
        <path id="Path_261" data-name="Path 261" d="M123.975,299.8h-4.508l-1.138,3.129h-1.707L121,290.8h1.422l4.267,12.132h-1.65Zm-4.082-1.422h3.612l-1.764-5.22h0Z" fill="#fff"/>
        <path id="Path_262" data-name="Path 262" d="M139.378,297.244h-4.992V301.6h5.831v1.28H132.75V290.745h7.381v1.294h-5.689v3.925h4.935Z" fill="#fff"/>
        <path id="Path_263" data-name="Path 263" d="M151.339,302.933h-1.65l-5.831-9.273h0v9.273h-1.636V290.8h1.636l5.845,9.259h0v-9.244h1.65Z" fill="#fff"/>
        <path id="Path_264" data-name="Path 264" d="M162.844,299.051h0a3.641,3.641,0,0,1-1.209,2.844,4.551,4.551,0,0,1-3.257,1.152,4.267,4.267,0,0,1-3.356-1.422,5.419,5.419,0,0,1-1.294-3.7v-2.1a5.461,5.461,0,0,1,1.294-3.712,4.267,4.267,0,0,1,3.356-1.422,4.65,4.65,0,0,1,3.271,1.1,3.6,3.6,0,0,1,1.195,2.844h-1.579a2.688,2.688,0,0,0-.754-2.005,2.845,2.845,0,0,0-2.119-.754,2.588,2.588,0,0,0-2.19,1.109,4.565,4.565,0,0,0-.811,2.759v2.176a4.565,4.565,0,0,0,.811,2.759,2.588,2.588,0,0,0,2.19,1.109,2.844,2.844,0,0,0,2.119-.74,2.716,2.716,0,0,0,.754-2.034Z" fill="#fff"/>
        <path id="Path_265" data-name="Path 265" d="M166.628,297.671v5.262h-1.65V290.8h4.139a4.551,4.551,0,0,1,3.044.9,3.115,3.115,0,0,1,1.052,2.56,2.7,2.7,0,0,1-.484,1.621,3.243,3.243,0,0,1-1.422,1.109,2.446,2.446,0,0,1,1.422,1.052,3.371,3.371,0,0,1,.441,1.806v1.138a3.7,3.7,0,0,0,.128,1.01,1.422,1.422,0,0,0,.427.74v.2h-1.636a1.422,1.422,0,0,1-.412-.839,7.112,7.112,0,0,1-.1-1.124v-1.109a2.233,2.233,0,0,0-.569-1.593,2.034,2.034,0,0,0-1.536-.6Zm0-1.294h2.347a3.058,3.058,0,0,0,2.005-.526,2.034,2.034,0,0,0,.612-1.607,2.1,2.1,0,0,0-.6-1.593,2.674,2.674,0,0,0-1.863-.555h-2.5Z" fill="#fff"/>
        <path id="Path_266" data-name="Path 266" d="M179.4,296.96l3.172-6.158h1.877l-4.267,7.865v4.267H178.56v-4.395l-4.267-7.737h1.877Z" fill="#fff"/>
        <path id="Path_267" data-name="Path 267" d="M187.876,298.069v4.864h-1.564V290.8h4.636a4.267,4.267,0,0,1,3.029,1,3.8,3.8,0,0,1,0,5.276,4.267,4.267,0,0,1-3.029,1Zm0-1.28h3a2.418,2.418,0,0,0,1.835-4.025,2.361,2.361,0,0,0-1.835-.668h-3Z" fill="#fff"/>
        <path id="Path_268" data-name="Path 268" d="M205.568,292.1h-4v10.837h-1.636V292.1h-3.954V290.8h9.586Z" fill="#fff"/>
        <path id="Path_269" data-name="Path 269" d="M209.067,302.933h-1.65V290.8h1.65Z" fill="#fff"/>
        <path id="Path_270" data-name="Path 270" d="M221.383,297.956a5.148,5.148,0,0,1-1.422,3.684,4.651,4.651,0,0,1-3.57,1.422,4.423,4.423,0,0,1-3.456-1.422,5.3,5.3,0,0,1-1.337-3.684v-2.133a5.347,5.347,0,0,1,1.337-3.7,4.423,4.423,0,0,1,3.456-1.422,4.651,4.651,0,0,1,3.57,1.422,5.177,5.177,0,0,1,1.422,3.7Zm-1.636-2.133a4.139,4.139,0,0,0-.9-2.745,3.015,3.015,0,0,0-2.418-1.067,2.844,2.844,0,0,0-2.29,1.067,4.267,4.267,0,0,0-.811,2.745V298a4.267,4.267,0,0,0,.853,2.745,2.845,2.845,0,0,0,2.29,1.067,3,3,0,0,0,2.418-1.067,4.11,4.11,0,0,0,.9-2.745Z" fill="#fff"/>
        <path id="Path_271" data-name="Path 271" d="M232.932,302.933h-1.65l-5.831-9.273h0v9.273h-1.636V290.8h1.636l5.845,9.259h0v-9.244h1.65Z" fill="#fff"/>
        <path id="Path_272" data-name="Path 272" d="M98.133,104.036a26.78,26.78,0,0,0-5.5-.967c-1.109,2.46.327,9.216-3.712,9.643s-4.025-6.372-5.6-8.533a25.7,25.7,0,0,0-9.088,5.077c.967,2.5,6.6,6.172,4.11,9.244s-7.225-1.65-9.884-2.048a25.457,25.457,0,0,0-2.005,4.878,24.818,24.818,0,0,0-.953,5.248c2.432,1.081,8.974-.3,9.4,3.6s-6.3,3.968-8.448,5.547a25.386,25.386,0,0,0,4.892,9.188c2.5-.967,6.229-6.684,9.372-4.167s-1.707,7.5-2.1,10.155a26.069,26.069,0,0,0,5.134,2.148,26.64,26.64,0,0,0,4.75.91c1.124-2.475-.341-9.344,3.783-9.785s4.267,6.684,5.845,8.86a25.344,25.344,0,0,0,9.116-4.864c-.953-2.56-7-6.471-4.338-9.8s7.851,1.778,10.553,2.162a25.3,25.3,0,0,0,1.948-4.779,26.254,26.254,0,0,0,.939-5.049c-2.489-1.138-9.586.37-10.041-3.9s6.756-4.267,8.946-5.916a25.671,25.671,0,0,0-5.049-9.017c-2.546.953-6.414,6.912-9.671,4.267s1.707-7.566,2.1-10.24a25.259,25.259,0,0,0-4.494-1.863ZM100.1,131.2a7.678,7.678,0,1,0-.028,0Z" fill="#fff"/>
        <path id="Path_273" data-name="Path 273" d="M123.364,81.067a16.427,16.427,0,0,0-3.172-1.422c-1.024,1.323-1.152,5.689-3.655,5.291s-1.422-4.437-2.133-5.973a15.886,15.886,0,0,0-6.229,1.735c.213,1.65,3.086,4.693,1.138,6.187s-4.139-2.062-5.689-2.688a16.541,16.541,0,0,0-1.934,2.66,15.544,15.544,0,0,0-1.323,3c1.308,1.01,5.461,1.124,5.148,3.541s-4.38,1.422-5.916,2.119a15.915,15.915,0,0,0,1.607,6.258c1.664-.213,4.75-3.129,6.272-1.138s-2.119,4.267-2.745,5.831a16.113,16.113,0,0,0,5.518,3.285c1.038-1.323,1.166-5.689,3.712-5.362s1.564,4.651,2.233,6.215A16.1,16.1,0,0,0,122.425,109c-.213-1.692-3.285-4.935-1.195-6.556s4.48,2.219,6.059,2.844a15.986,15.986,0,0,0,1.877-2.6,16.654,16.654,0,0,0,1.308-2.844c-1.337-1.052-5.845-1.18-5.5-3.812s4.708-1.593,6.272-2.276a16.056,16.056,0,0,0-1.735-6.187c-1.678.213-4.878,3.243-6.471,1.18s2.148-4.267,2.844-5.874A15.559,15.559,0,0,0,123.364,81.067ZM120.59,97.792a5.931,5.931,0,1,1-2.176-8.092,5.931,5.931,0,0,1,2.176,8.092Z" fill="#ff6d3a"/>
        <path id="Path_274" data-name="Path 274" d="M230.087,135.324a55.167,55.167,0,0,1,9.444-.811v-3.669a58.744,58.744,0,0,0-10.384.925,53.9,53.9,0,0,1-1.15-9.885h11.534v-3.7H228a54.044,54.044,0,0,1,1.152-9.956,58.736,58.736,0,0,0,10.382.924v-3.7a56.648,56.648,0,0,1-9.444-.8C232.334,97.55,236,93.2,239.531,93.2V89.6a30.424,30.424,0,0,0-23.143,10.67,32.026,32.026,0,0,0-2.23,2.94,30.393,30.393,0,0,0,0,33.721,32.028,32.028,0,0,0,2.233,2.944,30.436,30.436,0,0,0,23.14,10.681v-3.7C236,146.788,232.334,142.507,230.087,135.324Zm.868-40.69a30.606,30.606,0,0,0-4.452,9.3,48.867,48.867,0,0,1-6.585-2.133,27.022,27.022,0,0,1,11.036-7.168ZM217.6,104.775a52.281,52.281,0,0,0,8.036,2.716,57.528,57.528,0,0,0-1.266,10.667H212.892a26.639,26.639,0,0,1,4.708-13.383Zm-4.708,17.067H224.37a57.684,57.684,0,0,0,1.266,10.667,50.776,50.776,0,0,0-8.036,2.7,26.553,26.553,0,0,1-4.779-13.355ZM220,138.183a48.84,48.84,0,0,1,6.585-2.119,30.35,30.35,0,0,0,4.452,9.287,26.838,26.838,0,0,1-11.122-7.154Z" fill="#2c5871"/>
        <path id="Path_275" data-name="Path 275" d="M264.9,103.14a32.021,32.021,0,0,0-2.233-2.944,30.421,30.421,0,0,0-23.14-10.6v3.7c3.527,0,7.2,4.267,9.444,11.463a56.648,56.648,0,0,1-9.444.8v3.7a58.49,58.49,0,0,0,10.381-.927,52.8,52.8,0,0,1,1.153,9.958H239.531v3.7h11.534a52.623,52.623,0,0,1-1.166,9.884,58.454,58.454,0,0,0-10.368-.924v3.7a55.168,55.168,0,0,1,9.444.811c-2.247,7.111-5.916,11.463-9.444,11.463v3.7a30.436,30.436,0,0,0,23.14-10.681,32.028,32.028,0,0,0,2.233-2.944,30.393,30.393,0,0,0,0-33.721Zm1.337,15.019H254.763a57.529,57.529,0,0,0-1.266-10.667,51.768,51.768,0,0,0,8.036-2.716,26.638,26.638,0,0,1,4.708,13.383ZM248.107,94.635a27.022,27.022,0,0,1,11.036,7.111,48.865,48.865,0,0,1-6.585,2.133,30.279,30.279,0,0,0-4.452-9.244Zm0,50.731a30.038,30.038,0,0,0,4.452-9.287,48.843,48.843,0,0,1,6.585,2.119,26.837,26.837,0,0,1-11.036,7.168Zm13.426-10.14a50.286,50.286,0,0,0-8.036-2.7,57.685,57.685,0,0,0,1.266-10.667H266.24a26.553,26.553,0,0,1-4.708,13.369Z" fill="#0f303f"/>
        <path id="Path_276" data-name="Path 276" d="M164.338,51.271a15.841,15.841,0,0,0-1.109-1.422,15.061,15.061,0,0,0-22.9,0,15.846,15.846,0,0,0-1.109,1.422,15.061,15.061,0,0,0,0,16.668,15.844,15.844,0,0,0,1.109,1.422,15.061,15.061,0,0,0,22.9,0,15.842,15.842,0,0,0,1.109-1.422A15.061,15.061,0,0,0,164.338,51.271Zm.654,7.424H159.3a28.842,28.842,0,0,0-.626-5.276A25.2,25.2,0,0,0,162.66,52a13.17,13.17,0,0,1,2.318,6.7ZM161.479,50.6a24.248,24.248,0,0,1-3.257,1.052,14.692,14.692,0,0,0-2.2-4.594A13.184,13.184,0,0,1,161.479,50.6Zm-9.7,8.092h-5.689a26.268,26.268,0,0,1,.569-4.892,30.236,30.236,0,0,0,5.134.455,29.979,29.979,0,0,0,5.134-.455,27.463,27.463,0,0,1,.583,4.892Zm5.689,1.82a27.619,27.619,0,0,1-.583,4.892,29.184,29.184,0,0,0-10.268,0,26.41,26.41,0,0,1-.569-4.892h11.378ZM151.78,46.293c1.749,0,3.57,2.119,4.679,5.689a27.946,27.946,0,0,1-4.679.4,27.648,27.648,0,0,1-4.665-.4c1.109-3.513,2.93-5.632,4.665-5.632ZM147.513,47a14.692,14.692,0,0,0-2.2,4.594,24.932,24.932,0,0,1-3.257-1.052,13.269,13.269,0,0,1,5.49-3.484Zm-6.642,5.006a24.547,24.547,0,0,0,3.968,1.422,28.843,28.843,0,0,0-.626,5.276h-5.689a13.184,13.184,0,0,1,2.375-6.642Zm-2.332,8.448h5.689a28.686,28.686,0,0,0,.626,5.276,26.012,26.012,0,0,0-3.968,1.422,13.227,13.227,0,0,1-2.318-6.642Zm3.513,8.092a24.933,24.933,0,0,1,3.257-1.052,14.692,14.692,0,0,0,2.2,4.594,13.269,13.269,0,0,1-5.433-3.484Zm9.7,4.267c-1.735,0-3.556-2.119-4.665-5.689a27.647,27.647,0,0,1,4.665-.4,27.947,27.947,0,0,1,4.679.4c-1.081,3.612-2.83,5.732-4.651,5.732Zm4.267-.711a14.691,14.691,0,0,0,2.2-4.594,24.25,24.25,0,0,1,3.257,1.052,13.184,13.184,0,0,1-5.461,3.584Zm6.656-5.006a26.739,26.739,0,0,0-3.982-1.422,28.685,28.685,0,0,0,.626-5.276h5.689a13.212,13.212,0,0,1-2.332,6.741Z" fill="#13a5ab"/>
        <path id="Path_277" data-name="Path 277" d="M170.5,116.395a14.677,14.677,0,0,1,14.663,14.663v24.533H197.49V131.058a27.022,27.022,0,0,0-27.022-27.022H167v12.331Z" fill="#cfcfcf"/>
        <path id="Path_278" data-name="Path 278" d="M148.878,131.058a14.677,14.677,0,0,1,14.677-14.663h3.484V104.064h-3.484a27.022,27.022,0,0,0-27.022,27.022v24.5h12.331Z" fill="#fff"/>
        <path id="Path_279" data-name="Path 279" d="M207.175,155.591H167.026V215.2h40.149Z" fill="#0f303f"/>
        <path id="Path_280" data-name="Path 280" d="M148.878,155.591H126.862V215.2h40.164V155.591Z" fill="#2c5871"/>
        <rect id="Rectangle_124" data-name="Rectangle 124" width="13.099" height="30.308" transform="translate(136.96 169.557)" fill="#fdc63a"/>
        <path id="Path_281" data-name="Path 281" d="M146.062,175.2a5.689,5.689,0,0,1-.2,1.564,3.214,3.214,0,0,1-.54,1.081,2.091,2.091,0,0,1-.811.654,2.617,2.617,0,0,1-1.01.213,2.674,2.674,0,0,1-1.01-.213,2.048,2.048,0,0,1-.8-.654,2.958,2.958,0,0,1-.526-1.081,6.244,6.244,0,0,1,0-3.129,3.015,3.015,0,0,1,.526-1.1,2.148,2.148,0,0,1,.8-.64,2.418,2.418,0,0,1,1.01-.2,2.375,2.375,0,0,1,1.01.2,2.19,2.19,0,0,1,.811.64,3.285,3.285,0,0,1,.54,1.1A5.689,5.689,0,0,1,146.062,175.2Zm-1.508,0a5.306,5.306,0,0,0-.1-1.166,2.318,2.318,0,0,0-.228-.711.825.825,0,0,0-.341-.356.8.8,0,0,0-.768,0,.9.9,0,0,0-.327.356,2.845,2.845,0,0,0-.228.711,8.008,8.008,0,0,0,0,2.332,2.845,2.845,0,0,0,.228.711.9.9,0,0,0,.327.356.8.8,0,0,0,.768,0,.825.825,0,0,0,.341-.356,2.318,2.318,0,0,0,.228-.711,5.305,5.305,0,0,0,.1-1.166Z" fill="#2c5871"/>
        <path id="Path_282" data-name="Path 282" d="M141.966,186.994h1.323v-4l-.782.654a.384.384,0,0,1-.142.085h-.156a.4.4,0,0,1-.213,0,.3.3,0,0,1-.142-.114l-.469-.612,2.148-1.792h1.195v5.8h1.138v1.067h-3.9Z" fill="#2c5871"/>
        <path id="Path_283" data-name="Path 283" d="M143.644,190.578a2.745,2.745,0,0,1,.924.156,1.807,1.807,0,0,1,.683.4,1.778,1.778,0,0,1,.441.64,2.091,2.091,0,0,1,.156.8,2.66,2.66,0,0,1-.1.7,2.446,2.446,0,0,1-.3.612,3.129,3.129,0,0,1-.427.569l-.512.54-1.337,1.422.469-.142h1.749a.512.512,0,0,1,.37.128.469.469,0,0,1,.142.341v.853H141.1v-.469a.8.8,0,0,1,0-.3.7.7,0,0,1,.185-.284l1.991-1.991c.156-.171.313-.327.441-.484a2.842,2.842,0,0,0,.313-.455,1.877,1.877,0,0,0,.171-.441,1.791,1.791,0,0,0,0-.469.953.953,0,0,0-.2-.64.768.768,0,0,0-.6-.213.939.939,0,0,0-.3,0,1.293,1.293,0,0,0-.242.128.569.569,0,0,0-.185.185,1,1,0,0,0-.128.242.725.725,0,0,1-.185.3.455.455,0,0,1-.313.1h-.228l-.768-.142a2.844,2.844,0,0,1,.3-.9,2.118,2.118,0,0,1,.526-.64,2.489,2.489,0,0,1,.725-.37,2.93,2.93,0,0,1,1.038-.171Z" fill="#2c5871"/>
        <rect id="Rectangle_125" data-name="Rectangle 125" width="13.099" height="30.308" transform="translate(152.633 169.557)" fill="#fdc63a"/>
        <path id="Path_284" data-name="Path 284" d="M161.721,175.2a5.689,5.689,0,0,1-.185,1.564,3.214,3.214,0,0,1-.54,1.081,2.091,2.091,0,0,1-.811.654,2.674,2.674,0,0,1-1.01.213,2.617,2.617,0,0,1-1.01-.213,1.963,1.963,0,0,1-.8-.654,2.973,2.973,0,0,1-.54-1.081,6.713,6.713,0,0,1,0-3.129,3.043,3.043,0,0,1,.54-1.1,2.048,2.048,0,0,1,.8-.64,2.375,2.375,0,0,1,1.01-.2,2.418,2.418,0,0,1,1.01.2,2.19,2.19,0,0,1,.811.64,3.285,3.285,0,0,1,.54,1.1A5.689,5.689,0,0,1,161.721,175.2Zm-1.508,0a5.419,5.419,0,0,0-.085-1.166,2.289,2.289,0,0,0-.242-.711.811.811,0,0,0-.327-.356.8.8,0,0,0-.768,0,.9.9,0,0,0-.327.356,2.319,2.319,0,0,0-.228.711,8.007,8.007,0,0,0,0,2.332,2.319,2.319,0,0,0,.228.711.9.9,0,0,0,.327.356.8.8,0,0,0,.768,0,.811.811,0,0,0,.327-.356,2.29,2.29,0,0,0,.242-.711,5.417,5.417,0,0,0,.085-1.166Z" fill="#2c5871"/>
        <path id="Path_285" data-name="Path 285" d="M157.639,186.994h1.323v-4l-.782.654-.142.085h-.156a.341.341,0,0,1-.213,0,.3.3,0,0,1-.142-.114l-.469-.612,2.233-1.82h1.195v5.8h1.138v1.067H157.71Z" fill="#2c5871"/>
        <path id="Path_286" data-name="Path 286" d="M159.289,190.578a2.6,2.6,0,0,1,.91.156,1.863,1.863,0,0,1,.7.4,1.778,1.778,0,0,1,.441.64,2.09,2.09,0,0,1,.156.8,2.176,2.176,0,0,1-.114.7,1.991,1.991,0,0,1-.284.612,5.391,5.391,0,0,1-.427.569l-.512.54-1.422,1.422.555-.142h1.764a.526.526,0,0,1,.37.128.469.469,0,0,1,.142.341v.853h-4.836v-.469a1.224,1.224,0,0,1,0-.3.939.939,0,0,1,.2-.284l1.991-1.991c.156-.171.313-.327.441-.484a2.844,2.844,0,0,0,.3-.455,1.949,1.949,0,0,0,.185-.441,1.791,1.791,0,0,0,0-.469.953.953,0,0,0-.2-.64.768.768,0,0,0-.6-.213.939.939,0,0,0-.3,0,1.424,1.424,0,0,0-.256.128,1.138,1.138,0,0,0-.185.185,1.848,1.848,0,0,0-.114.242.612.612,0,0,1-.2.3.412.412,0,0,1-.313.1h-.213l-.768-.142a2.758,2.758,0,0,1,.284-.9,2.389,2.389,0,0,1,.54-.64,2.49,2.49,0,0,1,.725-.37,2.93,2.93,0,0,1,1.038-.171Z" fill="#2c5871"/>
        <rect id="Rectangle_126" data-name="Rectangle 126" width="13.099" height="30.308" transform="translate(168.306 169.557)" fill="#fda014"/>
        <path id="Path_287" data-name="Path 287" d="M177.394,175.2a5.689,5.689,0,0,1-.185,1.564,3.214,3.214,0,0,1-.54,1.081,2.091,2.091,0,0,1-.811.654,2.674,2.674,0,0,1-1.01.213,2.56,2.56,0,0,1-1.01-.213,2.091,2.091,0,0,1-.811-.654,3.2,3.2,0,0,1-.526-1.081,6.713,6.713,0,0,1,0-3.129,3.271,3.271,0,0,1,.526-1.1,2.19,2.19,0,0,1,.811-.64,2.332,2.332,0,0,1,1.01-.2,2.418,2.418,0,0,1,1.01.2,2.19,2.19,0,0,1,.811.64,3.285,3.285,0,0,1,.54,1.1A5.688,5.688,0,0,1,177.394,175.2Zm-1.508,0a6.528,6.528,0,0,0-.085-1.166,2.29,2.29,0,0,0-.242-.711.9.9,0,0,0-.327-.356.8.8,0,0,0-.768,0,.811.811,0,0,0-.327.356,2.319,2.319,0,0,0-.228.711,8.006,8.006,0,0,0,0,2.332,2.319,2.319,0,0,0,.228.711.811.811,0,0,0,.327.356.8.8,0,0,0,.768,0,.9.9,0,0,0,.327-.356,2.29,2.29,0,0,0,.242-.711A6.528,6.528,0,0,0,175.886,175.2Z" fill="#2c5871"/>
        <path id="Path_288" data-name="Path 288" d="M173.312,186.994h1.323v-4l-.782.654a.427.427,0,0,1-.156.085h-.142a.341.341,0,0,1-.213,0,.3.3,0,0,1-.142-.114l-.469-.612,2.133-1.792h1.209v5.8h1.138v1.067H173.3Z" fill="#2c5871"/>
        <path id="Path_289" data-name="Path 289" d="M174.933,190.578a2.6,2.6,0,0,1,.91.156,1.863,1.863,0,0,1,.7.4,1.778,1.778,0,0,1,.441.64,2.091,2.091,0,0,1,.156.8,2.176,2.176,0,0,1-.114.7,2.4,2.4,0,0,1-.284.612,5.391,5.391,0,0,1-.427.569l-.512.54-1.351,1.422.484-.142H176.7a.526.526,0,0,1,.37.128.455.455,0,0,1,.128.341v.853h-4.821v-.469a1.224,1.224,0,0,1,0-.3.739.739,0,0,1,.2-.284l1.977-1.991c.171-.171.327-.327.455-.484a4.153,4.153,0,0,0,.3-.455,1.948,1.948,0,0,0,.185-.441,1.792,1.792,0,0,0,0-.469.953.953,0,0,0-.2-.64.782.782,0,0,0-.6-.213.939.939,0,0,0-.3,0,1.424,1.424,0,0,0-.256.128,1.137,1.137,0,0,0-.185.185l-.128.242a.6.6,0,0,1-.185.3.441.441,0,0,1-.313.1h-.213l-.768-.142a2.46,2.46,0,0,1,.284-.9,2.162,2.162,0,0,1,.54-.64,2.489,2.489,0,0,1,.725-.37,2.93,2.93,0,0,1,1.038-.171Z" fill="#2c5871"/>
        <rect id="Rectangle_127" data-name="Rectangle 127" width="13.099" height="30.308" transform="translate(183.964 169.557)" fill="#fda014"/>
        <path id="Path_290" data-name="Path 290" d="M193.067,175.2a5.689,5.689,0,0,1-.185,1.564,3.5,3.5,0,0,1-.54,1.081,2.091,2.091,0,0,1-.811.654,2.532,2.532,0,0,1-2.034,0,2.161,2.161,0,0,1-.8-.654,3.2,3.2,0,0,1-.526-1.081,6.244,6.244,0,0,1,0-3.129,3.272,3.272,0,0,1,.526-1.1,2.261,2.261,0,0,1,.8-.64,2.7,2.7,0,0,1,2.034,0,2.19,2.19,0,0,1,.811.64,3.584,3.584,0,0,1,.54,1.1A5.689,5.689,0,0,1,193.067,175.2Zm-1.508,0a6.526,6.526,0,0,0-.085-1.166,2.289,2.289,0,0,0-.242-.711.825.825,0,0,0-.341-.356.683.683,0,0,0-.37-.1.782.782,0,0,0-.711.455,2.745,2.745,0,0,0-.242.711,8.008,8.008,0,0,0,0,2.332,2.745,2.745,0,0,0,.242.711.782.782,0,0,0,.711.455.683.683,0,0,0,.37-.1.825.825,0,0,0,.341-.356,2.29,2.29,0,0,0,.242-.711A6.526,6.526,0,0,0,191.559,175.2Z" fill="#2c5871"/>
        <path id="Path_291" data-name="Path 291" d="M188.985,186.994h1.308v-4l-.768.654a.427.427,0,0,1-.156.085h-.142a.413.413,0,0,1-.228,0,.555.555,0,0,1-.142-.114l-.455-.612,2.133-1.792h1.209v5.8h1.124v1.067h-3.9Z" fill="#2c5871"/>
        <path id="Path_292" data-name="Path 292" d="M190.578,190.578a2.673,2.673,0,0,1,.924.156,1.863,1.863,0,0,1,.7.4,1.977,1.977,0,0,1,.441.64,2.091,2.091,0,0,1,.156.8,2.176,2.176,0,0,1-.114.7,3,3,0,0,1-.284.612,5.4,5.4,0,0,1-.427.569l-.512.54-1.422,1.422.512-.128H192.3a.512.512,0,0,1,.37.128.427.427,0,0,1,.142.341v.853h-4.821v-.469a.8.8,0,0,1,0-.3.74.74,0,0,1,.2-.284l1.977-1.991a6.5,6.5,0,0,0,.441-.484,2.845,2.845,0,0,0,.313-.455,1.948,1.948,0,0,0,.185-.441,1.763,1.763,0,0,0,0-.469.882.882,0,0,0-.2-.64.754.754,0,0,0-.583-.213,1.11,1.11,0,0,0-.313,0,1.294,1.294,0,0,0-.242.128,1.139,1.139,0,0,0-.185.185,2,2,0,0,0-.128.242.6.6,0,0,1-.185.3.455.455,0,0,1-.313.1h-.213l-.768-.142a2.461,2.461,0,0,1,.284-.9,2.119,2.119,0,0,1,.526-.64,2.574,2.574,0,0,1,.74-.37A2.844,2.844,0,0,1,190.578,190.578Z" fill="#2c5871"/>
        <rect id="Rectangle_128" data-name="Rectangle 128" width="12.331" height="5.12" transform="translate(136.548 150.485)" fill="#cfcfcf"/>
        <path id="Path_293" data-name="Path 293" d="M206.649,70.827V63.46a8.121,8.121,0,0,0-8.121-8.121h-2.076a8.121,8.121,0,0,0-8.121,8.121v7.367h-2.844V88.732h24.178V70.827Zm-14.649,0V63.46a4.409,4.409,0,0,1,4.409-4.409h2.076a4.409,4.409,0,0,1,4.409,4.409v7.367Z" fill="#13a5ab"/>
        <path id="Path_294" data-name="Path 294" d="M201.287,224.142V221.3h16.939v-3.342H201.287v-2.844h16.939v-3.328H201.287v-2.844h16.939V205.6H201.287v-2.844h16.939v-3.328H201.287V196.58h16.939v-3.342H201.287v-2.844h16.939v-6.372H195.143v54.784h23.083V224.142Z" fill="#fff"/>
        <path id="Path_295" data-name="Path 295" d="M241.294,184.021H218.226v6.372H235.15v2.844H218.226v3.342H235.15v2.844H218.226v3.328H235.15V205.6H218.226v3.342H235.15v2.844H218.226v3.328H235.15v2.844H218.226V221.3H235.15v2.844H218.226v14.663h23.068Z" fill="#cfcfcf"/>
        <rect id="Rectangle_129" data-name="Rectangle 129" width="16.924" height="2.844" transform="translate(218.226 190.393)" fill="#8e8e8e"/>
        <rect id="Rectangle_130" data-name="Rectangle 130" width="16.924" height="2.844" transform="translate(201.301 190.393)" fill="#8e8e8e"/>
        <rect id="Rectangle_131" data-name="Rectangle 131" width="16.924" height="2.844" transform="translate(218.226 196.58)" fill="#8e8e8e"/>
        <rect id="Rectangle_132" data-name="Rectangle 132" width="16.924" height="2.844" transform="translate(201.301 196.58)" fill="#8e8e8e"/>
        <rect id="Rectangle_133" data-name="Rectangle 133" width="16.924" height="2.844" transform="translate(218.226 202.752)" fill="#8e8e8e"/>
        <rect id="Rectangle_134" data-name="Rectangle 134" width="16.924" height="2.844" transform="translate(201.301 202.752)" fill="#8e8e8e"/>
        <rect id="Rectangle_135" data-name="Rectangle 135" width="16.924" height="2.844" transform="translate(218.226 208.939)" fill="#8e8e8e"/>
        <rect id="Rectangle_136" data-name="Rectangle 136" width="16.924" height="2.844" transform="translate(201.301 208.939)" fill="#8e8e8e"/>
        <rect id="Rectangle_137" data-name="Rectangle 137" width="16.924" height="2.844" transform="translate(218.226 215.111)" fill="#8e8e8e"/>
        <rect id="Rectangle_138" data-name="Rectangle 138" width="16.924" height="2.844" transform="translate(201.301 215.111)" fill="#8e8e8e"/>
        <rect id="Rectangle_139" data-name="Rectangle 139" width="16.924" height="2.844" transform="translate(201.301 221.298)" fill="#8e8e8e"/>
        <rect id="Rectangle_140" data-name="Rectangle 140" width="16.924" height="2.844" transform="translate(218.226 221.298)" fill="#8e8e8e"/>
        <path id="Path_296" data-name="Path 296" d="M240.356,220.658a3.214,3.214,0,0,1,3.214,3.214v5.362h2.7v-5.362a5.916,5.916,0,0,0-5.916-5.916H239.6v2.7Z" fill="#0f303f"/>
        <path id="Path_297" data-name="Path 297" d="M235.691,223.872a3.214,3.214,0,0,1,3.214-3.214h.754v-2.7h-.725a5.916,5.916,0,0,0-5.916,5.916v5.362h2.7Z" fill="#2c5871"/>
        <path id="Path_298" data-name="Path 298" d="M248.448,229.234h-8.789v13.042h8.789Z" fill="#0f303f"/>
        <path id="Path_299" data-name="Path 299" d="M235.691,229.234h-4.821v13.042h8.789V229.234Z" fill="#2c5871"/>
        <rect id="Rectangle_141" data-name="Rectangle 141" width="2.702" height="1.124" transform="translate(232.988 228.124)" fill="#0f303f"/>
      </g>
    </g>
  </g>
</svg>
