<svg xmlns="http://www.w3.org/2000/svg" xmlns:xlink="http://www.w3.org/1999/xlink" width="960" height="405" viewBox="0 0 960 405">
  <defs>
    <clipPath id="clip-path">
      <rect id="Rectangle_6" data-name="Rectangle 6" width="960" height="405" transform="translate(968 2124)" fill="#f7f7f7"/>
    </clipPath>
    <clipPath id="clip-path-2">
      <path id="Path_635" data-name="Path 635" d="M266.859,120.242l8.8-20.515,7.355,4.925s-7.036,16.975-7.179,17.591S266.859,120.242,266.859,120.242Z" fill="none"/>
    </clipPath>
    <clipPath id="clip-path-3">
      <path id="Path_637" data-name="Path 637" d="M373.282,122.5s-1.506-17.118-3.3-22.34c-.792-2.2-7.619,2.782-7.619,2.782s1.869,18.283,1.825,18.921S373.282,122.5,373.282,122.5Z" fill="none"/>
    </clipPath>
    <clipPath id="clip-path-4">
      <path id="Path_691" data-name="Path 691" d="M636.557,122.969s-10.994-11.412-15.3-14.127c-1.847-1.1-3.859,6.4-3.859,6.4s11.907,12.017,12.247,12.5S636.557,122.969,636.557,122.969Z" fill="none"/>
    </clipPath>
    <clipPath id="clip-path-5">
      <path id="Path_693" data-name="Path 693" d="M533.213,120.935s11.61-10.752,16.1-13.193c1.913-1.033,3.485,6.6,3.485,6.6s-12.6,11.346-12.984,11.808S533.213,120.935,533.213,120.935Z" fill="none"/>
    </clipPath>
  </defs>
  <g id="police" transform="translate(-968 -2124)" clip-path="url(#clip-path)">
    <g id="agents" transform="translate(1120.772 2124)">
      <g id="Layer_2" data-name="Layer 2">
        <g id="OBJECTS">
          <ellipse id="Ellipse_10" data-name="Ellipse 10" cx="59.247" cy="10.246" rx="59.247" ry="10.246" transform="translate(126.223 372.414)" fill="#c1c1c1" opacity="0.5"/>
          <path id="Path_490" data-name="Path 490" d="M158.018,123.409l-18.162,27.562S158,176.895,161.91,185.052c1.3,2.485-10.862,11.467-12.214,9.279-1.55-2.4-31.267-42.877-30.19-48.374,1.429-7.432,33.906-54.707,33.906-54.707,3.21-2.2,6.662-2.99,11.808,3.3,3.859,4.749,2.2,16.227.242,18.69S158.018,123.409,158.018,123.409Z" fill="#0e263f"/>
          <line id="Line_2" data-name="Line 2" y1="9.873" x2="12.841" transform="translate(146.815 180.402)" fill="none" stroke="#ffd961" stroke-linecap="round" stroke-miterlimit="10" stroke-width="1.099"/>
          <line id="Line_3" data-name="Line 3" y1="10.027" x2="13.05" transform="translate(144.88 177.752)" fill="none" stroke="#ffd961" stroke-linecap="round" stroke-miterlimit="10" stroke-width="1.099"/>
          <line id="Line_4" data-name="Line 4" y1="10.126" x2="13.127" transform="translate(142.923 175.092)" fill="none" stroke="#ffd961" stroke-linecap="round" stroke-miterlimit="10" stroke-width="1.099"/>
          <path id="Path_491" data-name="Path 491" d="M219.882,120.935l11.731,28.9s-13.039,24.9-16.953,33.092c-1.3,2.474,10.862,11.467,12.214,9.268,1.55-2.4,21.988-40.678,20.889-46.175-1.473-7.443-21.12-54.047-21.12-54.047-3.2-2.2-7.113-3.771-12.247,2.551-3.859,4.749-2.2,16.227-.242,18.69S219.882,120.935,219.882,120.935Z" fill="#0e263f"/>
          <line id="Line_5" data-name="Line 5" x1="13.05" y1="10.027" transform="translate(218.793 172.86)" fill="none" stroke="#ffd961" stroke-linecap="round" stroke-miterlimit="10" stroke-width="1.099"/>
          <line id="Line_6" data-name="Line 6" x1="12.753" y1="9.84" transform="translate(220.673 170.188)" fill="none" stroke="#ffd961" stroke-linecap="round" stroke-miterlimit="10" stroke-width="1.099"/>
          <path id="Path_492" data-name="Path 492" d="M196.893,366.488a34.572,34.572,0,0,0,0,3.661c.077.858-.814,6.41-1.385,9.785-.253,1.528.275,2.65,1.484,2.716,5.607.3,21.68,1.1,25.176,1.1,4.244,0,8.279-.286,9.026-1.946,1.1-2.474-.671-7.091-9.147-9.686-4.255-1.3-5.5-6.6-5.5-5.662Z"/>
          <path id="Path_493" data-name="Path 493" d="M168.078,367.3c-.352,4.716,5.5,7.289,5.409,11.72,0,.847.1,2.584-.363,3.3-1.407,2.056-4.958,2.309-7.872,2.309-4.211,0-8.553-.286-11.852-1.561-5.5-2.122-2.32-10.873-2.32-15.733C151.081,365.234,168.078,367.3,168.078,367.3Z"/>
          <path id="Path_494" data-name="Path 494" d="M179.61,91.273l6.893-4.42,6.585.11,13.116,5.442-12.753,55.311Z" fill="#d4e8ff"/>
          <path id="Path_495" data-name="Path 495" d="M191.3,216.287c.649-1.308-6.75,64.6-9.323,72.264-7.168,21.372-13.984,79.564-13.984,79.564a27.826,27.826,0,0,1-16.964.363V332.945c0-22.208,5.849-50.573,5.849-54.784,0-28.816-.4-52.211,1.286-85.028,0,0,17.36-11.962,35.819-11.808,9.807.088,19.086,14.93,28.1,11.808,2.979,27.672,1.594,51.507.506,82.17-1.1,32.037-7.333,67.57-6.124,91.185,0,0-2.485,1.968-9.752,2.65s-9.895-1.22-9.895-1.22-1.627-42.052,2.617-81.73l-8.026-58.093C190.494,224.664,191.3,216.287,191.3,216.287Z" fill="#102b51"/>
          <path id="Path_496" data-name="Path 496" d="M157.446,211.339s17.964,25.682,35.995.528c18.69,21.438,30.487,2.045,30.487,2.045l-29.42-34.455Z" fill="#0e263f"/>
          <path id="Path_497" data-name="Path 497" d="M208,53.068c-.4,3.023-2.749,6.9-4.991,5.728a4.98,4.98,0,0,1-2.924-5.5c.407-3.023,1.979-4.508,4.4-4.991C207.052,47.758,208.4,50.056,208,53.068Z" fill="#ed906b"/>
          <path id="Path_498" data-name="Path 498" d="M207.282,49.264a2.518,2.518,0,0,0-3.826,1.308l.286-2.2a3.485,3.485,0,0,1,1.825-.231,2.331,2.331,0,0,1,1.715,1.121Z" fill="#ffbc80"/>
          <path id="Path_499" data-name="Path 499" d="M169,53.068c.407,3.023,2.749,6.9,4.991,5.728a4.969,4.969,0,0,0,2.935-5.5c-.407-3.023-1.99-4.508-4.4-4.991C169.947,47.758,168.605,50.056,169,53.068Z" fill="#ed906b"/>
          <path id="Path_500" data-name="Path 500" d="M169.716,49.264a2.518,2.518,0,0,1,3.826,1.308l-.275-2.2a3.518,3.518,0,0,0-1.825-.231,2.364,2.364,0,0,0-1.726,1.121Z" fill="#ffbc80"/>
          <path id="Path_501" data-name="Path 501" d="M178.555,67.141c.956,3.3-.341,13.457-.583,14.05A13.951,13.951,0,0,0,189.9,87.216c8.388,0,8.388-4.255,8.388-4.255s-2.2-9.983-1.1-15.392Z" fill="#ffbc80"/>
          <path id="Path_502" data-name="Path 502" d="M178.852,69.087a19.369,19.369,0,0,1,0,3.177s5.4,6.4,9.257,6.4,8.8-5.915,8.8-5.915-.088-3.958.088-5.607Z" fill="#ed906b"/>
          <path id="Path_503" data-name="Path 503" d="M203.742,46.791a15.238,15.238,0,0,1-30.465,0c0-11.3,6.816-16.733,15.227-16.733S203.742,35.731,203.742,46.791Z" fill="#ffbc80"/>
          <path id="Path_504" data-name="Path 504" d="M203.742,46.791c0,8.147,0,14.963-3.111,19.394-1.869,2.661-6.728,7.245-10.246,8.41a10.247,10.247,0,0,1-4.244-.165c-3.5-1.231-7.971-5.706-9.763-8.246-3.1-4.4-3.1-11.247-3.1-19.394" fill="#ffbc80"/>
          <path id="Path_505" data-name="Path 505" d="M181.677,64.865c0,.473,3.815,4.343,6.827,4.343s6.827-3.87,6.827-4.343S181.677,64.381,181.677,64.865Z" fill="#fff"/>
          <path id="Path_506" data-name="Path 506" d="M197.762,52.3c0,1.385-.836,2.507-1.869,2.507s-1.858-1.1-1.858-2.507.836-2.518,1.858-2.518S197.762,50.914,197.762,52.3Z"/>
          <path id="Path_507" data-name="Path 507" d="M183.337,52.3c0,1.385-.825,2.507-1.858,2.507s-1.869-1.1-1.869-2.507.836-2.518,1.869-2.518S183.337,50.914,183.337,52.3Z"/>
          <path id="Path_508" data-name="Path 508" d="M193.419,46.021s.407-.066,1.011-.11a13.193,13.193,0,0,1,2.2.088,10.466,10.466,0,0,1,2.2.495c.572.209.945.374.945.374a.319.319,0,0,1,.165.429.33.33,0,0,1-.352.187h0s-.385-.066-.945-.2c-.264-.088-.616-.11-.956-.187s-.737-.11-1.1-.176c-.759-.11-1.528-.165-2.111-.2a7.325,7.325,0,0,0-.956,0,.319.319,0,0,1-.33-.33.352.352,0,0,1,.231-.374Z"/>
          <path id="Path_509" data-name="Path 509" d="M183.315,46.67h-.956a16.222,16.222,0,0,0-2.111.2c-.374.066-.759.088-1.1.176s-.693.1-.967.187c-.55.132-.935.2-.935.2h0a.319.319,0,0,1-.374-.253.33.33,0,0,1,.187-.363s.363-.165.945-.374a10.312,10.312,0,0,1,2.2-.495,13.194,13.194,0,0,1,2.2-.088,4.262,4.262,0,0,1,1.011.11.356.356,0,0,1-.1.7Z"/>
          <path id="Path_510" data-name="Path 510" d="M185.8,60.369a10.038,10.038,0,0,1,5.321,0c.825.495-1.759,1.154-2.661,1.154S185.063,60.8,185.8,60.369Z" fill="#ed906b"/>
          <path id="Path_511" data-name="Path 511" d="M186.5,86.853s3.947-1.583,6.6.11l1.275,1.1-1.451,4.123-4.782.209-2.814-4.211Z"/>
          <path id="Path_512" data-name="Path 512" d="M188.131,92.383v32.026l5.321,17.481,5.31-15.469-5.849-34.247"/>
          <path id="Path_513" data-name="Path 513" d="M219.31,118.978c1.77,13.919,3.452,42.019,4.618,55.5.1,1.1,6.871,7.982,7,10.323.583,9.895-5.222,23.714-5.376,28.343,0,0-12.335,6.487-20.79,2.606-8.729-4.024-10.389-21.493-10.389-21.493s-3.991,20.075-12.28,22.67c-9.026,2.825-26.925-3.782-26.683-8.971.484-3.221-3.815-7.08-3.5-13.259,0-.4,4.837-3.8,4.848-4.211,1.264-25.286,1.341-65.129,1.968-71.846l-5.321-27.386c3.782-4.057,20.383-8.191,23.351-11.687,4.639,3.144,13.281,40.6,16.733,62.325,9.213-24.737,7.883-62.82,7.883-62.82,7.784,5.376,18.052,7.575,25.352,12.984Z" fill="#102b51"/>
          <path id="Path_514" data-name="Path 514" d="M178.533,77.178H177.8l-4.255,4.1,4.4,15.029,8.531-9.455S178.2,82.093,178.533,77.178Z" fill="#d4e8ff"/>
          <path id="Path_515" data-name="Path 515" d="M197.168,76h.495l4.991,3.518V95.154l-8.29-7.1-1.275-1.1S198.432,84.292,197.168,76Z" fill="#d4e8ff"/>
          <path id="Path_516" data-name="Path 516" d="M177.972,96.308l8.037-8.894.495-.561,1.132,2.551-10.06,7.9-3.3-13.545Z" fill="#c1c1c1"/>
          <path id="Path_517" data-name="Path 517" d="M202.654,95.154l-9.565-8.191-.418,2.144,10.587,7.014-.6-15.9Z" fill="#c1c1c1"/>
          <path id="Path_518" data-name="Path 518" d="M188.5,36.544c-2.2,0-3.98-.924-6.267-1.484-4.134-.978-6.058,3.419-6.058,3.419-2.342,3.848-1.847,15.908-1.88,16.6s-.967.792-.989,0c0,0-.913-8.026-.352-12.885s3.3-12.423,9.895-12.9a12.753,12.753,0,0,1,10.4-2.639c7.619,1.4,10.159,7.795,10.884,13.567.66,5.266-.418,13.061-.418,14.655,0,.913-1.022.792-1.022,0,0-1.286.759-14.226-2.023-17.525C195.981,31.74,190.6,36.544,188.5,36.544Z" fill="#684000"/>
          <path id="Path_519" data-name="Path 519" d="M188.636,14.292c14.765,0,22.593,19.668,22.593,19.668a18.69,18.69,0,0,1-6.915,9.818s-.945-8.96-5.068-12.533-17.008-4.189-21.471,1.011a21.471,21.471,0,0,0-4.815,11.522,18.69,18.69,0,0,1-6.948-9.851S173.871,14.292,188.636,14.292Z" fill="#0a1d35"/>
          <path id="Path_520" data-name="Path 520" d="M170.408,34.444c0,5.607,5.827,9.895,18.393,9.895s17.316-3.892,17.316-9.829c0-3.452-9.169-7.7-18.228-7.7C179.039,26.639,170.408,30.652,170.408,34.444Z"/>
          <path id="Path_521" data-name="Path 521" d="M173.674,81.7l5.937,40.271,7.234,1.011-6.761,3.133,13.369,15.777-11.555-15.6,5.739-3.419-7.091-1.979-5.431-33.675Z" fill="#0e263f"/>
          <path id="Path_522" data-name="Path 522" d="M204.7,81.147l2.5,40.645-5.948,1.44,4.486,1.693-12.28,16.964,13.424-17.371-4.255-1.187,5.827-1.176Z" fill="#0e263f"/>
          <line id="Line_7" data-name="Line 7" y1="4.596" x2="1.671" transform="translate(219.024 88.48)" fill="none" stroke="#ffd961" stroke-linecap="round" stroke-miterlimit="10" stroke-width="1.099"/>
          <line id="Line_8" data-name="Line 8" y1="4.596" x2="1.66" transform="translate(217.067 87.579)" fill="none" stroke="#ffd961" stroke-linecap="round" stroke-miterlimit="10" stroke-width="1.099"/>
          <line id="Line_9" data-name="Line 9" y1="4.596" x2="1.66" transform="translate(215.099 86.677)" fill="none" stroke="#ffd961" stroke-linecap="round" stroke-miterlimit="10" stroke-width="1.099"/>
          <line id="Line_10" data-name="Line 10" x1="1.66" y1="4.596" transform="translate(159.26 87.788)" fill="none" stroke="#ffd961" stroke-linecap="round" stroke-miterlimit="10" stroke-width="1.099"/>
          <line id="Line_11" data-name="Line 11" x1="1.66" y1="4.596" transform="translate(161.228 86.886)" fill="none" stroke="#ffd961" stroke-linecap="round" stroke-miterlimit="10" stroke-width="1.099"/>
          <line id="Line_12" data-name="Line 12" x1="1.66" y1="4.596" transform="translate(163.196 85.985)" fill="none" stroke="#ffd961" stroke-linecap="round" stroke-miterlimit="10" stroke-width="1.099"/>
          <path id="Path_523" data-name="Path 523" d="M187.779,152.818a1.8,1.8,0,1,1-1.8-1.8A1.8,1.8,0,0,1,187.779,152.818Z" fill="#ffd961"/>
          <path id="Path_524" data-name="Path 524" d="M202.72,152.818a1.8,1.8,0,1,1-1.8-1.8,1.8,1.8,0,0,1,1.8,1.8Z" fill="#ffd961"/>
          <path id="Path_525" data-name="Path 525" d="M190.78,21.823a2.144,2.144,0,1,1-2.144-2.133A2.2,2.2,0,0,1,190.78,21.823Z" fill="#ffd961"/>
          <path id="Path_526" data-name="Path 526" d="M187.779,166.176a1.8,1.8,0,1,1-1.8-1.8A1.8,1.8,0,0,1,187.779,166.176Z" fill="#ffd961"/>
          <path id="Path_527" data-name="Path 527" d="M202.72,166.176a1.8,1.8,0,1,1-1.8-1.8A1.8,1.8,0,0,1,202.72,166.176Z" fill="#ffd961"/>
          <path id="Path_528" data-name="Path 528" d="M187.779,179.588a1.8,1.8,0,1,1-1.8-1.8A1.8,1.8,0,0,1,187.779,179.588Z" fill="#ffd961"/>
          <path id="Path_529" data-name="Path 529" d="M202.72,179.588a1.8,1.8,0,1,1-1.8-1.8,1.8,1.8,0,0,1,1.8,1.8Z" fill="#ffd961"/>
          <path id="Path_530" data-name="Path 530" d="M192.77,22.736h-8l-1.913-1.825h11.566Z" fill="#ffd961"/>
          <path id="Path_531" data-name="Path 531" d="M170.562,36.28c5.387-3.375,12.236-4.4,18.536-4.4a34.8,34.8,0,0,1,16.722,4.771" fill="none" stroke="#ffd961" stroke-linecap="round" stroke-miterlimit="10" stroke-width="1.099"/>
          <ellipse id="Ellipse_11" data-name="Ellipse 11" cx="59.247" cy="10.246" rx="59.247" ry="10.246" transform="translate(391.29 373.513)" fill="#c1c1c1" opacity="0.5"/>
          <path id="Path_532" data-name="Path 532" d="M443.5,367.642a34.345,34.345,0,0,1,0,3.65c-.077.847.825,6.388,1.385,9.752.253,1.528-.275,2.65-1.484,2.716-5.585.3-21.6,1.1-25.089,1.1-4.233,0-8.257-.286-9-1.946-1.1-2.474.671-7.069,9.125-9.653,4.233-1.3,5.5-6.6,5.5-5.651Z"/>
          <path id="Path_533" data-name="Path 533" d="M472.229,368.456c.352,4.705-5.42,7.267-5.387,11.676,0,.858-.1,2.584.363,3.3,1.407,2.045,4.936,2.3,7.85,2.3,4.2,0,8.52-.286,11.808-1.561,5.5-2.111,2.32-10.84,2.32-15.678C489.237,366.389,472.229,368.456,472.229,368.456Z"/>
          <path id="Path_534" data-name="Path 534" d="M460.729,93.274l-6.871-4.409-6.563.11-13.072,5.431,12.72,55.135Z" fill="#d4e8ff"/>
          <path id="Path_535" data-name="Path 535" d="M450.329,230.315c1.924,18.294,6.1,53.871,8.037,59.632,7.179,21.307,13.963,79.311,13.963,79.311a24.845,24.845,0,0,0,7.762,1.484,25.529,25.529,0,0,0,9.147-1.1V334.22c0-22.12-5.838-50.386-5.838-54.63,0-28.717.682-54.6-.989-87.3,0,0-35.467-.088-65.4-.088-1.781,27.023-.2,53.981.88,84.555,1.1,31.883,7.311,67.35,6.113,90.9,0,0,2.474,1.957,9.719,2.639s9.895-1.22,9.895-1.22,1.616-41.92-2.617-81.466l4.87-57.73Z" fill="#102b51"/>
          <path id="Path_536" data-name="Path 536" d="M432.43,55.19c.407,3.012,2.738,6.871,4.98,5.706a4.936,4.936,0,0,0,2.913-5.5c-.4-3.023-1.979-4.5-4.4-4.98C433.376,49.891,432.067,52.178,432.43,55.19Z" fill="#ed906b"/>
          <path id="Path_537" data-name="Path 537" d="M433.167,51.386a2.518,2.518,0,0,1,3.793,1.385l-.275-2.2a3.386,3.386,0,0,0-1.825-.231,2.331,2.331,0,0,0-1.693,1.044Z" fill="#ffbc80"/>
          <path id="Path_538" data-name="Path 538" d="M471.305,55.19c-.4,3.012-2.738,6.871-4.969,5.706a4.958,4.958,0,0,1-2.924-5.5c.407-3.023,1.979-4.5,4.4-4.98C470.371,49.891,471.712,52.178,471.305,55.19Z" fill="#ed906b"/>
          <path id="Path_539" data-name="Path 539" d="M470.6,51.386a2.518,2.518,0,0,0-3.815,1.385l.275-2.133a3.3,3.3,0,0,1,1.814-.231,2.342,2.342,0,0,1,1.726.978Z" fill="#ffbc80"/>
          <path id="Path_540" data-name="Path 540" d="M461.751,69.263c-.945,3.3.341,13.424.583,14.017a13.919,13.919,0,0,1-11.9,6c-8.355,0-8.355-4.244-8.355-4.244s2.2-9.961,1.1-15.392Z" fill="#ffbc80"/>
          <path id="Path_541" data-name="Path 541" d="M461.5,71.154a19.254,19.254,0,0,0,0,3.166s-5.387,6.377-9.235,6.377-8.8-5.893-8.8-5.893.077-3.947-.1-5.6Z" fill="#ed906b"/>
          <path id="Path_542" data-name="Path 542" d="M436.685,48.924a15.183,15.183,0,1,0,30.366,0c0-11.258-6.794-16.678-15.183-16.678S436.685,37.9,436.685,48.924Z" fill="#ffbc80"/>
          <path id="Path_543" data-name="Path 543" d="M436.685,48.924c0,8.114,0,14.919,3.089,19.328,1.869,2.661,6.706,7.234,10.224,8.388a10.192,10.192,0,0,0,4.233-.165c3.474-1.231,7.938-5.684,9.719-8.224,3.1-4.4,3.1-11.214,3.1-19.328" fill="#ffbc80"/>
          <path id="Path_544" data-name="Path 544" d="M442.644,54.41c0,1.385.836,2.507,1.858,2.507s1.858-1.1,1.858-2.507-.836-2.5-1.858-2.5S442.644,53.024,442.644,54.41Z"/>
          <path id="Path_545" data-name="Path 545" d="M457.013,54.41c0,1.385.836,2.507,1.858,2.507s1.858-1.1,1.858-2.507-.825-2.5-1.858-2.5S457.013,53.024,457.013,54.41Z"/>
          <path id="Path_546" data-name="Path 546" d="M446.92,48.8h-.956a18.021,18.021,0,0,0-2.1.2c-.385.066-.77.088-1.1.176s-.693.1-.967.187c-.55.132-.935.2-.935.2h0a.319.319,0,0,1-.374-.253.352.352,0,0,1,.187-.363s.374-.165.945-.374a10.357,10.357,0,0,1,2.2-.495,12.094,12.094,0,0,1,2.2-.077,8.1,8.1,0,0,1,1,.11.319.319,0,1,1,0,.638Z" fill="#ffd961"/>
          <path id="Path_547" data-name="Path 547" d="M456.991,48.165a8.5,8.5,0,0,1,1.011-.11,11.961,11.961,0,0,1,2.2.077,10.642,10.642,0,0,1,2.2.495c.572.209.935.374.935.374a.319.319,0,0,1,.165.429.33.33,0,0,1-.352.187h0s-.385-.066-.935-.2c-.275-.088-.616-.11-.967-.187s-.726-.11-1.1-.176c-.759-.1-1.528-.165-2.1-.2h-.956a.32.32,0,1,1-.055-.638Z" fill="#ffd961"/>
          <path id="Path_548" data-name="Path 548" d="M454.528,62.457a10.114,10.114,0,0,0-5.31,0c-.825.495,1.759,1.1,2.65,1.1S455.3,62.886,454.528,62.457Z" fill="#ed906b"/>
          <path id="Path_549" data-name="Path 549" d="M457.409,67.317a37.589,37.589,0,0,1-11.39.374c-.374,0-.517,0,0,.22a18.69,18.69,0,0,0,5.662.847,15.49,15.49,0,0,0,5.893-1.242C457.849,67.317,457.706,67.251,457.409,67.317Z" fill="#ed906b"/>
          <path id="Path_550" data-name="Path 550" d="M453.858,88.865s-3.925-1.583-6.6.11L446,90.075l1.462,4.1,4.76.2,2.837-4.222Z" fill="#102b51"/>
          <path id="Path_551" data-name="Path 551" d="M416.335,122.441c-1.759,13.864,1.781,56.3.616,69.746-.1,1.044,65.426.495,65.4.088-1.264-25.176-1.638-79.157,3.639-81.917L481.255,83.17c-3.771-4.046-14.71,1.935-17.678-1.55-4.618,3.111-13.248,40.447-16.634,62.106-9.18-24.66-7.85-62.666-7.85-62.666-7.762,5.365-18,7.553-25.286,12.951Z" fill="#d4e8ff"/>
          <path id="Path_552" data-name="Path 552" d="M461.806,79.212h.737l4.244,4.09-4.4,14.985-8.509-9.422S462.147,84.116,461.806,79.212Z" fill="#d4e8ff"/>
          <path id="Path_553" data-name="Path 553" d="M443.226,78.058h-.484l-4.98,3.507V97.144l8.268-7.08,1.264-1.1S441.962,86.315,443.226,78.058Z" fill="#d4e8ff"/>
          <path id="Path_554" data-name="Path 554" d="M462.367,98.287l-8-8.872-.506-.55-.088,3.221,8.993,7.2,3.287-13.5Z" fill="#c1c1c1"/>
          <path id="Path_555" data-name="Path 555" d="M437.762,97.144l9.532-8.169-.649,2.847-9.488,6.289.6-15.853Z" fill="#c1c1c1"/>
          <path id="Path_556" data-name="Path 556" d="M451.857,38.71c2.2,0,3.969-.924,6.256-1.484,4.068-1.011,6.036,3.364,6.036,3.364,2.342,3.837,1.836,15.864,1.869,16.557s.956.792.978,0c0,0,.923-8,.363-12.852s-3.3-12.39-9.895-12.852A12.731,12.731,0,0,0,447.1,28.815c-7.6,1.385-10.137,7.773-10.851,13.523-.66,5.255.407,13.028.407,14.611,0,.9,1.022.792,1.022,0,0-1.286-.759-14.182,2.012-17.47C444.414,33.917,449.779,38.71,451.857,38.71Z" fill="#ffd961"/>
          <path id="Path_557" data-name="Path 557" d="M451.736,16.491c-4.145,0-20.834,18.624-20.834,18.624a38.8,38.8,0,0,0,5.2,10.774s.956-8.927,5.057-12.5,16.964-4.167,21.405,1.011a21.384,21.384,0,0,1,4.8,11.489,32.289,32.289,0,0,0,5.827-10.9S455.881,16.491,451.736,16.491Z" fill="#0a1d35"/>
          <path id="Path_558" data-name="Path 558" d="M468.689,37.666c0,5.585-4.541,8.8-17.063,8.8s-16.579-2.847-16.579-8.8c0-3.441,13.677-8.8,16.821-8.8S468.689,33.873,468.689,37.666Z"/>
          <path id="Path_559" data-name="Path 559" d="M447.481,94.175l-6.739,75.562,6.1,10.367,7.014-10.367-1.616-75.364-1.913-1.594Z" fill="#102b51"/>
          <path id="Path_560" data-name="Path 560" d="M482.112,186.427c1.3,0,1.605,9.521.242,9.521l-65.657.429c-.55,0-.55-9.334.616-9.334C419.248,187.042,482.112,186.427,482.112,186.427Z"/>
          <path id="Path_561" data-name="Path 561" d="M421.865,179.27c2.4,3.881,8.861,2.781,10.752,7.641H429.11s-2.562,2.99,0,9.466c1.484,3.738-10.312,3.3-11.764-1.781a40.824,40.824,0,0,1-1.781-7.278c-.22-1.616-1.88-2.2-2.738-3.034" fill="#ffbc80"/>
          <path id="Path_562" data-name="Path 562" d="M421.161,120.935,409.64,147.574s4.629,9.5,9.1,18.613c.374.759-.275,2.738.077,3.463,1.484,3.023,2.8,5.75,3.749,7.7,1.286,2.474-10.686,8.641-12.039,6.454-.418-.649-1.924-3.3-3.9-6.992-.308-.583-2.2-.858-2.551-1.484-5.3-9.895-11.324-25.4-11.357-29.211,0-5.882,21.087-52.079,21.087-52.079C417.006,91.823,421.161,120.935,421.161,120.935Z" fill="#d4e8ff"/>
          <path id="Path_563" data-name="Path 563" d="M490.985,60.61c-2.265-.978-5.651-.264-9.125-1.847s-6.794-6.443-10.7-9.411c-1.462-1.1-2.782-4.53-2.408-5.882s8.619,2.771,10.785,3.672,8.542,7.311,12.6,8.6C492.139,55.74,491.8,60.885,490.985,60.61Z" fill="#ffbc80"/>
          <path id="Path_564" data-name="Path 564" d="M478.561,82.258l27.826-5.5A89.669,89.669,0,0,1,492.1,69.637c-.55-.341-.8-2.2-1.352-2.595l-5.409-3.3c-2.76-2.529,3.782-13.93,7.608-11.786,1.1.495,3.3,1.572,5.948,3.012.638.352,3.3.374,3.991.77,12.533,6.926,31.674,20.2,30.333,24.341-2.309,7.267-52.519,33.037-52.519,33.037-3.43,1.858-2.342,1.1-6.706-5.783-3.3-5.178-.308-16.491,1.9-18.69S478.561,82.258,478.561,82.258Z" fill="#d4e8ff"/>
          <path id="Path_565" data-name="Path 565" d="M448.844,20.812c0-.429.484.363,1.352.088s1-1.253,1.616-1.253.572,1.1,1.33,1.253,1.484-.572,1.484-.088v3.3h0v.121a2.891,2.891,0,0,1-5.783,0s0-.077,0-.121h0Z" fill="#ffd961"/>
          <path id="Path_566" data-name="Path 566" d="M469.227,37.9c-11.489-4.123-21.9-4.156-34.73-.231" fill="none" stroke="#0a1d35" stroke-miterlimit="10" stroke-width="2.199"/>
          <path id="Path_567" data-name="Path 567" d="M433.87,39.381c0-.121,0-.22-.1-.22s-.088.1-.088.22,0,.22.088.22S433.87,39.5,433.87,39.381Z" fill="none" stroke="#0a1d35" stroke-miterlimit="10" stroke-width="2.199"/>
          <path id="Path_568" data-name="Path 568" d="M434.123,37.633c0,.967.44,1.748.978,1.748s.978-.781.978-1.748-.44-1.748-.978-1.748S434.123,36.665,434.123,37.633Z" fill="#ffd961"/>
          <path id="Path_569" data-name="Path 569" d="M467.249,37.633c0,.967.44,1.748.978,1.748s.979-.781.979-1.748-.44-1.748-.979-1.748S467.249,36.665,467.249,37.633Z" fill="#ffd961"/>
          <line id="Line_13" data-name="Line 13" y2="11.478" transform="translate(476.769 186.361)" fill="none" stroke="#132c51" stroke-linecap="round" stroke-miterlimit="10" stroke-width="2.199"/>
          <line id="Line_14" data-name="Line 14" y2="11.478" transform="translate(460.069 186.361)" fill="none" stroke="#132c51" stroke-linecap="round" stroke-miterlimit="10" stroke-width="2.199"/>
          <line id="Line_15" data-name="Line 15" y2="11.478" transform="translate(437.641 186.361)" fill="none" stroke="#132c51" stroke-linecap="round" stroke-miterlimit="10" stroke-width="2.199"/>
          <path id="Path_570" data-name="Path 570" d="M443.116,186.811h10.137v9.565H442.666" fill="none" stroke="#c1c1c1" stroke-linecap="round" stroke-linejoin="round" stroke-width="2.199"/>
          <line id="Line_16" data-name="Line 16" x1="5.299" transform="translate(447.954 191.396)" fill="none" stroke="#c1c1c1" stroke-linecap="round" stroke-linejoin="round" stroke-width="1.099"/>
          <path id="Path_571" data-name="Path 571" d="M459.553,120.253v8.6c0,1.99,13.908,1.99,13.908,0v-8.6h-4.5l-2.65,2.485-2.375-2.485Z" fill="none" stroke="#9abad8" stroke-linecap="round" stroke-linejoin="round" stroke-width="1.099"/>
          <path id="Path_572" data-name="Path 572" d="M473.405,120.253h1.132v-5.09H458.079v5.09H459.5" fill="none" stroke="#9abad8" stroke-linecap="round" stroke-linejoin="round" stroke-width="1.099"/>
          <path id="Path_573" data-name="Path 573" d="M437.762,82.258v2.628l-14.292,6.4s-3.738.33-4.1.319-.418-.143-.308-.319l.748-1.1,17.942-8.63Z" fill="#102b51"/>
          <path id="Path_574" data-name="Path 574" d="M466.3,82.84l18.184-2.353,3.188.165s.858.088.264.462l-3.639,2.2-18.382,2.869S467.051,83.467,466.3,82.84Z" fill="#102b51"/>
          <line id="Line_17" data-name="Line 17" x1="16.216" y2="49.078" transform="translate(467.183 172.794)" fill="none" stroke="#000" stroke-linecap="round" stroke-miterlimit="10" stroke-width="4.398"/>
          <line id="Line_18" data-name="Line 18" x1="10.06" y1="3.32" transform="translate(469.348 181.567)" fill="none" stroke="#000" stroke-linecap="round" stroke-miterlimit="10" stroke-width="4.398"/>
          <path id="Path_575" data-name="Path 575" d="M426.57,208.756a7.113,7.113,0,1,1,7.113,7.113,7.113,7.113,0,0,1-7.113-7.113Zm1.792,0a2.21,2.21,0,1,0-.055,0Z" fill="#c1c1c1"/>
          <path id="Path_576" data-name="Path 576" d="M436.938,202.533c-1.011-.726,1.451-3.8.11-4.925s-6.4-1.1-7.7.209,1.5,4.211.429,4.947" fill="#c1c1c1"/>
          <line id="Line_19" data-name="Line 19" y2="1.924" transform="translate(433.233 195.849)" fill="none" stroke="#c1c1c1" stroke-linecap="round" stroke-miterlimit="10" stroke-width="2.199"/>
          <path id="Path_577" data-name="Path 577" d="M424.6,118.549c0-.781.88.649,2.441.154s1.825-2.2,2.924-2.265,1.1,1.935,2.4,2.276c1.649.407,2.694-1.033,2.694-.165v6.025h0v.209a5.233,5.233,0,0,1-10.455,0,1.224,1.224,0,0,1,0-.209h0Z" fill="#ffc215"/>
          <path id="Path_578" data-name="Path 578" d="M382,394.435C382,400.273,354.658,405,320.928,405s-61.072-4.727-61.072-10.565S287.2,383.88,320.928,383.88,382,388.608,382,394.435Z" fill="#c1c1c1" opacity="0.5"/>
          <path id="Path_579" data-name="Path 579" d="M365.5,206.183c-5.387,4.749-3.837,10.994-4.464,15.26-.418,2.869-2.045,6.1.4,5.167,4.4-1.682,3.683-8.916,3.683-8.916a3.3,3.3,0,0,1,1.66,2.529c.407,3.188-3.4,9.785-3.837,12.951-.473,3.375,6.509.506,9.257-3.3,5.09-6.421,5.1-17.7,5.09-18.69v-8.63l-12.533-8.136S366.334,205.391,365.5,206.183Z" fill="#ffbc80"/>
          <path id="Path_580" data-name="Path 580" d="M359.232,81.191c6.036,5.585,11.819,14.985,13.358,35.643,1.187,15.919,6.443,55.982,6.75,77.662,0,.9-1.539,2.364-1.528,3.2.055,5.057,0,8.608-.077,9.818-.33,3.562-14.292-.967-14.292-4.4,0-1.1-.253-4.068-.649-8.334-.088-.9-1.165-1.385-1.264-2.4-2.056-20.889-8.125-68.757-8.125-68.757" fill="#102b51"/>
          <path id="Path_581" data-name="Path 581" d="M341.751,375.393a25.473,25.473,0,0,1-2.2,9.741c-2.364,4.815-1.638,8.279-.1,9.631,2.408,2.122,20.988,1.836,22.78,0,1.44-1.462,2.836-5.013.473-9.829a23.021,23.021,0,0,1-2.2-9.059"/>
          <path id="Path_582" data-name="Path 582" d="M313.441,377.1a36.282,36.282,0,0,1,0,3.914c-.077.913.879,6.86,1.484,10.477.275,1.638-.3,2.836-1.583,2.913-6,.319-23.208,1.209-26.947,1.209-4.552,0-8.861-.308-9.675-2.078-1.2-2.661.726-7.6,9.807-10.367,4.541-1.4,5.915-7.058,5.915-6.069Z"/>
          <path id="Path_583" data-name="Path 583" d="M333.363,82.445l-7.377-4.738-7.047.121L304.9,83.654l13.655,59.214Z" fill="#102b51"/>
          <path id="Path_584" data-name="Path 584" d="M320.708,229.447C322.764,249.082,339.519,375.9,339.893,378s22.582,2.4,22.626.143c.792-36.566-4.815-149.322-5.937-189.4,0,0-38.083-.1-70.23-.1-1.924,29.024-.66,97.419-.66,110.71s5.178,69.582,6.75,77.739c0,0,2.672,1.814,10.477,1.913,8.246.088,10.521-1.913,10.521-1.913s.385-44.922.77-81.741l4.925-66.019Z" fill="#102b51"/>
          <path id="Path_585" data-name="Path 585" d="M302.975,43.855c.429,3.3,2.935,7.388,5.343,6.135a5.332,5.332,0,0,0,3.133-5.926c-.429-3.232-2.122-4.815-4.694-5.332C303.986,38.171,302.546,40.678,302.975,43.855Z" fill="#ed906b"/>
          <path id="Path_586" data-name="Path 586" d="M303.734,39.777a2.7,2.7,0,0,1,4.1,1.44l-.3-2.287a3.727,3.727,0,0,0-1.957-.253,2.529,2.529,0,0,0-1.847,1.1Z" fill="#ffbc80"/>
          <path id="Path_587" data-name="Path 587" d="M344.719,43.855c-.429,3.3-2.935,7.388-5.343,6.135a5.332,5.332,0,0,1-3.133-5.926c.429-3.232,2.122-4.815,4.694-5.332C343.708,38.171,345.148,40.678,344.719,43.855Z" fill="#ed906b"/>
          <path id="Path_588" data-name="Path 588" d="M343.961,39.777a2.7,2.7,0,0,0-4.1,1.44l.3-2.287a3.727,3.727,0,0,1,1.957-.253,2.529,2.529,0,0,1,1.847,1.1Z" fill="#ffbc80"/>
          <path id="Path_589" data-name="Path 589" d="M334.495,56.609c-1.022,3.54.363,14.4.616,15.04a14.919,14.919,0,0,1-12.764,6.41c-9.015,0-9.015-4.519-9.015-4.519s2.364-10.686,1.1-16.491Z" fill="#ffbc80"/>
          <path id="Path_590" data-name="Path 590" d="M334.22,58.7a19.787,19.787,0,0,0,0,3.386s-5.794,6.849-9.895,6.849-9.488-6.267-9.488-6.267.088-4.244-.11-6Z" fill="#ed906b"/>
          <path id="Path_591" data-name="Path 591" d="M307.537,34.818a16.3,16.3,0,1,0,32.608,0c0-12.093-7.3-17.909-16.3-17.909S307.537,22.978,307.537,34.818Z" fill="#ffbc80"/>
          <path id="Path_592" data-name="Path 592" d="M307.537,34.818c0,8.718,0,16.018,3.3,20.757,2,2.858,7.2,7.762,10.994,9.015a10.994,10.994,0,0,0,4.552-.176c3.738-1.33,8.531-6.113,10.444-8.8,3.3-4.738,3.3-12.039,3.3-20.757" fill="#ffbc80"/>
          <path id="Path_593" data-name="Path 593" d="M314.563,41.635c0,1.484.891,2.683,2,2.683s1.99-1.2,1.99-2.683-.891-2.683-1.99-2.683S314.563,40.15,314.563,41.635Z"/>
          <path id="Path_594" data-name="Path 594" d="M328.932,41.635c0,1.484.891,2.683,1.99,2.683s2-1.2,2-2.683-.9-2.683-2-2.683S328.932,40.15,328.932,41.635Z"/>
          <path id="Path_595" data-name="Path 595" d="M318.51,35.841l-1.011.11c-.308,0-.66.066-1.033.1s-.781.077-1.176.143-.8.088-1.165.176-.737.088-1.022.165a8.906,8.906,0,0,1-1,.154h-.066a.572.572,0,0,1-.627-.528.561.561,0,0,1,.3-.55,9.114,9.114,0,0,1,1.011-.473,10.345,10.345,0,0,1,2.364-.572c.44-.066.88-.066,1.3-.1h1.1a4.276,4.276,0,0,1,.8.11l.3.066h0a.583.583,0,0,1-.121,1.1Z" fill="#0a1d35"/>
          <path id="Path_596" data-name="Path 596" d="M329.328,34.7a2.2,2.2,0,0,1,.3-.066c.2,0,.473-.077.8-.11h1.1a5.787,5.787,0,0,1,1.286.1,10.345,10.345,0,0,1,2.364.572,9.113,9.113,0,0,1,1.011.473.574.574,0,1,1-.33,1.1h-.066a9.332,9.332,0,0,1-1-.154c-.286-.077-.649-.077-1.012-.165s-.781-.1-1.176-.176-.792-.088-1.176-.143a9.831,9.831,0,0,0-1.033-.1l-1.011-.11a.583.583,0,0,1-.517-.638.572.572,0,0,1,.4-.495Z" fill="#0a1d35"/>
          <path id="Path_597" data-name="Path 597" d="M326.7,49.352c-1.1-.495-4.8-.528-5.695,0s1.88,1.22,2.847,1.22S327.536,49.814,326.7,49.352Z" fill="#ed906b"/>
          <path id="Path_598" data-name="Path 598" d="M329.822,54.575a40.678,40.678,0,0,1-12.236.4c-.407,0-.561,0,0,.242.913.385,3.628,3.089,6.069,3.089s5.5-3.023,6.333-3.518C330.273,54.575,330.108,54.5,329.822,54.575Z" fill="#ed906b"/>
          <path id="Path_599" data-name="Path 599" d="M325.986,77.706s-4.222-1.693-7.047.121l-1.363,1.165,1.55,4.4,5.123.231,3.012-4.508Z" fill="#d4e8ff"/>
          <path id="Path_600" data-name="Path 600" d="M285.692,113.756c-1.891,14.9,1.9,60.467.66,74.892-.1,1.1,70.252.528,70.23.1-1.352-27.023-1.77-85,3.9-87.953L359.232,81.2c-4.046-4.354-19.635-7.542-22.813-11.269-4.958,3.3-14.226,43.427-17.865,66.69-9.895-26.485-8.432-67.251-8.432-67.251-8.333,5.761-19.328,8.114-27.144,13.908Z" fill="#102b51"/>
          <path id="Path_601" data-name="Path 601" d="M334.517,67.35h.8l4.552,4.4-4.749,16.1L326,77.717S334.88,72.561,334.517,67.35Z" fill="#102b51"/>
          <path id="Path_602" data-name="Path 602" d="M314.563,66.1h-.528l-5.343,3.76V86.6l8.883-7.608,1.363-1.165S313.21,74.969,314.563,66.1Z" fill="#102b51"/>
          <path id="Path_603" data-name="Path 603" d="M335.111,87.832,326.524,78.3l-.539-.594-.1,3.463L335.55,88.9l3.518-14.49Z" fill="#c1c1c1"/>
          <path id="Path_604" data-name="Path 604" d="M308.692,86.6l10.246-8.773-.7,3.056-10.191,6.75.649-17.019Z" fill="#c1c1c1"/>
          <path id="Path_605" data-name="Path 605" d="M323.842,23.846c2.32,0,4.266-.978,6.717-1.583,4.4-1.1,6.487,3.606,6.487,3.606,2.507,4.123,1.968,17.041,2,17.788a.551.551,0,1,0,1.1,0s.989-8.608.385-13.809-3.5-13.3-10.576-13.809a13.655,13.655,0,0,0-11.126-2.847c-8.158,1.5-10.873,8.345-11.654,14.523-.7,5.64.451,13.984.451,15.689,0,.978,1.1.847,1.1,0,0-1.374-.814-15.216,2.2-18.69C315.838,18.69,321.6,23.846,323.842,23.846Z"/>
          <path id="Path_606" data-name="Path 606" d="M323.7,0c-2.023,0-13.754,7.949-14.9,9.1S301.337,20,301.337,20a41.643,41.643,0,0,0,5.585,11.566s1.011-9.6,5.42-13.424,18.217-4.486,22.989,1.1a22.934,22.934,0,0,1,5.156,12.335,34.851,34.851,0,0,0,6.267-11.7s-6.267-9.895-7.41-11.148C338.365,7.7,325.832,0,323.7,0Z" fill="#0a1d35"/>
          <path id="Path_607" data-name="Path 607" d="M341.916,22.725c0,6-4.87,9.411-18.327,9.411S305.8,29.09,305.8,22.725c0-3.683,14.688-9.411,18.063-9.411S341.916,18.69,341.916,22.725Z"/>
          <path id="Path_608" data-name="Path 608" d="M319.125,83.4l-4.4,81.906,6.893,10.126,6.673-9.994-4.046-81.807-2.056-1.726Z" fill="#d4e8ff"/>
          <path id="Path_609" data-name="Path 609" d="M356.318,182.5c1.4,0,1.726,10.214.264,10.214l-70.505.462c-.594,0-.594-10,.671-10C288.815,183.139,356.318,182.5,356.318,182.5Z"/>
          <path id="Path_610" data-name="Path 610" d="M320.9,4.64c0-.429.495.352,1.352.088s1-1.253,1.616-1.253.572,1.1,1.319,1.253c.912.231,1.5-.572,1.5-.088v3.3h0v.11a2.891,2.891,0,0,1-5.772,0v-.11h0Z" fill="#ffd961"/>
          <path id="Path_611" data-name="Path 611" d="M335.572,97.561c0-.572.638.462,1.759.11s1.319-1.627,2.122-1.638.748,1.4,1.726,1.638c1.2.308,1.946-.748,1.946-.11v4.4h0v.143a3.782,3.782,0,1,1-7.553,0v-.143h0Z" fill="#c1c1c1"/>
          <path id="Path_612" data-name="Path 612" d="M342.488,22.989c-12.335-4.4-23.516-4.464-37.3-.264" fill="none" stroke="#0a1d35" stroke-miterlimit="10" stroke-width="2.199"/>
          <path id="Path_613" data-name="Path 613" d="M304.536,24.572c0-.132,0-.242-.1-.242s-.088.11-.088.242,0,.242.088.242S304.536,24.7,304.536,24.572Z" fill="none" stroke="#0a1d35" stroke-miterlimit="10" stroke-width="2.199"/>
          <line id="Line_20" data-name="Line 20" y2="12.324" transform="translate(350.579 182.392)" fill="none" stroke="#132c51" stroke-linecap="round" stroke-miterlimit="10" stroke-width="2.199"/>
          <line id="Line_21" data-name="Line 21" y2="12.324" transform="translate(332.659 182.392)" fill="none" stroke="#132c51" stroke-linecap="round" stroke-miterlimit="10" stroke-width="2.199"/>
          <line id="Line_22" data-name="Line 22" y2="12.324" transform="translate(308.56 182.392)" fill="none" stroke="#132c51" stroke-linecap="round" stroke-miterlimit="10" stroke-width="2.199"/>
          <path id="Path_614" data-name="Path 614" d="M314.442,182.876h10.9v10.279H313.958" fill="none" stroke="#c1c1c1" stroke-linecap="round" stroke-linejoin="round" stroke-width="2.199"/>
          <line id="Line_23" data-name="Line 23" x1="5.695" transform="translate(319.642 187.812)" fill="none" stroke="#c1c1c1" stroke-linecap="round" stroke-linejoin="round" stroke-width="1.099"/>
          <path id="Path_615" data-name="Path 615" d="M332.021,116.889v9.224c0,2.133,14.941,2.133,14.941,0v-9.224h-4.826l-2.847,2.661-2.551-2.661Z" fill="none" stroke="#9abad8" stroke-linecap="round" stroke-linejoin="round" stroke-width="1.099"/>
          <path id="Path_616" data-name="Path 616" d="M346.973,116.889h1.209v-5.475H330.515v5.475h1.517" fill="none" stroke="#9abad8" stroke-linecap="round" stroke-linejoin="round" stroke-width="1.099"/>
          <path id="Path_617" data-name="Path 617" d="M295.587,116.889v9.224c0,2.133,14.941,2.133,14.941,0v-9.224H305.7l-2.847,2.661-2.551-2.661Z" fill="none" stroke="#9abad8" stroke-linecap="round" stroke-linejoin="round" stroke-width="1.099"/>
          <path id="Path_618" data-name="Path 618" d="M310.528,116.889h1.209v-5.475H294.07v5.475h1.517" fill="none" stroke="#9abad8" stroke-linecap="round" stroke-linejoin="round" stroke-width="1.099"/>
          <path id="Path_619" data-name="Path 619" d="M308.692,70.615v2.814l-15.326,6.882s-4.013.341-4.4.341-.451-.165-.33-.352.8-1.176.8-1.176L308.7,69.856Z" fill="#102b51"/>
          <path id="Path_620" data-name="Path 620" d="M348.655,181.457c0-1.726,2.2-2.067,4.771-2.067,3.683,0,4.958.539,4.958,4.4v14.171c0,4.958-3.507,5.145-4.87,5.145s-4.859-.187-4.859-5.2Z" fill="#c1c1c1"/>
          <path id="Path_621" data-name="Path 621" d="M349.854,179.863c1.319-.715,2.023,1.1,2.023,7.036,0,1.154,7.047,1.1,7.047-.132,0-1.44.2-5.068-.748-6.344S352.217,177.9,349.854,179.863Z" fill="#9b9b9b"/>
          <path id="Path_622" data-name="Path 622" d="M356.406,185.888a.693.693,0,1,1-.682-.836.77.77,0,0,1,.682.836Z"/>
          <path id="Path_623" data-name="Path 623" d="M348.655,182.5c1.4,0,1.737,10.214.264,10.214s-8.257-.1-9.763-.1c-.594,0-.3-9.961.967-9.961C342.191,182.623,348.655,182.5,348.655,182.5Z"/>
          <path id="Path_624" data-name="Path 624" d="M341.553,182.5c0-.945,1.2-1.1,2.606-1.1,2.023,0,2.716.3,2.716,2.419v7.751c0,2.716-1.913,2.826-2.661,2.826s-2.661-.11-2.661-2.847Z" fill="#c1c1c1"/>
          <path id="Path_625" data-name="Path 625" d="M342.213,181.633c.715-.4,1.1.616,1.1,3.848,0,.627,3.859.583,3.859-.077s.11-2.771-.407-3.463S343.5,180.556,342.213,181.633Z" fill="#9b9b9b"/>
          <path id="Path_626" data-name="Path 626" d="M345.8,184.92a.385.385,0,1,1-.155-.408.385.385,0,0,1,.155.408Z"/>
          <path id="Path_627" data-name="Path 627" d="M341.553,182.5c1.165,0,1.1,10.181.121,10.181-1.473,0-8.257-.1-9.763-.1-.594,0-.3-9.961.967-9.961C334.946,182.623,341.553,182.5,341.553,182.5Z"/>
          <path id="Path_628" data-name="Path 628" d="M288.628,206.051c-1.1,1.011-8.564.978-9.895.11s-.935-21.372.22-22.615,9.543-1.1,10.257.352S289.782,205.04,288.628,206.051Z" fill="#0a1d35"/>
          <line id="Line_24" data-name="Line 24" y2="13.666" transform="translate(280.855 174.564)" fill="none" stroke="#101e35" stroke-linecap="round" stroke-miterlimit="10" stroke-width="1.099"/>
          <path id="Path_629" data-name="Path 629" d="M287.9,189.923c-.352.22-7.85.4-8.3,0s-.088-4.266.352-4.629,7.762-.352,8.059,0S288.441,189.6,287.9,189.923Z" fill="#2b512d"/>
          <path id="Path_630" data-name="Path 630" d="M291.629,174.806c2.573,4.167,9.521,2.979,11.544,8.2h-3.76s-2.76,3.21,0,10.159c1.583,4.024-11.082,3.6-12.632-1.9a42.115,42.115,0,0,1-1.913-7.817c-.242-1.737-2.023-2.353-2.946-3.3" fill="#ffbc80"/>
          <path id="Path_631" data-name="Path 631" d="M290.87,112.14l-12.379,28.585s4.98,10.2,9.785,20c.4.8-.3,2.935.088,3.716,1.583,3.232,3.012,6.168,4.013,8.279,1.4,2.65-11.467,9.279-12.918,6.937-.451-.7-2.067-3.584-4.189-7.52-.341-.627-2.386-.913-2.749-1.583-5.684-10.675-12.159-27.276-12.192-31.377,0-6.311,22.648-55.916,22.648-55.916C286.407,80.883,290.87,112.14,290.87,112.14Z" fill="#102b51"/>
          <path id="Path_632" data-name="Path 632" d="M306.262,22.076s-.616-1.836-.66-1.979,18.184-8.1,18.184-8.1l18.69,8.059s-.275,2.485-.242,2.672-17.81-3.111-17.81-3.111Z" fill="#0a1d35"/>
          <path id="Path_633" data-name="Path 633" d="M304.789,22.692c0,1.044.473,1.88,1.1,1.88s1.1-.836,1.1-1.88-.473-1.88-1.1-1.88S304.789,21.658,304.789,22.692Z" fill="#ffd961"/>
          <ellipse id="Ellipse_12" data-name="Ellipse 12" cx="1.055" cy="1.88" rx="1.055" ry="1.88" transform="translate(340.377 20.812)" fill="#ffd961"/>
          <g id="Group_20" data-name="Group 20" clip-path="url(#clip-path-2)">
            <path id="Path_634" data-name="Path 634" d="M267.948,103.344c.363-.759.55,1.033,2.3,1.286s2.8-1.341,3.881-.825.11,2.342,1.264,3.3c1.407,1.165,3.078.242,2.683,1.1l-2.8,5.827h0a.231.231,0,0,1-.077.209,5.611,5.611,0,1,1-10.115-4.859l.11-.187h0S266.727,105.9,267.948,103.344Z" fill="#ffc215"/>
          </g>
          <g id="Group_21" data-name="Group 21" clip-path="url(#clip-path-3)">
            <path id="Path_636" data-name="Path 636" d="M377.1,105.994c-.132-.825-.825.836-2.562.583s-2.309-2.089-3.485-1.913-.77,2.2-2.2,2.814c-1.682.715-3.034-.649-2.88.275.495,3.144,1.011,6.388,1.011,6.388h0v.231a5.61,5.61,0,1,0,11.082-1.759,1.152,1.152,0,0,0-.055-.209h0S377.526,108.841,377.1,105.994Z" fill="#ffc215"/>
          </g>
          <path id="Path_638" data-name="Path 638" d="M336.848,99.079c0-.374.418.308,1.165.077s.88-1.1,1.407-1.1.495.924,1.1,1.1,1.286-.495,1.286-.077v2.88h0v.1a2.5,2.5,0,0,1-4.991,0s0-.066,0-.1h0Z" fill="none" stroke="#fff" stroke-miterlimit="10" stroke-width="0.55"/>
          <path id="Path_639" data-name="Path 639" d="M303.657,83.775c-.77,1.341-7.795,3.694-9.3,3.3s-4.936-11.115-4.244-12.665,8.663-4.167,9.829-2.979S304.426,82.456,303.657,83.775Z" fill="#0a1d35"/>
          <line id="Line_25" data-name="Line 25" x2="2.001" y2="5.849" transform="translate(291.409 72.385)" fill="none" stroke="#101e35" stroke-linecap="round" stroke-miterlimit="10" stroke-width="1.099"/>
          <line id="Line_26" data-name="Line 26" y1="2.221" x2="6.519" transform="translate(294.575 80.642)" fill="none" stroke="#c1c1c1" stroke-linecap="round" stroke-miterlimit="10" stroke-width="1.099"/>
          <line id="Line_27" data-name="Line 27" y1="1.363" x2="3.991" transform="translate(295.224 79.245)" fill="none" stroke="#c1c1c1" stroke-linecap="round" stroke-miterlimit="10" stroke-width="1.099"/>
          <line id="Line_28" data-name="Line 28" y1="1.363" x2="3.98" transform="translate(296.466 82.873)" fill="none" stroke="#c1c1c1" stroke-linecap="round" stroke-miterlimit="10" stroke-width="1.099"/>
          <path id="Path_640" data-name="Path 640" d="M299.435,72.946a.451.451,0,1,1-.57-.284A.451.451,0,0,1,299.435,72.946Z" fill="#ff2c2c"/>
          <path id="Path_641" data-name="Path 641" d="M299.82,74.1a.451.451,0,1,1-.226-.262.451.451,0,0,1,.226.262Z" fill="#2b512d"/>
          <path id="Path_642" data-name="Path 642" d="M317.245,54.97c-.187.066,1.55,1.033,2.144,1.517,1.1.275,7.432.253,8.674-.253,2.694-1.792,1.935-1.693,1.935-1.693a98.529,98.529,0,0,1-12.753.429Z" fill="#fff"/>
          <path id="Path_643" data-name="Path 643" d="M654.456,374.392c0,5.365-31.025,9.719-69.263,9.719s-69.263-4.4-69.263-9.719,31.025-9.73,69.263-9.73S654.456,369.016,654.456,374.392Z" fill="#c1c1c1" opacity="0.5"/>
          <path id="Path_644" data-name="Path 644" d="M605.136,121.276l25.847,22.252a124,124,0,0,1-10.554,13.193c-.407.451.44,2.056.066,2.485-1.22,1.374-2.276,2.595-3.078,3.562-1.759,1.979,5.079,9.686,6.827,7.982.495-.352,1.638-1.2,3.221-2.408.286-.22,2.2.1,2.485-.143,9.29-7.146,21.065-21.8,21.285-26.144.352-7.19-36.929-39.9-36.929-39.9-2.441-2.792-5.5-4.288-11.632.363-4.64,3.485-5.739,14.435-4.519,17.162S605.136,121.276,605.136,121.276Z" fill="#275389"/>
          <path id="Path_645" data-name="Path 645" d="M559.6,359.067a22.439,22.439,0,0,0-.968,9.587c.385,3.98.1,5.695-.912,5.75-4.651.275-18,1.1-20.889,1.1-3.529,0-6.882-.264-7.5-1.8-.935-2.32.55-6.6,7.6-9.026,3.54-1.209,4.607-6.124,4.607-5.266Z"/>
          <path id="Path_646" data-name="Path 646" d="M565.1,121.276l-26.87,19.218A93,93,0,0,0,549.8,156.677c.407.451-.44,2.056-.066,2.485,1.22,1.374,2.265,2.595,3.067,3.562,1.77,1.979-5.068,9.686-6.816,7.982-.495-.352-1.638-1.2-3.221-2.408-.3-.22-2.2.1-2.485-.143-9.29-7.146-22.087-24.836-22.307-29.178-.352-7.19,37.952-36.863,37.952-36.863,2.43-2.793,5.442-4.288,11.632.363,4.639,3.485,5.739,14.435,4.508,17.162S565.1,121.276,565.1,121.276Z" fill="#275389"/>
          <path id="Path_647" data-name="Path 647" d="M601.024,53.651s8.8,1.671,8.8,13.93c0,8.993-1.891,13.765-1.187,17.239.143.715,0,1.594-1.1.7-3.3-2.584-9.763-9.2-9.444-21.6"/>
          <path id="Path_648" data-name="Path 648" d="M613.47,359.364s-.088,2.254,0,3.408c0,.792-.638,5.959-1.1,9.1-.209,1.429.209,2.474,1.1,2.529,4.332.275,16.733,1.1,19.438,1.1,3.3,0,5.5-.264,6.113-1.8.858-2.32.341-6.6-6.212-9.026-3.3-1.209-4.266-6.124-4.266-5.266Z"/>
          <path id="Path_649" data-name="Path 649" d="M595.637,103.146l-6.41-4.112-6.135.1-12.2,5.068,11.874,51.5Z" fill="#fff"/>
          <path id="Path_650" data-name="Path 650" d="M601.288,296.115c2.287,33.708,12.181,63.04,12.357,64.063.33,1.825,15.579,1.825,15.623-.132.4-18.206-7.52-48.374-8.993-85.754-1.1-27.881-4.98-72.8-7.828-87.194-1.8-9.147-53.409-10.73-56.51,0-4.178,14.479-2.793,48.451-5.5,92-.715,11.544-10.367,73.221-9,80.257,0,0,1.891,1.473,8.6,2.518s8.938-.286,8.938-.286c6.97-29.75,8.927-44.79,11.918-67.7,4.4-34.082,11.1-56.18,13.831-70.461C587.227,233.833,599.013,262.967,601.288,296.115Z" fill="#102b51"/>
          <path id="Path_651" data-name="Path 651" d="M569.219,69.593c.374,2.814,2.551,6.421,4.639,5.332a4.629,4.629,0,0,0,2.727-5.145c-.374-2.814-1.847-4.189-4.079-4.64C570.1,64.645,568.845,66.778,569.219,69.593Z" fill="#ed906b"/>
          <path id="Path_652" data-name="Path 652" d="M569.878,66.041a2.353,2.353,0,0,1,3.562,1.264l-.264-2a3.21,3.21,0,0,0-1.693-.22,2.2,2.2,0,0,0-1.605.956Z" fill="#ffbc80"/>
          <path id="Path_653" data-name="Path 653" d="M605.51,69.593c-.374,2.814-2.551,6.421-4.639,5.332a4.629,4.629,0,0,1-2.727-5.145c.374-2.814,1.847-4.189,4.079-4.64C604.675,64.645,605.884,66.778,605.51,69.593Z" fill="#ed906b"/>
          <path id="Path_654" data-name="Path 654" d="M604.85,66.041a2.353,2.353,0,0,0-3.562,1.264l.264-2a3.211,3.211,0,0,1,1.693-.22,2.2,2.2,0,0,1,1.605.956Z" fill="#ffbc80"/>
          <path id="Path_655" data-name="Path 655" d="M596.616,80.675c-.88,3.089.33,12.544.55,13.083a13,13,0,0,1-11.1,5.607c-7.806,0-7.806-3.958-7.806-3.958s2.056-9.29.99-14.292Z" fill="#ffbc80"/>
          <path id="Path_656" data-name="Path 656" d="M596.352,82.456a18.189,18.189,0,0,0,0,2.946s-5.024,5.959-8.619,5.959-8.18-5.5-8.18-5.5.077-3.694-.088-5.233Z" fill="#ed906b"/>
          <path id="Path_657" data-name="Path 657" d="M573.176,61.732a14.182,14.182,0,0,0,28.365,0c0-10.51-6.344-15.568-14.182-15.568S573.176,51.441,573.176,61.732Z" fill="#ffbc80"/>
          <path id="Path_658" data-name="Path 658" d="M573.176,61.732c0,7.586,0,13.93,2.891,18.052,1.748,2.485,6.267,6.761,9.543,7.839a9.62,9.62,0,0,0,3.958-.154c3.3-1.1,7.41-5.31,9.081-7.7,2.891-4.123,2.891-10.466,2.891-18.052" fill="#ffbc80"/>
          <path id="Path_659" data-name="Path 659" d="M579.289,67.658c0,1.3.781,2.342,1.737,2.342s1.737-1.1,1.737-2.342-.781-2.331-1.737-2.331S579.289,66.371,579.289,67.658Z"/>
          <path id="Path_660" data-name="Path 660" d="M591.789,67.658c0,1.3.77,2.342,1.737,2.342s1.726-1.1,1.726-2.342-.77-2.331-1.726-2.331S591.789,66.371,591.789,67.658Z"/>
          <path id="Path_661" data-name="Path 661" d="M582.686,62.666h-.253l-.627.077c-.253,0-.561.066-.891.1s-.671.066-1.011.132-.693.066-1.011.143-.627.066-.88.132a7.32,7.32,0,0,1-.88.121h-.066a.583.583,0,0,1-.319-1.1,7.913,7.913,0,0,1,.868-.429,8.96,8.96,0,0,1,2.078-.517,5.031,5.031,0,0,0,1.1-.077,2.409,2.409,0,0,1,.979.055,5.979,5.979,0,0,1,.7.1l.264.066h0a.583.583,0,0,1,.352.748.572.572,0,0,1-.407.451Z" fill="#0a1d35"/>
          <path id="Path_662" data-name="Path 662" d="M592.119,61.567a1.756,1.756,0,0,1,.264-.066,6.34,6.34,0,0,1,.7-.1,6.454,6.454,0,0,0,.99-.055,3.083,3.083,0,0,1,1.1.077,8.719,8.719,0,0,1,2.067.517,8.946,8.946,0,0,1,.88.429.583.583,0,0,1,.209.792.594.594,0,0,1-.539.286h-.066a7.323,7.323,0,0,1-.868-.121c-.253-.066-.572-.055-.88-.132s-.671-.077-1.011-.143-.693-.088-1.022-.132-.627-.088-.891-.1l-.627-.077h-.242a.594.594,0,0,1-.517-.66.583.583,0,0,1,.4-.473Z" fill="#0a1d35"/>
          <path id="Path_663" data-name="Path 663" d="M589.844,74.375a9.367,9.367,0,0,0-4.958,0c-.77.462,1.638,1.1,2.485,1.1S590.569,74.76,589.844,74.375Z" fill="#ed906b"/>
          <path id="Path_664" data-name="Path 664" d="M592.581,78.916a35.071,35.071,0,0,1-10.631.341c-.352,0-.495,0,0,.209.792.341,3.155,2.694,5.277,2.694s4.8-2.628,5.5-3.067C592.955,78.916,592.812,78.85,592.581,78.916Z" fill="#ed906b"/>
          <path id="Path_665" data-name="Path 665" d="M561.908,137.613c1.891,9.818,2.3,26.793-7.157,49.55-.374.913,59.368.275,59.225-.077-5.629-13.71-8.114-33.466-6.6-48.517,2.606-8.257,6.739-18.437,8.707-19.471l-1.1-17.03c-3.518-3.782-13.94-6.6-16.7-9.8-3.232,2.2-4.079,6.036-9.07,6.761-1.1,2.7-2.935,11.148-3.914,15.623-1.462-4.046-1.1-12.731-2.2-15.524-6.124.352-7.7-7.344-7.7-7.344-7.245,5-13.677,7.047-20.471,12.093C554.959,103.872,557.95,127.366,561.908,137.613Z" fill="#275389"/>
          <path id="Path_666" data-name="Path 666" d="M596.649,90.02h.682l3.958,3.815-4.123,14-7.938-8.8S596.979,94.6,596.649,90.02Z" fill="#102b51"/>
          <path id="Path_667" data-name="Path 667" d="M579.289,88.931h-.451l-4.65,3.3v14.534l7.7-6.6,1.187-1.022S578.113,96.649,579.289,88.931Z" fill="#102b51"/>
          <path id="Path_668" data-name="Path 668" d="M597.166,107.83l-7.476-8.279-.462-.517-.088,3.012,8.4,6.717,3.067-12.61Z" fill="#c1c1c1"/>
          <path id="Path_669" data-name="Path 669" d="M574.188,106.764l8.905-7.63-.6,2.661-8.872,5.871.572-14.8Z" fill="#c1c1c1"/>
          <path id="Path_670" data-name="Path 670" d="M587.359,52.2c2.012,0,3.716-.858,5.838-1.385,3.815-.945,5.64,3.144,5.64,3.144,2.2,3.584,1.715,14.809,1.748,15.458s.9.737.913,0a68.769,68.769,0,0,0,.341-12.006c-.528-4.519-3.045-11.566-9.2-12.006a11.9,11.9,0,0,0-9.686-2.452c-7.091,1.3-9.455,7.256-10.126,12.632-.616,4.9.385,12.159.385,13.644,0,.847.945.737.945,0,0-1.2-.7-13.193,1.891-16.3C580.4,47.725,585.4,52.2,587.359,52.2Z"/>
          <path id="Path_671" data-name="Path 671" d="M612.92,181.787c1.209,0,1.506,8.894.231,8.894l-58.631.4c-.517,0-.517-8.707.583-8.707C556.894,182.37,612.92,181.787,612.92,181.787Z"/>
          <line id="Line_29" data-name="Line 29" y2="10.708" transform="translate(610.611 181.732)" fill="none" stroke="#132c51" stroke-linecap="round" stroke-miterlimit="10" stroke-width="2.199"/>
          <line id="Line_30" data-name="Line 30" y2="10.708" transform="translate(574.078 181.732)" fill="none" stroke="#132c51" stroke-linecap="round" stroke-miterlimit="10" stroke-width="2.199"/>
          <path id="Path_672" data-name="Path 672" d="M579.19,191.077h9.466V182.15H579.19v8.927" fill="#ffc215"/>
          <line id="Line_31" data-name="Line 31" x1="4.947" transform="translate(583.709 186.438)" fill="none" stroke="#000" stroke-linecap="round" stroke-linejoin="round" stroke-width="1.099"/>
          <path id="Path_673" data-name="Path 673" d="M574.188,92.867v2.452l-13.336,5.97s-3.485.308-3.826.308-.4-.143-.286-.308l.693-1.022,16.755-8.059Z" fill="#102b51"/>
          <path id="Path_674" data-name="Path 674" d="M608.94,181.787c1.209,0,1.506,8.894.231,8.894s-7.179-.088-8.5-.088c-.517,0-.253-8.663.847-8.663C603.311,181.93,608.94,181.787,608.94,181.787Z"/>
          <path id="Path_675" data-name="Path 675" d="M602.762,181.82c1.022,0,.99,8.861.1,8.861-1.275,0-7.168-.088-8.487-.088-.517,0-.253-8.663.847-8.663C596.979,181.93,602.762,181.82,602.762,181.82Z"/>
          <path id="Path_676" data-name="Path 676" d="M569.812,104.312c-.671,1.165-6.783,3.21-8.1,2.869s-4.277-9.664-3.683-10.994,7.531-3.628,8.553-2.595S570.472,103.157,569.812,104.312Z" fill="#0a1d35"/>
          <line id="Line_32" data-name="Line 32" x2="1.726" y2="5.079" transform="translate(559.159 94.406)" fill="none" stroke="#101e35" stroke-linecap="round" stroke-miterlimit="10" stroke-width="1.099"/>
          <line id="Line_33" data-name="Line 33" y1="1.935" x2="5.673" transform="translate(561.908 101.585)" fill="none" stroke="#c1c1c1" stroke-linecap="round" stroke-miterlimit="10" stroke-width="1.099"/>
          <line id="Line_34" data-name="Line 34" y1="1.176" x2="3.474" transform="translate(562.468 100.376)" fill="none" stroke="#c1c1c1" stroke-linecap="round" stroke-miterlimit="10" stroke-width="1.099"/>
          <line id="Line_35" data-name="Line 35" y1="1.187" x2="3.474" transform="translate(563.546 103.52)" fill="none" stroke="#c1c1c1" stroke-linecap="round" stroke-miterlimit="10" stroke-width="1.099"/>
          <path id="Path_677" data-name="Path 677" d="M566.129,94.89a.389.389,0,0,1-.737.253.385.385,0,0,1,.242-.495.4.4,0,0,1,.495.242Z" fill="#ff2c2c"/>
          <path id="Path_678" data-name="Path 678" d="M566.47,95.89a.374.374,0,0,1-.242.495.389.389,0,0,1-.253-.737.385.385,0,0,1,.495.242Z" fill="#2b512d"/>
          <path id="Path_679" data-name="Path 679" d="M581.587,79.256c-.154.066,1.352.9,1.869,1.319a28.167,28.167,0,0,0,7.542-.22c2.342-1.561,1.682-1.462,1.682-1.462A86.358,86.358,0,0,1,581.587,79.256Z" fill="#fff"/>
          <path id="Path_680" data-name="Path 680" d="M587.425,30.608c-1.671,0-11.39,6.6-12.324,7.542s-6.179,9-6.179,9a34.457,34.457,0,0,0,4.618,9.576s.847-7.938,4.486-11.1,15.084-3.716,19.031.891a19.009,19.009,0,0,1,4.321,10.214,28.87,28.87,0,0,0,5.178-9.686s-5.178-8.18-6.124-9.213S589.195,30.608,587.425,30.608Z" fill="#0a1d35"/>
          <path id="Path_681" data-name="Path 681" d="M602.476,49.473c0,4.969-4.035,7.784-15.172,7.784s-14.7-2.573-14.7-7.784c0-3.056,12.094-7.795,14.941-7.795S602.476,46.054,602.476,49.473Z"/>
          <path id="Path_682" data-name="Path 682" d="M585.105,34.444c0-.352.407.3,1.1.077s.836-1.033,1.341-1.033.473.88,1.1,1.033,1.231-.473,1.231-.077V37.2h0v.088a2.4,2.4,0,1,1-4.782,0V37.2h0Z" fill="#ffd961"/>
          <path id="Path_683" data-name="Path 683" d="M571.78,49.4c0,.858.385,1.55.869,1.55s.868-.693.868-1.55-.385-1.561-.868-1.561S571.78,48.528,571.78,49.4Z" fill="#ffd961"/>
          <path id="Path_684" data-name="Path 684" d="M601.233,49.4c0,.858.385,1.55.869,1.55s.868-.693.868-1.55-.385-1.561-.868-1.561S601.233,48.528,601.233,49.4Z" fill="#ffd961"/>
          <path id="Path_685" data-name="Path 685" d="M552.574,163.427a11.4,11.4,0,0,0,2.452,1.1c.924.209,5.816-.374,7.234,1.836s.264,11.126-4.2,11.984c-5.5,1.1-8.608-6.212-11.39-7.872a11.83,11.83,0,0,1,5.9-7.047Z" fill="#ffbc80"/>
          <path id="Path_686" data-name="Path 686" d="M617.637,163.427a11.3,11.3,0,0,1-2.463,1.1c-.913.209-5.816-.374-7.234,1.836s-.264,11.126,4.211,11.984c5.5,1.1,8.6-6.212,11.39-7.872a11.83,11.83,0,0,0-5.9-7.047Z" fill="#ffbc80"/>
          <path id="Path_687" data-name="Path 687" d="M585.314,114.657a56.741,56.741,0,0,0-1.858,18.69c.824,9.73.879,41.393.671,48.429l1.187-36.5Z" fill="#102b51"/>
          <path id="Path_688" data-name="Path 688" d="M594.219,116.065c0-.528.583.429,1.627.1s1.209-1.5,1.946-1.506.682,1.286,1.594,1.517c1.1.275,1.792-.693,1.792-.11v4h0v.143a3.474,3.474,0,1,1-6.948,0s0-.088,0-.143h0Z" fill="#c1c1c1"/>
          <path id="Path_689" data-name="Path 689" d="M603.047,130.39h.923v-4.222H590.349v4.222h4.815l1.968,2.056,2.188-1.957Z" fill="#102b51"/>
          <g id="Group_22" data-name="Group 22" clip-path="url(#clip-path-4)">
            <path id="Path_690" data-name="Path 690" d="M629.752,108.94c-.572-.517-.11,1.1-1.506,1.891s-2.858-.165-3.6.649.726,2.034.077,3.3c-.792,1.484-2.551,1.286-1.913,1.869l4.4,3.991h0a1.983,1.983,0,0,1,.143.154,5.181,5.181,0,1,0,6.937-7.7,1.564,1.564,0,0,0-.165-.121h0Z" fill="#ffc215"/>
          </g>
          <g id="Group_23" data-name="Group 23" clip-path="url(#clip-path-5)">
            <path id="Path_692" data-name="Path 692" d="M540.8,107.324c.6-.484,0,1.1,1.4,1.979s2.859,0,3.551.858-.847,1.99-.264,3.3c.715,1.528,2.474,1.429,1.8,1.968l-4.64,3.738h0l-.143.154a5.167,5.167,0,0,1-6.476-8.048,1.564,1.564,0,0,1,.165-.121h0Z" fill="#ffc215"/>
          </g>
          <path id="Path_694" data-name="Path 694" d="M597.77,130.137a.6.6,0,1,1-.6-.6A.6.6,0,0,1,597.77,130.137Z" fill="#ffc215"/>
          <path id="Path_695" data-name="Path 695" d="M579.5,130.39h.935v-4.222H566.811v4.222h4.8l1.968,2.056,2.188-1.957Z" fill="#102b51"/>
          <path id="Path_696" data-name="Path 696" d="M574.232,130.137a.616.616,0,1,1-.616-.6.6.6,0,0,1,.616.6Z" fill="#ffc215"/>
          <path id="Path_697" data-name="Path 697" d="M580.488,124.134a.781.781,0,0,0-.781-.781H567.8a.781.781,0,0,0-.781.781h0a.78.78,0,0,0,.781.781h11.852a.781.781,0,0,0,.781-.781Z" fill="#ffc215"/>
          <line id="Line_36" data-name="Line 36" y2="10.708" transform="translate(595.022 181.732)" fill="none" stroke="#132c51" stroke-linecap="round" stroke-miterlimit="10" stroke-width="2.199"/>
          <path id="Path_698" data-name="Path 698" d="M597.089,203.171a6.893,6.893,0,1,1,6.882,6.893,6.893,6.893,0,0,1-6.882-6.893Zm1.737,0a5.156,5.156,0,1,0,5.145-5.156A5.156,5.156,0,0,0,598.826,203.171Z" fill="#c1c1c1"/>
          <path id="Path_699" data-name="Path 699" d="M607.181,197.146c-.978-.7,1.407-3.683.11-4.771s-6.212-1.022-7.421.2,1.451,4.09.418,4.793" fill="#c1c1c1"/>
          <line id="Line_37" data-name="Line 37" y2="1.858" transform="translate(603.597 190.681)" fill="none" stroke="#c1c1c1" stroke-linecap="round" stroke-miterlimit="10" stroke-width="2.199"/>
          <path id="Path_700" data-name="Path 700" d="M112.4,374.392c0,5.365-25.154,9.719-56.2,9.719S0,379.758,0,374.392s25.165-9.719,56.2-9.719S112.4,369.027,112.4,374.392Z" fill="#c1c1c1" opacity="0.5"/>
          <path id="Path_701" data-name="Path 701" d="M61.039,53.4c-8.334,2.353-14.49,7.773-16.073,15.392-.814,3.98,0,13.391,4.211,15.766,0,0,10.016,0,14.754,2.9C63.931,87.5,66.932,51.727,61.039,53.4Z" fill="#684000"/>
          <path id="Path_702" data-name="Path 702" d="M71.725,53.4c8.323,2.353,14.49,7.773,16.062,15.392.825,3.98,0,13.391-4.211,15.766,0,0-10.016,0-14.754,2.9C68.823,87.5,65.822,51.727,71.725,53.4Z" fill="#684000"/>
          <path id="Path_703" data-name="Path 703" d="M46.582,359.507a32.333,32.333,0,0,1,0,3.375c-.066.792.759,5.9,1.275,9.015.242,1.407-.253,2.441-1.363,2.507-5.167.275-19.976,1.044-23.2,1.044-3.914,0-7.63-.264-8.323-1.792-1.033-2.287.616-6.542,8.432-8.927,3.925-1.2,5.1-6.069,5.1-5.222Z"/>
          <path id="Path_704" data-name="Path 704" d="M74.826,360.287c.33,4.4-5.013,6.717-4.98,10.807a7.158,7.158,0,0,0,.341,3.012c1.275,1.891,4.574,2.122,7.245,2.122,3.881,0,7.883-.275,10.917-1.44,5.09-1.957,2.2-10.027,2.2-14.5C90.492,358.407,74.826,360.287,74.826,360.287Z"/>
          <path id="Path_705" data-name="Path 705" d="M74.683,105.95l-6.355-4.079-6.069.1-12.082,5.024L61.93,157.963Z" fill="#275389"/>
          <path id="Path_706" data-name="Path 706" d="M64.447,219.387c.176,4,2.65,34.082,8.114,69.329,5.5,35.863,2.353,72.319,2.353,72.319a23.087,23.087,0,0,0,7.179,1.374,23.67,23.67,0,0,0,8.454-1.033s5.5-56.169,3.364-76.772c-3.4-32.037,5.2-81.356.8-96.748,0,0-16.491-5.849-33.51-5.706-9.048.077-17.019,4.661-25.4,5.706-.814,10.532-5.673,54.542-4.5,94.351,1.044,35.478-2.287,67.064-2.8,77.3,0,0,2.287,1.814,8.971,2.441s9.147-1.1,9.147-1.1,9.543-57.169,9.466-78.531c-.077-22.252,6.333-62.754,6.333-62.754Z" fill="#102b51"/>
          <path id="Path_707" data-name="Path 707" d="M48.528,70.747c.363,2.782,2.529,6.355,4.6,5.277a4.585,4.585,0,0,0,2.694-5.09c-.374-2.792-1.825-4.156-4.035-4.607C49.4,65.855,48.154,67.965,48.528,70.747Z" fill="#ed906b"/>
          <path id="Path_708" data-name="Path 708" d="M49.177,67.229a2.331,2.331,0,0,1,3.529,1.253L52.442,66.5a3.133,3.133,0,0,0-1.671-.22A2.2,2.2,0,0,0,49.177,67.229Z" fill="#ffbc80"/>
          <path id="Path_709" data-name="Path 709" d="M84.457,70.747c-.374,2.782-2.529,6.355-4.6,5.277a4.585,4.585,0,0,1-2.7-5.09c.374-2.792,1.825-4.156,4.046-4.607C83.555,65.855,84.819,67.965,84.457,70.747Z" fill="#ed906b"/>
          <path id="Path_710" data-name="Path 710" d="M83.8,67.229a2.331,2.331,0,0,0-3.54,1.253l.264-1.979a3.155,3.155,0,0,1,1.682-.22A2.2,2.2,0,0,1,83.8,67.229Z" fill="#ffbc80"/>
          <path id="Path_711" data-name="Path 711" d="M75.65,83.709c-.88,3.045.319,12.4.539,12.951a12.863,12.863,0,0,1-10.994,5.5c-7.7,0-7.7-3.925-7.7-3.925s2.034-9.2.978-14.2Z" fill="#ffbc80"/>
          <path id="Path_712" data-name="Path 712" d="M75.386,85.512a17.723,17.723,0,0,0,0,2.913s-5.024,5.9-8.553,5.9-8.1-5.5-8.1-5.5.077-3.65-.088-5.167Z" fill="#ed906b"/>
          <path id="Path_713" data-name="Path 713" d="M52.442,64.953a14.039,14.039,0,1,0,28.079,0c0-10.4-6.289-15.392-14.039-15.392S52.442,54.762,52.442,64.953Z" fill="#ffbc80"/>
          <path id="Path_714" data-name="Path 714" d="M52.442,64.953c0,7.509,0,13.8,2.869,17.876,1.726,2.452,6.2,6.684,9.444,7.7a9.411,9.411,0,0,0,3.914-.154c3.221-1.1,7.344-5.255,8.982-7.6C80.521,78.7,80.521,72.407,80.521,64.9" fill="#ffbc80"/>
          <path id="Path_715" data-name="Path 715" d="M72.77,81.6c0,.44-3.507,4-6.289,4s-6.289-3.562-6.289-4S72.77,81.169,72.77,81.6Z" fill="#fff"/>
          <path id="Path_716" data-name="Path 716" d="M57.961,70.032c0,1.275.77,2.309,1.715,2.309s1.715-1.033,1.715-2.309-.77-2.309-1.715-2.309S57.961,68.757,57.961,70.032Z"/>
          <path id="Path_717" data-name="Path 717" d="M71.242,70.032c0,1.275.77,2.309,1.715,2.309s1.726-1.033,1.726-2.309-.77-2.309-1.726-2.309S71.242,68.757,71.242,70.032Z"/>
          <path id="Path_718" data-name="Path 718" d="M61.908,64.865h-.88a15.191,15.191,0,0,0-1.935.187c-.352.055-.7.077-1.022.154s-.638.088-.891.165c-.517.132-.869.187-.869.187h0a.319.319,0,0,1-.374-.264.33.33,0,0,1,.187-.352s.341-.154.869-.352a9.224,9.224,0,0,1,2.012-.462,11.269,11.269,0,0,1,2.056-.077,3.742,3.742,0,0,1,.934.11.33.33,0,0,1,.264.374.352.352,0,0,1-.352.33Z"/>
          <path id="Path_719" data-name="Path 719" d="M71.22,64.227s.374-.066.934-.11a11.269,11.269,0,0,1,2.056.077,9.113,9.113,0,0,1,2,.462c.539.2.869.352.869.352a.319.319,0,0,1,.165.429.341.341,0,0,1-.352.187h0a2.825,2.825,0,0,1-.869-.187c-.242-.077-.561-.088-.88-.165s-.671-.1-1.022-.154c-.7-.1-1.407-.154-1.935-.187a6.244,6.244,0,0,0-.88,0,.33.33,0,0,1,0-.649Z"/>
          <path id="Path_720" data-name="Path 720" d="M68.944,77.475a9.158,9.158,0,0,0-4.9,0c-.77.451,1.616,1.1,2.452,1.1S69.659,77.86,68.944,77.475Z" fill="#ed906b"/>
          <path id="Path_721" data-name="Path 721" d="M38.105,131.478c-1.165,9.147-.638,14.391-1.1,32.224-.187,7.157-.9,20.625-1.209,24.187,0,.572,58.906,0,58.906,0a85.193,85.193,0,0,1-4.057-23.626c-.088-19.569,3.408-31.52,3.3-33.1l4.9-25.209c-3.507-3.7-18.8-7.553-21.537-10.763-4.266,2.869-12.247,37.38-15.392,57.4-8.487-22.8-7.256-57.884-7.256-57.884-7.157,4.958-16.623,6.981-23.351,11.94Z" fill="#275389"/>
          <path id="Path_722" data-name="Path 722" d="M75.672,92.955h.682l3.9,3.793L76.5,109.523l-8.169-7.7S75.98,97.485,75.672,92.955Z" fill="#102b51"/>
          <path id="Path_723" data-name="Path 723" d="M58.5,91.878h-.451l-4.607,3.3v14.4l7.7-6.6,1.176-1.011S57.334,99.518,58.5,91.878Z" fill="#102b51"/>
          <path id="Path_724" data-name="Path 724" d="M66.481,55.52c2,0,3.672-.847,5.783-1.374,3.771-.934,5.585,3.111,5.585,3.111,2.2,3.551,1.693,14.666,1.726,15.3s.891.726.9,0a67.812,67.812,0,0,0,.33-11.885c-.517-4.475-3-11.445-9.1-11.885a11.764,11.764,0,0,0-9.576-2.419c-7.025,1.286-9.367,7.179-10.038,12.5-.6,4.859.385,12.093.385,13.5,0,.836.934.737.934,0,0-1.187-.693-13.1,1.869-16.139C59.6,51.09,64.546,55.52,66.481,55.52Z" fill="#684000"/>
          <path id="Path_725" data-name="Path 725" d="M66.36,34.983c-13.589,0-20.812,18.129-20.812,18.129a17.217,17.217,0,0,0,6.366,9.037s.858-8.279,4.672-11.577,15.678-3.859,19.789.924a19.789,19.789,0,0,1,4.4,10.62,17.151,17.151,0,0,0,6.366-9.037S79.971,34.983,66.36,34.983Z" fill="#0a1d35"/>
          <path id="Path_726" data-name="Path 726" d="M83.214,53.585c0,5.167-5.376,9.07-16.953,9.07s-15.952-3.6-15.952-9.07c0-3.177,8.454-7.08,16.788-7.135C75.211,46.384,83.214,50.078,83.214,53.585Z"/>
          <path id="Path_727" data-name="Path 727" d="M53.387,162.6a1.66,1.66,0,1,0,1.66-1.66,1.66,1.66,0,0,0-1.66,1.66Z" fill="#ffd961"/>
          <path id="Path_728" data-name="Path 728" d="M64.392,41.953a1.968,1.968,0,1,0,1.968-1.968,1.968,1.968,0,0,0-1.968,1.968Z" fill="#ffd961"/>
          <path id="Path_729" data-name="Path 729" d="M62.556,42.789h7.377l1.759-1.671H61.039Z" fill="#ffd961"/>
          <path id="Path_730" data-name="Path 730" d="M83.016,55.223C78.058,52.112,71.747,51.2,65.964,51.2a32.1,32.1,0,0,0-15.392,4.4" fill="none" stroke="#ffd961" stroke-linecap="round" stroke-miterlimit="10" stroke-width="1.099"/>
          <path id="Path_731" data-name="Path 731" d="M37.589,152.587c7.938-.264,23.989-4.53,37.094-4.53.847,0,12.093,3,12.093,4.321.165,3.98-10.17,8.96-11.1,7.454-7.146.209-50.232,14.666-53.31,9.532-4.046-6.761,5.068-54.97,8.905-62.666,2.946-2.056,6.6-3.474,11.291,2.353,3.551,4.4,2.023,14.952.22,17.239S37.589,152.587,37.589,152.587Z" fill="#ffbc80"/>
          <path id="Path_732" data-name="Path 732" d="M94.164,152.587c-7.938-.264-20.581-.528-33.686-.528-3.408.088-2.056,12.566-.8,10.543,7.146.209,46.549,10.444,48.825,4.914,1.539-3.716-4.8-53.1-8.641-60.852-2.946-2.056-6.6-3.474-11.291,2.353-3.551,4.4-1.1,14.479-.22,17.239C89.811,130.665,94.164,152.587,94.164,152.587Z" fill="#ffbc80"/>
          <path id="Path_733" data-name="Path 733" d="M31.311,106.643c-.715,1.231-3.2,8.388-4.6,16.381-.1.594-1.209,1.528-1.363,2.078-.836,2.935-1.484,5.387-1.671,6.519-.682,3.87,18.459.847,18.69-.506s4.716-14.028,4.716-14.028-1.935-10.093-1.528-10.785-4.65-2.4-4.65-2.4S32.4,104.8,31.311,106.643Z" fill="#275389"/>
          <path id="Path_734" data-name="Path 734" d="M99.826,106.643c1.1,1.341,3.3,9.895,4.76,17.766.11.583,1.341,1.209,1.5,1.737.682,2.474,1.2,4.475,1.374,5.5.682,3.87-18.47.847-18.69-.506s-4.705-14.028-4.705-14.028S86,107.016,85.578,106.324s4.661-2.4,4.661-2.4S98.441,104.993,99.826,106.643Z" fill="#275389"/>
          <path id="Path_735" data-name="Path 735" d="M50.177,97.353V100.1l-14.336,5.651-3.012-.132.759-1.264,15.9-7.465Z" fill="#102b51"/>
          <path id="Path_736" data-name="Path 736" d="M36.709,103.85c.11.22-.121.55-.517.737s-.792.165-.9,0,.132-.55.517-.737S36.6,103.63,36.709,103.85Z" fill="#ffc215"/>
          <path id="Path_737" data-name="Path 737" d="M81.653,97.8v2.749L95.978,106.2l3.012-.132-.748-1.253L82.335,97.342Z" fill="#102b51"/>
          <path id="Path_738" data-name="Path 738" d="M95.121,104.3c-.11.22.121.55.506.737s.8.165.9-.055-.121-.55-.517-.737S95.22,104.081,95.121,104.3Z" fill="#ffc215"/>
          <path id="Path_739" data-name="Path 739" d="M62.259,101.97,64.7,112.14l3.628-10.224S63.128,102.113,62.259,101.97Z" fill="#fff"/>
          <path id="Path_740" data-name="Path 740" d="M28.244,208.888a6.75,6.75,0,1,1,6.75,6.75,6.75,6.75,0,0,1-6.75-6.75Zm1.7,0a5.046,5.046,0,1,0,5.046-5.046A5.046,5.046,0,0,0,29.948,208.888Z" fill="#c1c1c1"/>
          <path id="Path_741" data-name="Path 741" d="M38.127,202.984c-.956-.693,1.385-3.617.11-4.672s-6.08-1.011-7.267.2,1.418,4,.407,4.683" fill="#c1c1c1"/>
          <line id="Line_38" data-name="Line 38" y2="1.825" transform="translate(34.62 196.64)" fill="none" stroke="#c1c1c1" stroke-linecap="round" stroke-miterlimit="10" stroke-width="2.199"/>
          <path id="Path_742" data-name="Path 742" d="M74.43,122.672c0-.737.836.616,2.32.154s1.726-2.2,2.771-2.2.989,1.825,2.276,2.2c1.561.385,2.551-.989,2.551-.165v5.717h0v.2a4.958,4.958,0,0,1-9.895,0,1.21,1.21,0,0,1,0-.2h0Z" fill="#ffc215"/>
          <line id="Line_39" data-name="Line 39" x2="11.016" transform="translate(46.659 123.442)" fill="none" stroke="#fff" stroke-linecap="round" stroke-linejoin="round" stroke-width="2.199"/>
          <path id="Path_743" data-name="Path 743" d="M95.286,187.207c1.231,0,1.528,9.026.231,9.026l-60.863.418c-.528,0-.528-8.85.583-8.85l24.044-.231Z"/>
          <line id="Line_40" data-name="Line 40" y2="10.884" transform="translate(75.793 187.152)" fill="none" stroke="#132c51" stroke-linecap="round" stroke-miterlimit="10" stroke-width="2.199"/>
          <line id="Line_41" data-name="Line 41" y2="10.884" transform="translate(54.509 187.152)" fill="none" stroke="#132c51" stroke-linecap="round" stroke-miterlimit="10" stroke-width="2.199"/>
          <path id="Path_744" data-name="Path 744" d="M59.709,187.141h9.62v9.928H59.28v-9.928" fill="#c1c1c1"/>
          <line id="Line_42" data-name="Line 42" x1="5.024" transform="translate(64.304 191.924)" fill="none" stroke="#000" stroke-linecap="round" stroke-linejoin="round" stroke-width="1.099"/>
          <path id="Path_745" data-name="Path 745" d="M97.364,197.652c-1.1.9-7.894.759-9.081-.066s-.792-11.159.286-12.28,8.8-.9,9.444.484S98.452,196.794,97.364,197.652Z" fill="#0a1d35"/>
          <line id="Line_43" data-name="Line 43" x1="0.099" y2="5.673" transform="translate(90.228 183.964)" fill="none" stroke="#101e35" stroke-linecap="round" stroke-miterlimit="10" stroke-width="1.099"/>
          <line id="Line_44" data-name="Line 44" x2="6.333" y2="0.11" transform="translate(89.8 194.024)" fill="none" stroke="#c1c1c1" stroke-linecap="round" stroke-miterlimit="10" stroke-width="1.099"/>
          <line id="Line_45" data-name="Line 45" x2="3.881" y2="0.066" transform="translate(91.053 192.265)" fill="none" stroke="#c1c1c1" stroke-linecap="round" stroke-miterlimit="10" stroke-width="1.099"/>
          <line id="Line_46" data-name="Line 46" x2="3.881" y2="0.066" transform="translate(90.998 195.794)" fill="none" stroke="#c1c1c1" stroke-linecap="round" stroke-miterlimit="10" stroke-width="1.099"/>
          <path id="Path_746" data-name="Path 746" d="M97.089,186.954a.418.418,0,1,1-.184-.418.418.418,0,0,1,.184.418Z" fill="#ff2c2c"/>
          <path id="Path_747" data-name="Path 747" d="M97.067,188.065a.418.418,0,1,1-.184-.418.418.418,0,0,1,.184.418Z" fill="#2b512d"/>
          <path id="Path_748" data-name="Path 748" d="M62.248,162.877l8.224-3.771s9.026-7.025,15.788-7.223l.561.495s-8.169.176-12.291,5.42c-1.924,2.452-6.2,3.144-7.366,5.9Z" fill="#ed906b"/>
        </g>
      </g>
    </g>
  </g>
</svg>
