<svg xmlns="http://www.w3.org/2000/svg" xmlns:xlink="http://www.w3.org/1999/xlink" width="320" height="468" viewBox="0 0 320 468">
  <defs>
    <clipPath id="clip-path">
      <rect id="Rectangle_39" data-name="Rectangle 39" width="320" height="468" rx="89" transform="translate(1294 1444)" fill="#fff" stroke="#707070" stroke-width="1"/>
    </clipPath>
  </defs>
  <g id="secure" transform="translate(-1294 -1444)" clip-path="url(#clip-path)">
    <g id="Layer_2" data-name="Layer 2" transform="translate(1294 1518)">
      <g id="Layer_1" data-name="Layer 1">
        <rect id="Rectangle_184" data-name="Rectangle 184" width="320" height="320" fill="#e1effa"/>
        <path id="Path_440" data-name="Path 440" d="M68.267,301.3a1.792,1.792,0,0,0-.6-1.422,4.963,4.963,0,0,0-2.076-.953,6.912,6.912,0,0,1-2.844-1.422,2.844,2.844,0,0,1-1.038-2.247,3.029,3.029,0,0,1,1.109-2.375,4.338,4.338,0,0,1,2.844-.939,4.267,4.267,0,0,1,3.058,1.081,3.271,3.271,0,0,1,1.1,2.532h-1.55a2.219,2.219,0,0,0-.711-1.707,2.588,2.588,0,0,0-1.849-.683,2.489,2.489,0,0,0-1.764.569,1.849,1.849,0,0,0-.612,1.422A1.593,1.593,0,0,0,64,296.462a6.329,6.329,0,0,0,2.176.939,6.244,6.244,0,0,1,2.844,1.422,3.058,3.058,0,0,1,.953,2.29,2.844,2.844,0,0,1-1.152,2.361,4.864,4.864,0,0,1-3.015.882,5.134,5.134,0,0,1-3.1-.981,3,3,0,0,1-1.308-2.631h1.564a2.048,2.048,0,0,0,.868,1.764,3.229,3.229,0,0,0,1.963.626,2.915,2.915,0,0,0,1.849-.526A1.692,1.692,0,0,0,68.267,301.3Z" fill="#696969"/>
        <path id="Path_441" data-name="Path 441" d="M78.891,298.667H73.956v4.352h5.831v1.28H72.277V292.167h7.367v1.294H73.956v3.925h4.978Z" fill="#696969"/>
        <path id="Path_442" data-name="Path 442" d="M90.34,300.473h0a3.641,3.641,0,0,1-1.209,2.844,4.58,4.58,0,0,1-3.257,1.152,4.267,4.267,0,0,1-3.356-1.422,5.419,5.419,0,0,1-1.294-3.7v-2.1a5.461,5.461,0,0,1,1.294-3.712,4.267,4.267,0,0,1,3.356-1.422,4.651,4.651,0,0,1,3.271,1.1,3.641,3.641,0,0,1,1.195,2.844H88.775a2.688,2.688,0,0,0-.754-2.005,2.844,2.844,0,0,0-2.119-.754,2.589,2.589,0,0,0-2.19,1.109,4.565,4.565,0,0,0-.811,2.759v2.176a4.565,4.565,0,0,0,.811,2.759A2.588,2.588,0,0,0,85.9,303.2a2.845,2.845,0,0,0,2.119-.74,2.716,2.716,0,0,0,.754-2.034Z" fill="#696969"/>
        <path id="Path_443" data-name="Path 443" d="M101.447,292.224v8.05a3.925,3.925,0,0,1-1.308,3.129,4.878,4.878,0,0,1-3.342,1.124,4.622,4.622,0,0,1-3.228-1.124,3.982,3.982,0,0,1-1.266-3.129v-8.05h1.65v8.05a2.844,2.844,0,0,0,.8,2.19,2.759,2.759,0,0,0,2.048.782,3.072,3.072,0,0,0,2.176-.782,2.845,2.845,0,0,0,.825-2.19v-8.05Z" fill="#696969"/>
        <path id="Path_444" data-name="Path 444" d="M105.685,299.093v5.262H104.05V292.224H108.2a4.537,4.537,0,0,1,3.029.9,3.115,3.115,0,0,1,1.052,2.56,2.7,2.7,0,0,1-.484,1.621,3.243,3.243,0,0,1-1.422,1.109,2.446,2.446,0,0,1,1.422,1.052,3.371,3.371,0,0,1,.441,1.806v1.138a3.7,3.7,0,0,0,.128,1.01,1.593,1.593,0,0,0,.427.74v.2h-1.678a1.422,1.422,0,0,1-.412-.839,7.112,7.112,0,0,1-.1-1.124v-1.109a2.233,2.233,0,0,0-.569-1.593,2.034,2.034,0,0,0-1.536-.6Zm0-1.294h2.4a3.058,3.058,0,0,0,2.005-.526,2.034,2.034,0,0,0,.612-1.607,2.1,2.1,0,0,0-.6-1.593,2.659,2.659,0,0,0-1.849-.555h-2.574Z" fill="#696969"/>
        <path id="Path_445" data-name="Path 445" d="M121.529,298.667h-4.907v4.352h5.831v1.28H114.9V292.167h7.41v1.294h-5.689v3.925H121.6Z" fill="#696969"/>
        <path id="Path_446" data-name="Path 446" d="M128.569,304.356V292.224h3.812a4.978,4.978,0,0,1,5.262,5.234v1.664a4.964,4.964,0,0,1-5.262,5.234Zm1.636-10.837v9.557h2.176a3.371,3.371,0,0,0,2.66-1.109,4.267,4.267,0,0,0,.967-2.844v-1.678a4.153,4.153,0,0,0-.967-2.844,3.371,3.371,0,0,0-2.66-1.109Z" fill="#696969"/>
        <path id="Path_447" data-name="Path 447" d="M146.219,301.227h-4.58l-1.081,3.129h-1.664l4.366-12.132h1.422l4.267,12.132h-1.664Zm-4.1-1.422h3.627l-1.764-5.22h0Z" fill="#696969"/>
        <path id="Path_448" data-name="Path 448" d="M158.151,293.518H154.14v10.837H152.5V293.518h-3.954v-1.294h9.6Z" fill="#696969"/>
        <path id="Path_449" data-name="Path 449" d="M165.476,301.227H160.91l-1.081,3.129h-1.678l4.38-12.132h1.422l4.267,12.132h-1.678Zm-4.082-1.422h3.584l-1.764-5.22h0Z" fill="#696969"/>
        <path id="Path_450" data-name="Path 450" d="M180.864,298.667h-4.978v4.352h5.831v1.28h-7.467V292.167h7.381v1.294h-5.689v3.925h4.978Z" fill="#696969"/>
        <path id="Path_451" data-name="Path 451" d="M187.733,296.96l2.844-4.736h1.991l-3.854,6.016,3.94,6.116h-2.076l-2.844-4.821-2.958,4.821H182.8l3.925-6.116-3.84-6.016h2.005Z" fill="#696969"/>
        <path id="Path_452" data-name="Path 452" d="M202.908,300.473h0a3.669,3.669,0,0,1-1.195,2.844,4.622,4.622,0,0,1-3.271,1.152,4.267,4.267,0,0,1-3.342-1.422,5.362,5.362,0,0,1-1.308-3.7v-2.1a5.4,5.4,0,0,1,1.308-3.712,4.267,4.267,0,0,1,3.342-1.422,4.679,4.679,0,0,1,3.285,1.1,3.627,3.627,0,0,1,1.18,2.844H201.33a2.688,2.688,0,0,0-.754-2.005,2.844,2.844,0,0,0-2.119-.754,2.6,2.6,0,0,0-2.19,1.109,4.565,4.565,0,0,0-.811,2.759v2.176a4.565,4.565,0,0,0,.811,2.759,2.6,2.6,0,0,0,2.19,1.109,2.844,2.844,0,0,0,2.119-.74,2.716,2.716,0,0,0,.754-2.034Z" fill="#696969"/>
        <path id="Path_453" data-name="Path 453" d="M214.229,304.356h-1.636v-5.362h-5.9v5.362h-1.636V292.224h1.636V297.7h5.9v-5.476h1.636Z" fill="#696969"/>
        <path id="Path_454" data-name="Path 454" d="M223.474,301.227h-4.565l-1.081,3.129h-1.65l4.38-12.132h1.422l4.267,12.132h-1.678Zm-4.082-1.422h3.627l-1.778-5.22h0Z" fill="#696969"/>
        <path id="Path_455" data-name="Path 455" d="M237.184,304.356h-1.65l-5.845-9.273h0v9.273h-1.636V292.224h1.636l5.845,9.259h0v-9.244h1.65Z" fill="#696969"/>
        <path id="Path_456" data-name="Path 456" d="M248.747,302.72a3.783,3.783,0,0,1-1.508,1.237,5.831,5.831,0,0,1-2.844.569,4.665,4.665,0,0,1-3.484-1.422,4.907,4.907,0,0,1-1.422-3.6v-2.489a5.049,5.049,0,0,1,1.323-3.612,4.494,4.494,0,0,1,3.413-1.422,4.58,4.58,0,0,1,3.2,1.067,3.456,3.456,0,0,1,1.138,2.759H247a2.546,2.546,0,0,0-.725-1.849,3.015,3.015,0,0,0-4.267.313,3.982,3.982,0,0,0-.853,2.631v2.517a3.968,3.968,0,0,0,.9,2.674,2.845,2.845,0,0,0,2.3,1.038,4.1,4.1,0,0,0,1.707-.284,2.545,2.545,0,0,0,.939-.654v-2.731h-2.759v-1.294h4.395Z" fill="#696969"/>
        <path id="Path_457" data-name="Path 457" d="M258.2,298.667h-4.978v4.352h5.831v1.28h-7.481V292.167h7.381v1.294h-5.689v3.925h4.978Z" fill="#696969"/>
        <path id="Path_458" data-name="Path 458" d="M221.4,179.442a25.77,25.77,0,0,0-5.49-.981c-1.109,2.46.327,9.216-3.712,9.657s-4.025-6.386-5.618-8.533a25.771,25.771,0,0,0-9.074,5.077c.953,2.5,6.6,6.172,4.11,9.244s-7.225-1.65-9.87-2.048a25.188,25.188,0,0,0-1.991,4.892,24.518,24.518,0,0,0-.953,5.177c2.432,1.081,8.974-.3,9.4,3.6s-6.3,3.968-8.448,5.547a25.6,25.6,0,0,0,4.878,9.188c2.517-.953,6.244-6.684,9.372-4.167s-1.692,7.5-2.091,10.169a25.6,25.6,0,0,0,5.134,2.133,25.284,25.284,0,0,0,4.736.91c1.124-2.46-.327-9.344,3.783-9.785s4.267,6.684,5.86,8.86a25.6,25.6,0,0,0,9.116-4.85c-.953-2.574-7.012-6.485-4.267-9.8s7.836,1.764,10.553,2.148a26.027,26.027,0,0,0,2.844-9.828c-2.489-1.138-9.6.37-10.055-3.9s6.77-4.267,8.946-5.916a25.6,25.6,0,0,0-5.035-9.017c-2.546.953-6.414,6.912-9.671,4.267s1.707-7.566,2.091-10.24A25.216,25.216,0,0,0,221.4,179.442Zm1.977,27.15a9.543,9.543,0,1,1-6.471-11.833,9.543,9.543,0,0,1,6.471,11.833Z" fill="#2c5871"/>
        <path id="Path_459" data-name="Path 459" d="M246.67,156.444a16.428,16.428,0,0,0-3.172-1.422c-1.038,1.323-1.152,5.689-3.655,5.291s-1.422-4.437-2.148-5.973a15.886,15.886,0,0,0-6.215,1.735c.213,1.65,3.072,4.693,1.124,6.187s-4.124-2.048-5.689-2.688a16.456,16.456,0,0,0-1.92,2.66,17.067,17.067,0,0,0-1.337,3c1.308,1.01,5.476,1.124,5.163,3.541s-4.395,1.422-5.916,2.119a15.914,15.914,0,0,0,1.607,6.258c1.664-.213,4.75-3.115,6.272-1.138s-2.119,4.267-2.759,5.831a15.928,15.928,0,0,0,2.844,2.034,16.756,16.756,0,0,0,2.731,1.252c1.038-1.323,1.166-5.689,3.726-5.362s1.564,4.651,2.233,6.215a15.958,15.958,0,0,0,6.215-1.607c-.2-1.692-3.285-4.935-1.18-6.556s4.48,2.219,6.059,2.844a15.118,15.118,0,0,0,1.863-2.6,14.678,14.678,0,0,0,1.308-2.844c-1.323-1.067-5.845-1.18-5.49-3.826s4.708-1.593,6.272-2.276a16.171,16.171,0,0,0-1.735-6.172c-1.678.2-4.878,3.228-6.471,1.166s2.148-4.267,2.844-5.874A15.559,15.559,0,0,0,246.67,156.444Zm-2.773,16.7a16.993,16.993,0,1,1,0,.043Z" fill="#ff6d3a"/>
        <path id="Path_460" data-name="Path 460" d="M149.333,221.554a14.22,14.22,0,0,0-1.636,2.432c.953,1.052,4.48,1.792,3.84,3.812s-3.9.583-5.276.882a13.426,13.426,0,0,0,.512,5.419c1.422.071,4.352-1.849,5.291,0s-2.3,3.115-3.058,4.267a13.952,13.952,0,0,0,1.906,1.991,14.093,14.093,0,0,0,2.29,1.55c1.038-.939,1.749-4.366,3.712-3.74s.569,3.854.868,5.22a13.468,13.468,0,0,0,5.433-.4c0-1.422-1.892-4.409,0-5.376s3.228,2.4,4.423,3.157a13.312,13.312,0,0,0,2.1-2.005,13.524,13.524,0,0,0,1.422-2.076c-.939-1.052-4.537-1.82-3.883-3.883s4.1-.6,5.476-.924a13.27,13.27,0,0,0-.4-5.39c-1.422-.085-4.58,1.977-5.6,0s2.5-3.385,3.257-4.594a12.046,12.046,0,0,0-1.877-1.934,12.8,12.8,0,0,0-2.219-1.522c-1.067.953-1.849,4.665-3.982,3.982s-.612-4.139-.939-5.532a13.3,13.3,0,0,0-5.39.512c-.085,1.422,1.963,4.523,0,5.532s-3.271-2.418-4.466-3.172A13.426,13.426,0,0,0,149.333,221.554Zm13.412,4.807a6.131,6.131,0,1,1,.057,0Z" fill="#ccd9e3"/>
        <path id="Path_461" data-name="Path 461" d="M143.744,204.615a9.173,9.173,0,0,0-1.337,1.223c.412.768,2.446,1.735,1.764,2.844s-2.446-.228-3.314-.242a8.092,8.092,0,0,0-.484,3.342c.825.242,2.844-.484,3.2.768s-1.863,1.536-2.489,2.148a9.144,9.144,0,0,0,.868,1.422,8.976,8.976,0,0,0,1.152,1.266c.768-.412,1.692-2.375,2.844-1.707s-.213,2.4-.242,3.271a8.392,8.392,0,0,0,3.342.555c.256-.839-.484-2.93.782-3.243s1.593,1.92,2.2,2.546a9.06,9.06,0,0,0,1.564-.9,8.417,8.417,0,0,0,1.18-1.052c-.412-.768-2.475-1.764-1.778-2.844s2.56.228,3.442.228a8.206,8.206,0,0,0,.54-3.314c-.839-.256-3.058.526-3.385-.811s2.005-1.678,2.645-2.3a8.846,8.846,0,0,0-1.963-2.688c-.8.412-1.806,2.546-3,1.835s.242-2.6.242-3.484a8.533,8.533,0,0,0-3.328-.484c-.256.853.526,3.029-.8,3.342s-1.621-1.934-2.233-2.56A7.5,7.5,0,0,0,143.744,204.615Zm7.41,4.85a3.1,3.1,0,1,1-4.267-.668A3.1,3.1,0,0,1,151.154,209.465Z" fill="#ccd9e3"/>
        <path id="Path_462" data-name="Path 462" d="M95,225.749v4.565H88.192v2.176H72.448v3.641H88.192v2.076h9.2V225.749Z" fill="#2c5871"/>
        <path id="Path_463" data-name="Path 463" d="M106.6,232.491v-2.176H99.783v-4.565H97.394v12.459h9.2v-2.076H122.34v-3.641Z" fill="#0f303f"/>
        <path id="Path_464" data-name="Path 464" d="M97.394,187.648V184.32H74.965a2.532,2.532,0,0,0-2.517,2.532v36.437a2.517,2.517,0,0,0,2.517,2.517H97.394v-6.272H74.212V187.648Z" fill="#2c5871"/>
        <path id="Path_465" data-name="Path 465" d="M119.808,184.32H97.394v3.328h23.168v31.829H97.394v6.272h22.414a2.532,2.532,0,0,0,2.5-2.46V186.852a2.532,2.532,0,0,0-2.5-2.532Z" fill="#0f303f"/>
        <rect id="Rectangle_185" data-name="Rectangle 185" width="23.182" height="31.829" transform="translate(97.394 187.648)" fill="#fda014"/>
        <rect id="Rectangle_186" data-name="Rectangle 186" width="23.182" height="31.829" transform="translate(74.212 187.648)" fill="#fdc63a"/>
        <rect id="Rectangle_187" data-name="Rectangle 187" width="4.779" height="2.29" transform="translate(95.004 225.749)" fill="#0f303f"/>
        <path id="Path_466" data-name="Path 466" d="M209.223,105.956A50.83,50.83,0,0,1,202.6,78.677a79.645,79.645,0,0,0,13.2-5.12,47.26,47.26,0,0,0,10.894-8.135V60.331a55.466,55.466,0,0,1-12.8,9.657A94.422,94.422,0,0,1,198.386,76a59.577,59.577,0,0,0,7.836,32.085c8.917,15.73,20.523,19.527,20.523,19.527v-5.035S216.818,119.353,209.223,105.956Z" fill="#2c5871"/>
        <path id="Path_467" data-name="Path 467" d="M254.99,76a94.821,94.821,0,0,1-15.516-6.016,55.282,55.282,0,0,1-12.8-9.657v5.092a47.018,47.018,0,0,0,10.837,8.135,79.643,79.643,0,0,0,13.2,5.12,50.83,50.83,0,0,1-6.628,27.278c-7.58,13.4-17.451,16.626-17.451,16.626v5.006s11.648-3.854,20.565-19.5A59.733,59.733,0,0,0,254.99,76Z" fill="#0f303f"/>
        <path id="Path_468" data-name="Path 468" d="M244.139,105.956a50.83,50.83,0,0,0,6.628-27.278,79.645,79.645,0,0,1-13.2-5.12,47.018,47.018,0,0,1-10.88-8.135v57.159S236.558,119.353,244.139,105.956Z" fill="#03aab6"/>
        <path id="Path_469" data-name="Path 469" d="M215.794,73.557a79.645,79.645,0,0,1-13.2,5.12,50.83,50.83,0,0,0,6.628,27.278c7.595,13.4,17.465,16.626,17.465,16.626V65.422A47.26,47.26,0,0,1,215.794,73.557Z" fill="#4bcdd6"/>
        <path id="Path_470" data-name="Path 470" d="M224.512,87.509a2.66,2.66,0,0,1-3.314-1.152,2.688,2.688,0,0,1,.668-3.442,9.031,9.031,0,0,0-3.627-2.1,2.688,2.688,0,0,1-5.319,0,9.074,9.074,0,0,0-3.641,2.1,2.674,2.674,0,0,1-2.66,4.594,9.287,9.287,0,0,0,0,4.267,2.7,2.7,0,0,1,3.328,1.152,2.674,2.674,0,0,1-.668,3.442,9.074,9.074,0,0,0,3.641,2.1,2.688,2.688,0,0,1,5.319,0,9.031,9.031,0,0,0,3.627-2.162,2.688,2.688,0,0,1,2.66-4.594,8.775,8.775,0,0,0,0-4.267Zm-8.946,5.831a3.726,3.726,0,1,1,3.712-3.74,3.726,3.726,0,0,1-3.712,3.74Z" fill="#fff"/>
        <path id="Path_471" data-name="Path 471" d="M241.493,95.943a2.148,2.148,0,0,1,1.835-2.076,7.339,7.339,0,0,0-1.678-2.844A2.148,2.148,0,0,1,237.98,88.9a7.652,7.652,0,0,0-3.342,0,2.148,2.148,0,0,1-3.669,2.119,7.338,7.338,0,0,0-1.678,2.844,2.148,2.148,0,0,1,0,4.267,7.239,7.239,0,0,0,1.678,2.844,2.148,2.148,0,0,1,3.7,2.1,7.652,7.652,0,0,0,3.342,0,2.148,2.148,0,0,1,3.641-2.1,7.239,7.239,0,0,0,1.678-2.844,2.148,2.148,0,0,1-1.835-2.19ZM236.3,98.9a2.958,2.958,0,1,1,2.1-.861,2.958,2.958,0,0,1-2.1.861Z" fill="#fff"/>
        <path id="Path_472" data-name="Path 472" d="M169.159,52.892V45.511a8.121,8.121,0,0,0-8.121-8.121h-2.076a8.121,8.121,0,0,0-8.121,8.121v7.367H148V70.8h24.178V52.892Zm-14.606,0V45.511a4.409,4.409,0,0,1,4.409-4.409h2.076a4.409,4.409,0,0,1,4.409,4.409v7.367H154.553Z" fill="#ccd9e3"/>
        <path id="Path_473" data-name="Path 473" d="M148.181,117.4a14.037,14.037,0,0,0-4.85-.868,14.222,14.222,0,0,0-14.052,11.748,20.167,20.167,0,0,0-.242,40.263h31.5V103.125A21.689,21.689,0,0,0,148.181,117.4Z" fill="#4bcdd6"/>
        <path id="Path_474" data-name="Path 474" d="M200.405,140.885a21.632,21.632,0,0,0-9.956-14.549,21.931,21.931,0,0,0,.242-3.214,21.646,21.646,0,0,0-30.165-19.911v65.422h35a14.222,14.222,0,0,0,4.864-27.7Z" fill="#03aab6"/>
        <path id="Path_475" data-name="Path 475" d="M202.425,139.207a23.993,23.993,0,0,0-9.472-14.052c0-.683.085-1.422.085-2.062A23.993,23.993,0,0,0,169.06,99.115a23.567,23.567,0,0,0-8.533,1.579v5.077c.3-.156.6-.3.91-.427a19.314,19.314,0,0,1,26.923,17.749,19.527,19.527,0,0,1-.213,2.844l-.228,1.522,1.308.8a19.342,19.342,0,0,1,8.86,13l.242,1.308,1.266.469a11.947,11.947,0,0,1-4.068,23.168H160.54v4.665h35a16.6,16.6,0,0,0,6.884-31.716Z" fill="#0f303f"/>
        <path id="Path_476" data-name="Path 476" d="M129.863,166.258h-.668a17.835,17.835,0,0,1,.213-35.556l1.849-.085.327-1.82a11.9,11.9,0,0,1,15.815-9.1l2.375.853.668-2.432a19.428,19.428,0,0,1,10.1-12.217v-5.177c-.313.114-.626.228-.924.37a24.178,24.178,0,0,0-12.942,13.454A16.6,16.6,0,0,0,127.4,126.108a22.5,22.5,0,0,0-.825,44.558s.853.142,1.138.156c7.993.3,32.711.156,32.711.156v-4.722Z" fill="#2c5871"/>
        <path id="Path_477" data-name="Path 477" d="M136.107,185.074V165.49h-7.381l14.364-14.379,14.379,14.379h-7.381v19.584Z" fill="#8dc63f"/>
        <path id="Path_478" data-name="Path 478" d="M143.09,152.434l12.132,12.132h-6.059v19.584H137.031V164.565h-6.059Zm0-2.631-1.308,1.308L129.65,163.243l-3.186,3.157h8.647v19.584h15.858V166.4h8.69l-3.172-3.186-12.132-12.132-1.323-1.308Z" fill="#fff"/>
        <path id="Path_479" data-name="Path 479" d="M166.955,170.311h7.381V150.727h13.98v19.584h7.4L181.333,184.69Z" fill="#fda014"/>
        <path id="Path_480" data-name="Path 480" d="M187.392,151.666V171.25h6.03L181.3,183.367l-12.06-12.117h6.073V151.666h12.117Zm1.863-1.863H173.4v19.584h-8.69l3.186,3.186,12.117,12.117,1.323,1.323,1.323-1.323,12.117-12.117,3.186-3.186h-8.7V149.8Z" fill="#fff"/>
        <path id="Path_481" data-name="Path 481" d="M77.653,75.932H73.742v34.332a3.57,3.57,0,0,0,3.584,3.513H92.971V75.932Z" fill="#fdc63a"/>
        <path id="Path_482" data-name="Path 482" d="M108.3,75.932H92.971v37.845h15.644a3.57,3.57,0,0,0,3.57-3.57V75.932Z" fill="#fda014"/>
        <path id="Path_483" data-name="Path 483" d="M108.3,75.932V54.044H92.971V75.932Zm-5.376-14.308v5.831H97.1V61.625Z" fill="#8e8e8e"/>
        <path id="Path_484" data-name="Path 484" d="M92.971,54.044H77.653V75.932H92.971ZM83.015,67.4V61.568H88.86V67.4Z" fill="#c1c1c1"/>
        <rect id="Rectangle_188" data-name="Rectangle 188" width="5.845" height="5.845" transform="translate(83.015 61.625)" fill="#8e8e8e"/>
        <rect id="Rectangle_189" data-name="Rectangle 189" width="5.845" height="5.845" transform="translate(97.095 61.625)" fill="#d1d1d1"/>
        <path id="Path_485" data-name="Path 485" d="M100.281,108.345a27.9,27.9,0,0,1-3.57-15,44.545,44.545,0,0,0,7.253-2.844,25.884,25.884,0,0,0,5.988-4.523V83.243a30.635,30.635,0,0,1-7.111,5.319,50.517,50.517,0,0,1-8.533,3.3,32.9,32.9,0,0,0,4.267,17.65c4.907,8.647,11.278,10.738,11.278,10.738V117.49S104.448,115.712,100.281,108.345Z" fill="#2c5871"/>
        <rect id="Rectangle_190" data-name="Rectangle 190" width="17.863" height="1.607" transform="translate(75.122 77.355)" fill="#ffd37b"/>
        <rect id="Rectangle_191" data-name="Rectangle 191" width="17.863" height="1.607" transform="translate(92.971 77.355)" fill="#fdc63a"/>
        <path id="Path_486" data-name="Path 486" d="M125.454,91.861a51.03,51.03,0,0,1-8.533-3.3,30.635,30.635,0,0,1-7.04-5.319V86a26.254,26.254,0,0,0,5.988,4.523,44.971,44.971,0,0,0,7.268,2.844,28.06,28.06,0,0,1-3.669,14.976c-4.181,7.367-9.614,9.145-9.614,9.145v2.759s6.414-2.091,11.321-10.738a32.953,32.953,0,0,0,4.281-17.65Z" fill="#0f303f"/>
        <path id="Path_487" data-name="Path 487" d="M119.467,108.345a28.06,28.06,0,0,0,3.641-15A44.968,44.968,0,0,1,115.84,90.5a26.254,26.254,0,0,1-5.988-4.523V117.49S115.314,115.712,119.467,108.345Z" fill="#9eb603"/>
        <path id="Path_488" data-name="Path 488" d="M103.893,90.524a44.545,44.545,0,0,1-7.253,2.844,27.9,27.9,0,0,0,3.641,15c4.167,7.367,9.6,9.145,9.6,9.145V86A25.885,25.885,0,0,1,103.893,90.524Z" fill="#c3d64b"/>
      </g>
    </g>
  </g>
</svg>
