<svg xmlns="http://www.w3.org/2000/svg" xmlns:xlink="http://www.w3.org/1999/xlink" width="320" height="468" viewBox="0 0 320 468">
  <defs>
    <clipPath id="clip-path">
      <rect id="Rectangle_39" data-name="Rectangle 39" width="320" height="468" rx="89" transform="translate(809 1444)" fill="#fff" stroke="#707070" stroke-width="1"/>
    </clipPath>
  </defs>
  <g id="storage" transform="translate(-809 -1444)" clip-path="url(#clip-path)">
    <g id="Layer_2" data-name="Layer 2" transform="translate(809 1518)">
      <g id="Layer_1" data-name="Layer 1">
        <rect id="Rectangle_142" data-name="Rectangle 142" width="320" height="320" fill="#ff6d3a"/>
        <path id="Path_300" data-name="Path 300" d="M101.291,304.356V292.224H105.1a4.978,4.978,0,0,1,5.262,5.234v1.664a5.12,5.12,0,0,1-1.422,3.783,5.177,5.177,0,0,1-3.826,1.422Zm1.636-10.837v9.557H105.1a3.371,3.371,0,0,0,2.66-1.109,4.267,4.267,0,0,0,.967-2.844v-1.678a4.153,4.153,0,0,0-.967-2.844,3.371,3.371,0,0,0-2.66-1.109Z" fill="#fff"/>
        <path id="Path_301" data-name="Path 301" d="M118.94,301.227h-4.565l-1.081,3.129h-1.678l4.366-12.132H117.4l4.267,12.132h-1.664Zm-4.1-1.422h3.627l-1.764-5.22h0Z" fill="#fff"/>
        <path id="Path_302" data-name="Path 302" d="M130.844,293.518h-3.968v10.837h-1.65V293.518h-3.954v-1.294h9.572Z" fill="#fff"/>
        <path id="Path_303" data-name="Path 303" d="M138.2,301.227h-4.508l-1.138,3.129h-1.707l4.38-12.132h1.422l4.267,12.132h-1.65Zm-4.082-1.422h3.627l-1.778-5.22h0Z" fill="#fff"/>
        <path id="Path_304" data-name="Path 304" d="M153.444,301.3a1.792,1.792,0,0,0-.6-1.422,4.949,4.949,0,0,0-2.091-.953,7.112,7.112,0,0,1-2.844-1.422,2.844,2.844,0,0,1-1.024-2.247,3.029,3.029,0,0,1,1.024-2.276,4.338,4.338,0,0,1,2.844-.939,4.267,4.267,0,0,1,3.058,1.081,3.271,3.271,0,0,1,1.1,2.532H153.33a2.219,2.219,0,0,0-.711-1.707,2.588,2.588,0,0,0-1.849-.683,2.489,2.489,0,0,0-1.764.569,1.849,1.849,0,0,0-.612,1.422,1.593,1.593,0,0,0,.668,1.308,6.33,6.33,0,0,0,2.176.939,6.244,6.244,0,0,1,2.844,1.422,3.058,3.058,0,0,1,.953,2.29,2.844,2.844,0,0,1-1.152,2.361,4.864,4.864,0,0,1-3.015.882,5.134,5.134,0,0,1-3.1-.981,3,3,0,0,1-1.308-2.631h1.564a2.048,2.048,0,0,0,.868,1.764,3.228,3.228,0,0,0,1.963.626,2.916,2.916,0,0,0,1.849-.526,1.692,1.692,0,0,0,.74-1.408Z" fill="#fff"/>
        <path id="Path_305" data-name="Path 305" d="M165.888,293.518h-4v10.837h-1.65V293.518H156.3v-1.294h9.586Z" fill="#fff"/>
        <path id="Path_306" data-name="Path 306" d="M176.64,299.378a5.148,5.148,0,0,1-1.422,3.684,4.651,4.651,0,0,1-3.57,1.422,4.423,4.423,0,0,1-3.456-1.422,5.3,5.3,0,0,1-1.337-3.684v-2.133a5.348,5.348,0,0,1,1.337-3.7,4.423,4.423,0,0,1,3.456-1.422,4.651,4.651,0,0,1,3.57,1.422,5.177,5.177,0,0,1,1.422,3.7ZM175,297.244a4.139,4.139,0,0,0-.9-2.745,3,3,0,0,0-2.418-1.067,2.845,2.845,0,0,0-2.29,1.067,4.267,4.267,0,0,0-.853,2.745v2.176a4.267,4.267,0,0,0,.853,2.745,2.844,2.844,0,0,0,2.29,1.067,3,3,0,0,0,2.418-1.067,4.11,4.11,0,0,0,.9-2.745Z" fill="#fff"/>
        <path id="Path_307" data-name="Path 307" d="M180.622,299.093v5.262h-1.636V292.224h4.153a4.537,4.537,0,0,1,3.029.9,3.115,3.115,0,0,1,1.052,2.56,2.7,2.7,0,0,1-.484,1.621,3.243,3.243,0,0,1-1.422,1.109,2.446,2.446,0,0,1,1.422,1.052,3.371,3.371,0,0,1,.441,1.806v1.138a3.7,3.7,0,0,0,.128,1.01,1.593,1.593,0,0,0,.427.74v.2h-1.692a1.422,1.422,0,0,1-.412-.839,7.2,7.2,0,0,1-.085-1.124v-1.109a2.247,2.247,0,0,0-.583-1.593,2.034,2.034,0,0,0-1.536-.6Zm0-1.294h2.347a3.058,3.058,0,0,0,2.005-.526,1.991,1.991,0,0,0,.612-1.607,2.1,2.1,0,0,0-.6-1.593,2.631,2.631,0,0,0-1.849-.555h-2.517Z" fill="#fff"/>
        <path id="Path_308" data-name="Path 308" d="M196.139,301.227h-4.565l-1.081,3.129h-1.678l4.366-12.132H194.6l4.267,12.132h-1.678Zm-4.1-1.422h3.627l-1.764-5.22h0Z" fill="#fff"/>
        <path id="Path_309" data-name="Path 309" d="M209.294,302.72a3.683,3.683,0,0,1-1.508,1.237,5.831,5.831,0,0,1-2.773.569,4.636,4.636,0,0,1-3.47-1.422,4.85,4.85,0,0,1-1.422-3.6v-2.489a5.049,5.049,0,0,1,1.323-3.612,4.494,4.494,0,0,1,3.413-1.422,4.58,4.58,0,0,1,3.2,1.067,3.527,3.527,0,0,1,1.152,2.759h-1.564a2.546,2.546,0,0,0-.725-1.849,3.015,3.015,0,0,0-4.267.313,3.982,3.982,0,0,0-.853,2.631v2.517a3.968,3.968,0,0,0,.9,2.674,2.845,2.845,0,0,0,2.3,1.038,4.1,4.1,0,0,0,1.707-.284,2.545,2.545,0,0,0,.939-.654v-2.731h-2.759v-1.294h4.395Z" fill="#fff"/>
        <path id="Path_310" data-name="Path 310" d="M218.752,298.667h-4.978v4.352h5.831v1.28h-7.481V292.167h7.381v1.294h-5.689v3.925h4.978Z" fill="#fff"/>
        <rect id="Rectangle_143" data-name="Rectangle 143" width="49.436" height="2.887" transform="translate(62.492 204.416)"/>
        <path id="Path_311" data-name="Path 311" d="M111,202.468V153.244a9.742,9.742,0,0,0-9.742-9.742H73.173a9.742,9.742,0,0,0-9.742,9.742v49.223Z" fill="#161616"/>
        <path id="Path_312" data-name="Path 312" d="M107.221,152.405a5.518,5.518,0,0,1-5.518,5.461H72.277a5.518,5.518,0,0,1-5.518-5.518h0a5.518,5.518,0,0,1,5.518-5.518H101.7a5.518,5.518,0,0,1,5.518,5.518Z" fill="#7f7979"/>
        <path id="Path_313" data-name="Path 313" d="M107.221,164.978A5.518,5.518,0,0,1,101.7,170.5H72.277a5.518,5.518,0,0,1-5.518-5.518h0a5.518,5.518,0,0,1,5.518-5.518H101.7A5.518,5.518,0,0,1,107.221,164.978Z" fill="#7f7979"/>
        <path id="Path_314" data-name="Path 314" d="M107.221,177.493a5.518,5.518,0,0,1-5.518,5.518H72.277a5.518,5.518,0,0,1-5.518-5.518h0a5.518,5.518,0,0,1,5.518-5.518H101.7A5.518,5.518,0,0,1,107.221,177.493Z" fill="#7f7979"/>
        <path id="Path_315" data-name="Path 315" d="M107.221,190.052a5.518,5.518,0,0,1-5.518,5.518H72.277a5.518,5.518,0,0,1-5.518-5.518h0a5.518,5.518,0,0,1,5.518-5.518H101.7a5.518,5.518,0,0,1,5.518,5.518Z" fill="#7f7979"/>
        <path id="Path_316" data-name="Path 316" d="M105.244,199.239a1.195,1.195,0,1,1-1.195-1.18,1.18,1.18,0,0,1,1.195,1.18Z" fill="#79e0e0"/>
        <rect id="Rectangle_144" data-name="Rectangle 144" width="12.828" height="1.977" transform="translate(87.794 198.457)" fill="#ccc"/>
        <rect id="Rectangle_145" data-name="Rectangle 145" width="12.985" height="0.597" transform="translate(72.633 199.239)" fill="#ccc"/>
        <path id="Path_317" data-name="Path 317" d="M63.431,202.468l-.939,1.948h49.436L111,202.468Z" fill="#303030"/>
        <rect id="Rectangle_146" data-name="Rectangle 146" width="33.749" height="7.026" transform="translate(70.286 148.836)" fill="#303030"/>
        <rect id="Rectangle_147" data-name="Rectangle 147" width="33.749" height="7.026" transform="translate(70.286 161.436)" fill="#303030"/>
        <rect id="Rectangle_148" data-name="Rectangle 148" width="33.749" height="7.026" transform="translate(70.286 173.98)" fill="#303030"/>
        <rect id="Rectangle_149" data-name="Rectangle 149" width="33.749" height="7.026" transform="translate(70.286 186.539)" fill="#303030"/>
        <rect id="Rectangle_150" data-name="Rectangle 150" width="17.906" height="1.735" transform="translate(74.169 150.073)" fill="#4c4c4c"/>
        <rect id="Rectangle_151" data-name="Rectangle 151" width="17.906" height="1.735" transform="translate(74.169 162.617)" fill="#4c4c4c"/>
        <rect id="Rectangle_152" data-name="Rectangle 152" width="17.906" height="1.735" transform="translate(74.169 175.175)" fill="#4c4c4c"/>
        <rect id="Rectangle_153" data-name="Rectangle 153" width="17.906" height="1.735" transform="translate(74.169 187.719)" fill="#4c4c4c"/>
        <path id="Path_318" data-name="Path 318" d="M260.267,172.345h-.953v-1.209h0l-.085-.427a2.279,2.279,0,0,0-.071-.3,3.2,3.2,0,0,0-.114-.341h0a2.447,2.447,0,0,0-.1-.3v-.128h0a8.893,8.893,0,0,0-.469-.9h0l-.327-.469h0a9.358,9.358,0,0,0-7.31-3.442v-.711a7.922,7.922,0,0,0-8.164-7.623,8.263,8.263,0,0,0-7.225,4.1,6.6,6.6,0,0,0-9.614,5.86,7.764,7.764,0,0,0,0,.825,6.528,6.528,0,0,0-5.76,5.248c-4.892.313-8.732,3.3-8.732,6.912s3.982,6.7,8.988,6.926a6.613,6.613,0,0,0,2.987,3.086,10.483,10.483,0,0,0,2.076.882h.128l.583.156h0l.7.142h.085l.683.1h1.863a13.127,13.127,0,0,0,5.689-1.195,23.409,23.409,0,0,0,9.813,2.034c5.988,0,11.378-1.977,14.293-5.22a10.441,10.441,0,0,0,1.152.071c4.878,0,8.832-3.172,8.832-7.111S265.173,172.345,260.267,172.345Zm-1.892-.256v-.612h0c.014.213.028.412.028.612Zm-.071-.811h0l-.085-.4h0a1.008,1.008,0,0,1,.114.4Zm-.313-1.195h0a.667.667,0,0,1,0-.142h0a.667.667,0,0,0,.028.142Zm-.484-.924Zm-.284-.412h0a.071.071,0,0,0,.028,0Zm-1.977-1.806h0Zm-.825-.441h-.085Zm-.953-.384H253.4Zm-.868-.242h0Zm-.939-.171h0Zm-16-3.911a5.689,5.689,0,0,0-3.4-1.124,5.689,5.689,0,0,1,3.428,1.124Zm-14.763,23.5a3.825,3.825,0,0,0,.341.924,3.826,3.826,0,0,1-.313-.924Zm.626,1.323c.1.142.2.3.313.441-.085-.142-.185-.3-.284-.441Zm1.138,1.209c-.114-.085-.185-.171-.284-.256s.2.171.313.256Zm.683.455.327.213h0Zm2.844,1.195-.668-.185h0l-.37-.142q.54.185,1.109.341h0Zm-2.247-.839c.256.128.526.256.811.37-.228-.114-.5-.242-.754-.37Zm4.594,1.18H227.6l-.626-.1h-.085l-.569-.114a13.725,13.725,0,0,0,3.029.341Z" fill="#fff"/>
        <path id="Path_319" data-name="Path 319" d="M115.2,242.489h-.626v-.8h0v-.484A1.252,1.252,0,0,1,114.5,241h0l-.071-.2v-.085h0c-.1-.2-.2-.4-.313-.583h0l-.2-.313h0a6.13,6.13,0,0,0-5.106-2.3v-.469a5.22,5.22,0,0,0-5.376-5.02,5.4,5.4,0,0,0-4.722,2.645,4.494,4.494,0,0,0-1.977-.469,4.352,4.352,0,0,0-4.352,4.267,3.64,3.64,0,0,0,0,.554A4.267,4.267,0,0,0,88.6,242.46c-3.228.213-5.689,2.176-5.689,4.551s2.631,4.409,5.931,4.551a4.153,4.153,0,0,0,1.963,2.034,7.438,7.438,0,0,0,1.422.583h.085l.384.1h0l.455.085h0l.441.071h1.237a8.86,8.86,0,0,0,3.7-.782,15.644,15.644,0,0,0,6.457,1.337c3.94,0,7.5-1.308,9.4-3.442a6.7,6.7,0,0,0,.754,0c3.214,0,5.817-2.091,5.817-4.651S118.372,242.489,115.2,242.489Zm-1.237-.171a3.752,3.752,0,0,0,0-.4h0a3.483,3.483,0,0,1-.043.4Zm0-.526h0a1.65,1.65,0,0,0,0-.256h0Zm-.213-.8h0v-.1h0ZM113.351,240.356Zm-.185-.284Zm-1.308-1.18h-.071Zm-.54-.284Zm-.626-.256Zm-.569-.156h0Zm-.626-.114h0Zm-10.524-2.574a3.655,3.655,0,0,0-2.261-.7,3.655,3.655,0,0,1,2.261.74Zm-9.7,15.445a1.991,1.991,0,0,0,.228.612,1.991,1.991,0,0,1-.228-.569Zm.412.882a1.279,1.279,0,0,0,.2.284,1.28,1.28,0,0,1-.2-.242Zm.74.8-.185-.171Zm.441.3.228.142h0Zm1.906.782-.441-.128h0l-.242-.085a6.306,6.306,0,0,0,.74.213h0Zm-1.422-.555.54.242Zm3.029.782H93.355l-.384-.085a9.015,9.015,0,0,0,2.005.228Z" fill="#de5f32"/>
        <rect id="Rectangle_154" data-name="Rectangle 154" width="33.394" height="3.499" transform="translate(215.993 241.82)" fill="#4c4c4c"/>
        <rect id="Rectangle_155" data-name="Rectangle 155" width="4.494" height="12.132" rx="1.237" transform="translate(230.443 233.614)" fill="#4c4c4c"/>
        <rect id="Rectangle_156" data-name="Rectangle 156" width="11.62" height="5.035" rx="1.237" transform="translate(226.887 241.052)" fill="#303030"/>
        <path id="Path_320" data-name="Path 320" d="M215.922,236.53l-2.148-26.539h23.737a1.863,1.863,0,0,1,1.18.412,1.92,1.92,0,0,1,.668,1.038l.213.9h4.736a2.418,2.418,0,0,1,1.607.611,2.332,2.332,0,0,1,.8,1.522l2.674,22.059Z" fill="#fdc63a"/>
        <path id="Path_321" data-name="Path 321" d="M220.032,214.571l-4.11,21.959h33.394l4.437-21.959Z" fill="#303030"/>
        <path id="Path_322" data-name="Path 322" d="M106,53.476H93.2v65.052H106a4.693,4.693,0,0,0,4.693-4.693V58.169A4.693,4.693,0,0,0,106,53.476Z" fill="#0f303f"/>
        <path id="Path_323" data-name="Path 323" d="M80.356,53.476a4.693,4.693,0,0,0-4.693,4.693v55.609a4.679,4.679,0,0,0,4.693,4.693h12.8v-65Z" fill="#2c5871"/>
        <rect id="Rectangle_157" data-name="Rectangle 157" width="14.251" height="1.166" transform="translate(86.044 56.078)" fill="#fff"/>
        <path id="Path_324" data-name="Path 324" d="M93.17,116.708a3.868,3.868,0,1,1,3.868-3.868,3.868,3.868,0,0,1-3.868,3.868Zm0-6.884a3.029,3.029,0,1,0,3.029,3.015,3.029,3.029,0,0,0-3.029-3.015Z" fill="#fff"/>
        <rect id="Rectangle_158" data-name="Rectangle 158" width="15.986" height="46.108" transform="translate(77.355 60.53)" fill="#4bcdd6"/>
        <rect id="Rectangle_159" data-name="Rectangle 159" width="15.644" height="46.108" transform="translate(93.34 60.53)" fill="#03aab6"/>
        <path id="Path_325" data-name="Path 325" d="M233.771,123.961a2.2,2.2,0,0,0,2.19,2.2v-4.395a2.19,2.19,0,0,0-2.19,2.19Z" fill="#0f303f"/>
        <path id="Path_326" data-name="Path 326" d="M238.165,123.961a2.19,2.19,0,0,0-2.2-2.19h0v4.395h0a2.2,2.2,0,0,0,2.2-2.2Z" fill="#2c5871"/>
        <path id="Path_327" data-name="Path 327" d="M233.159,123.961A2.844,2.844,0,0,1,236,121.116V120.05H216.178v-45.4h19.783V73.5h-3.669a.313.313,0,1,1,0-.626h3.669v-.967a.441.441,0,0,1,0-.882v-.811H216.576a2.66,2.66,0,0,0-2.66,2.66V125.4a2.66,2.66,0,0,0,2.66,2.6h19.385v-1.294A2.844,2.844,0,0,1,233.159,123.961Z" fill="#2c5871"/>
        <path id="Path_328" data-name="Path 328" d="M255.36,70.215h-19.4v.811h0a.441.441,0,0,1,0,.882h0v.967h3.684a.313.313,0,0,1,0,.626h-3.684v1.152h19.8v45.44h-19.8v1.067h0a2.844,2.844,0,1,1,0,5.6h0V128h19.4a2.66,2.66,0,0,0,2.66-2.66V72.875a2.66,2.66,0,0,0-2.66-2.66Z" fill="#0f303f"/>
        <rect id="Rectangle_160" data-name="Rectangle 160" width="19.797" height="45.44" transform="translate(235.961 74.652)" fill="#fda014"/>
        <rect id="Rectangle_161" data-name="Rectangle 161" width="19.797" height="45.44" transform="translate(216.178 74.652)" fill="#fdc63a"/>
        <path id="Path_329" data-name="Path 329" d="M239.644,73.5a.313.313,0,0,0,0-.626h-3.684V73.5Z" fill="#fff"/>
        <path id="Path_330" data-name="Path 330" d="M231.979,73.188a.313.313,0,0,0,.313.313h3.669v-.626h-3.669a.313.313,0,0,0-.313.313Z" fill="#fff"/>
        <path id="Path_331" data-name="Path 331" d="M235.52,71.467a.441.441,0,0,0,.441.441v-.882A.441.441,0,0,0,235.52,71.467Z" fill="#8dc63f"/>
        <path id="Path_332" data-name="Path 332" d="M235.961,71.908a.441.441,0,0,0,0-.882h0Z" fill="#8dc63f"/>
        <path id="Path_333" data-name="Path 333" d="M233.159,123.961A2.844,2.844,0,0,0,236,126.805v-.6a2.2,2.2,0,0,1,0-4.395V121.2A2.844,2.844,0,0,0,233.159,123.961Z" fill="#fff"/>
        <path id="Path_334" data-name="Path 334" d="M235.961,121.771a2.2,2.2,0,1,1,0,4.395h0v.6h0a2.844,2.844,0,1,0,0-5.6h0v.612Z" fill="#fff"/>
        <path id="Path_335" data-name="Path 335" d="M133.518,222.933a1.877,1.877,0,0,1-1.877,1.877h0a1.863,1.863,0,0,1-1.863-1.877v-.9a1.863,1.863,0,0,1,1.863-1.863h0a1.877,1.877,0,0,1,1.877,1.863Z" fill="#0f303f"/>
        <path id="Path_336" data-name="Path 336" d="M190.222,222.933a1.877,1.877,0,0,1-1.863,1.877h0a1.863,1.863,0,0,1-1.863-1.877v-.9a1.863,1.863,0,0,1,1.863-1.863h0a1.863,1.863,0,0,1,1.863,1.863Z" fill="#0f303f"/>
        <rect id="Rectangle_162" data-name="Rectangle 162" width="35.342" height="126.364" transform="translate(124.658 95.189)" fill="#2c5871"/>
        <rect id="Rectangle_163" data-name="Rectangle 163" width="35.342" height="126.364" transform="translate(160 95.189)" fill="#0f303f"/>
        <rect id="Rectangle_164" data-name="Rectangle 164" width="2.076" height="3.058" transform="translate(149.547 212.324)" fill="#fdc63a"/>
        <rect id="Rectangle_165" data-name="Rectangle 165" width="2.076" height="3.058" transform="translate(158.962 212.324)" fill="#fdc63a"/>
        <rect id="Rectangle_166" data-name="Rectangle 166" width="2.076" height="3.058" transform="translate(168.391 212.324)" fill="#fdc63a"/>
        <path id="Path_337" data-name="Path 337" d="M126.962,109.611H148.48v-4.366H126.962Zm18.332-2.944a.725.725,0,1,1-.711.725.711.711,0,0,1,.711-.725Z" fill="#103347"/>
        <path id="Path_338" data-name="Path 338" d="M145.294,108.089a.725.725,0,1,0-.711-.711A.711.711,0,0,0,145.294,108.089Z" fill="#8dc63f"/>
        <path id="Path_339" data-name="Path 339" d="M160,109.611h10.766v-4.366H160Zm7.566-2.944a.725.725,0,1,1-.582.711A.725.725,0,0,1,167.566,106.667Z" fill="#3b5770"/>
        <rect id="Rectangle_167" data-name="Rectangle 167" width="10.766" height="4.423" transform="translate(149.234 105.188)" fill="#103347"/>
        <path id="Path_340" data-name="Path 340" d="M167.566,108.089a.725.725,0,1,0-.582-.711A.725.725,0,0,0,167.566,108.089Z" fill="#8dc63f"/>
        <path id="Path_341" data-name="Path 341" d="M171.52,105.244v4.423h21.518v-4.423Zm18.332,2.844a.725.725,0,1,1,.711-.711.711.711,0,0,1-.711.711Z" fill="#3b5770"/>
        <path id="Path_342" data-name="Path 342" d="M189.852,106.667a.725.725,0,1,0,.711.725.711.711,0,0,0-.711-.725Z" fill="#8dc63f"/>
        <path id="Path_343" data-name="Path 343" d="M126.962,115.6H148.48v-4.423H126.962Zm18.332-2.93a.725.725,0,1,1-.711.711.711.711,0,0,1,.711-.711Z" fill="#103347"/>
        <path id="Path_344" data-name="Path 344" d="M145.294,114.1a.725.725,0,1,0-.711-.725.711.711,0,0,0,.711.725Z" fill="#8dc63f"/>
        <rect id="Rectangle_168" data-name="Rectangle 168" width="10.766" height="4.423" transform="translate(149.234 111.175)" fill="#103347"/>
        <path id="Path_345" data-name="Path 345" d="M170.766,115.6v-4.423H160V115.6Zm-3.2-2.93a.725.725,0,1,1-.582.711A.725.725,0,0,1,167.566,112.668Z" fill="#3b5770"/>
        <path id="Path_346" data-name="Path 346" d="M167.566,114.1a.725.725,0,1,0-.582-.711A.725.725,0,0,0,167.566,114.1Z" fill="#8dc63f"/>
        <path id="Path_347" data-name="Path 347" d="M171.52,115.6h21.518v-4.423H171.52Zm18.332-2.93a.725.725,0,1,1-.711.711A.711.711,0,0,1,189.852,112.668Z" fill="#3b5770"/>
        <path id="Path_348" data-name="Path 348" d="M189.852,114.1a.725.725,0,1,0-.711-.725.711.711,0,0,0,.711.725Z" fill="#8dc63f"/>
        <path id="Path_349" data-name="Path 349" d="M126.962,121.572H148.48v-4.409H126.962Zm18.332-2.844a.3.3,0,1,1,0-.071Z" fill="#103347"/>
        <path id="Path_350" data-name="Path 350" d="M145.294,120.078a.711.711,0,1,0-.711-.711A.711.711,0,0,0,145.294,120.078Z" fill="#8dc63f"/>
        <path id="Path_351" data-name="Path 351" d="M170.766,121.572v-4.409H160v4.409Zm-3.2-2.844a.711.711,0,1,1-.711.711A.711.711,0,0,1,167.566,118.727Z" fill="#3b5770"/>
        <rect id="Rectangle_169" data-name="Rectangle 169" width="10.766" height="4.423" transform="translate(149.234 117.163)" fill="#103347"/>
        <path id="Path_352" data-name="Path 352" d="M167.566,120.078a.711.711,0,1,0-.711-.711A.711.711,0,0,0,167.566,120.078Z" fill="#8dc63f"/>
        <path id="Path_353" data-name="Path 353" d="M171.52,121.572h21.518v-4.409H171.52Zm18.332-2.844a.3.3,0,1,1,0-.071Z" fill="#3b5770"/>
        <path id="Path_354" data-name="Path 354" d="M189.852,120.078a.711.711,0,1,0-.711-.711A.711.711,0,0,0,189.852,120.078Z" fill="#8dc63f"/>
        <path id="Path_355" data-name="Path 355" d="M126.962,127.559H148.48v-4.423H126.962Zm18.332-2.93a.725.725,0,1,1-.711.711.711.711,0,0,1,.711-.711Z" fill="#103347"/>
        <path id="Path_356" data-name="Path 356" d="M145.294,126.066a.725.725,0,1,0-.711-.725.711.711,0,0,0,.711.725Z" fill="#8dc63f"/>
        <rect id="Rectangle_170" data-name="Rectangle 170" width="10.766" height="4.423" transform="translate(149.234 123.136)" fill="#103347"/>
        <path id="Path_357" data-name="Path 357" d="M170.766,127.559v-4.423H160v4.423Zm-3.2-2.93a.725.725,0,1,1-.582.711A.725.725,0,0,1,167.566,124.629Z" fill="#3b5770"/>
        <path id="Path_358" data-name="Path 358" d="M167.566,126.066a.725.725,0,1,0-.582-.711A.725.725,0,0,0,167.566,126.066Z" fill="#8dc63f"/>
        <path id="Path_359" data-name="Path 359" d="M171.52,127.559h21.518v-4.423H171.52Zm18.332-2.93a.725.725,0,1,1-.711.711A.711.711,0,0,1,189.852,124.629Z" fill="#3b5770"/>
        <path id="Path_360" data-name="Path 360" d="M189.852,126.066a.725.725,0,1,0-.711-.725.711.711,0,0,0,.711.725Z" fill="#8dc63f"/>
        <path id="Path_361" data-name="Path 361" d="M126.962,133.532H148.48v-4.409H126.962Zm18.332-2.844a.3.3,0,1,1,0-.071Z" fill="#103347"/>
        <path id="Path_362" data-name="Path 362" d="M145.294,132.039a.711.711,0,1,0-.711-.711A.711.711,0,0,0,145.294,132.039Z" fill="#8dc63f"/>
        <path id="Path_363" data-name="Path 363" d="M170.766,133.532v-4.409H160v4.409Zm-3.2-2.844a.711.711,0,1,1-.711.711A.711.711,0,0,1,167.566,130.688Z" fill="#3b5770"/>
        <rect id="Rectangle_171" data-name="Rectangle 171" width="10.766" height="4.423" transform="translate(149.234 129.124)" fill="#103347"/>
        <path id="Path_364" data-name="Path 364" d="M167.566,132.039a.711.711,0,1,0-.711-.711A.711.711,0,0,0,167.566,132.039Z" fill="#8dc63f"/>
        <path id="Path_365" data-name="Path 365" d="M171.52,133.532h21.518v-4.409H171.52Zm18.332-2.844a.3.3,0,1,1,0-.071Z" fill="#3b5770"/>
        <path id="Path_366" data-name="Path 366" d="M189.852,132.039a.711.711,0,1,0-.711-.711A.711.711,0,0,0,189.852,132.039Z" fill="#8dc63f"/>
        <path id="Path_367" data-name="Path 367" d="M126.962,139.52H148.48v-4.409H126.962Zm18.332-2.987a.725.725,0,1,1-.711.711A.711.711,0,0,1,145.294,136.533Z" fill="#103347"/>
        <path id="Path_368" data-name="Path 368" d="M145.294,138.027a.725.725,0,1,0-.711-.725.711.711,0,0,0,.711.725Z" fill="#8dc63f"/>
        <rect id="Rectangle_172" data-name="Rectangle 172" width="10.766" height="4.423" transform="translate(149.234 135.097)" fill="#103347"/>
        <path id="Path_369" data-name="Path 369" d="M170.766,139.52v-4.409H160v4.409Zm-3.2-2.987a.725.725,0,1,1-.582.711A.725.725,0,0,1,167.566,136.533Z" fill="#3b5770"/>
        <path id="Path_370" data-name="Path 370" d="M167.566,138.027a.725.725,0,1,0-.582-.711A.725.725,0,0,0,167.566,138.027Z" fill="#8dc63f"/>
        <path id="Path_371" data-name="Path 371" d="M171.52,139.52h21.518v-4.409H171.52Zm18.332-2.987a.725.725,0,1,1-.711.711A.711.711,0,0,1,189.852,136.533Z" fill="#3b5770"/>
        <path id="Path_372" data-name="Path 372" d="M189.852,138.027a.725.725,0,1,0-.711-.725.711.711,0,0,0,.711.725Z" fill="#8dc63f"/>
        <path id="Path_373" data-name="Path 373" d="M126.962,145.493H148.48v-4.409H126.962Zm18.332-2.844a.3.3,0,1,1,0-.071Z" fill="#103347"/>
        <path id="Path_374" data-name="Path 374" d="M145.294,144a.711.711,0,1,0-.711-.711A.711.711,0,0,0,145.294,144Z" fill="#8dc63f"/>
        <rect id="Rectangle_173" data-name="Rectangle 173" width="10.766" height="4.423" transform="translate(149.234 141.084)" fill="#103347"/>
        <path id="Path_375" data-name="Path 375" d="M170.766,145.493v-4.409H160v4.409Zm-3.2-2.844a.711.711,0,1,1-.711.711A.711.711,0,0,1,167.566,142.649Z" fill="#3b5770"/>
        <path id="Path_376" data-name="Path 376" d="M167.566,144a.711.711,0,1,0-.711-.711A.711.711,0,0,0,167.566,144Z" fill="#8dc63f"/>
        <path id="Path_377" data-name="Path 377" d="M171.52,145.493h21.518v-4.409H171.52Zm18.332-2.844a.3.3,0,1,1,0-.071Z" fill="#3b5770"/>
        <path id="Path_378" data-name="Path 378" d="M189.852,144a.711.711,0,1,0-.711-.711A.711.711,0,0,0,189.852,144Z" fill="#8dc63f"/>
        <path id="Path_379" data-name="Path 379" d="M126.962,151.481H148.48v-4.423H126.962Zm18.332-2.93a.725.725,0,1,1-.711.725.711.711,0,0,1,.711-.725Z" fill="#103347"/>
        <path id="Path_380" data-name="Path 380" d="M145.294,149.988a.725.725,0,1,0-.711-.711A.711.711,0,0,0,145.294,149.988Z" fill="#8dc63f"/>
        <path id="Path_381" data-name="Path 381" d="M170.766,151.481v-4.423H160v4.423Zm-3.2-2.93a.725.725,0,1,1-.582.711A.725.725,0,0,1,167.566,148.551Z" fill="#3b5770"/>
        <rect id="Rectangle_174" data-name="Rectangle 174" width="10.766" height="4.423" transform="translate(149.234 147.058)" fill="#103347"/>
        <path id="Path_382" data-name="Path 382" d="M167.566,149.988a.725.725,0,1,0-.582-.711A.725.725,0,0,0,167.566,149.988Z" fill="#8dc63f"/>
        <path id="Path_383" data-name="Path 383" d="M171.52,151.481h21.518v-4.423H171.52Zm18.332-2.93a.725.725,0,1,1-.711.725.711.711,0,0,1,.711-.725Z" fill="#3b5770"/>
        <path id="Path_384" data-name="Path 384" d="M189.852,149.988a.725.725,0,1,0-.711-.711A.711.711,0,0,0,189.852,149.988Z" fill="#8dc63f"/>
        <path id="Path_385" data-name="Path 385" d="M126.962,157.468H148.48v-4.423H126.962Zm18.332-2.93a.711.711,0,1,1-.711.711.711.711,0,0,1,.711-.711Z" fill="#103347"/>
        <path id="Path_386" data-name="Path 386" d="M145.294,155.961a.711.711,0,1,0-.711-.711A.711.711,0,0,0,145.294,155.961Z" fill="#8dc63f"/>
        <rect id="Rectangle_175" data-name="Rectangle 175" width="10.766" height="4.423" transform="translate(149.234 153.045)" fill="#103347"/>
        <path id="Path_387" data-name="Path 387" d="M170.766,157.468v-4.423H160v4.423Zm-3.2-2.93a.711.711,0,1,1-.711.711A.711.711,0,0,1,167.566,154.539Z" fill="#3b5770"/>
        <path id="Path_388" data-name="Path 388" d="M167.566,155.961a.711.711,0,1,0-.711-.711A.711.711,0,0,0,167.566,155.961Z" fill="#8dc63f"/>
        <path id="Path_389" data-name="Path 389" d="M171.52,157.468h21.518v-4.423H171.52Zm18.332-2.93a.711.711,0,1,1-.711.711A.711.711,0,0,1,189.852,154.539Z" fill="#3b5770"/>
        <path id="Path_390" data-name="Path 390" d="M189.852,155.961a.711.711,0,1,0-.711-.711A.711.711,0,0,0,189.852,155.961Z" fill="#8dc63f"/>
        <path id="Path_391" data-name="Path 391" d="M126.962,163.442H148.48v-4.423H126.962Zm18.332-2.93a.725.725,0,1,1-.711.725.711.711,0,0,1,.711-.725Z" fill="#103347"/>
        <path id="Path_392" data-name="Path 392" d="M145.294,161.948a.725.725,0,1,0-.711-.711A.711.711,0,0,0,145.294,161.948Z" fill="#8dc63f"/>
        <path id="Path_393" data-name="Path 393" d="M170.766,163.442v-4.423H160v4.423Zm-3.2-2.93a.725.725,0,1,1-.582.711A.725.725,0,0,1,167.566,160.512Z" fill="#3b5770"/>
        <rect id="Rectangle_176" data-name="Rectangle 176" width="10.766" height="4.423" transform="translate(149.234 159.019)" fill="#103347"/>
        <path id="Path_394" data-name="Path 394" d="M167.566,161.948a.725.725,0,1,0-.582-.711A.725.725,0,0,0,167.566,161.948Z" fill="#8dc63f"/>
        <path id="Path_395" data-name="Path 395" d="M171.52,163.442h21.518v-4.423H171.52Zm18.332-2.93a.725.725,0,1,1-.711.725.711.711,0,0,1,.711-.725Z" fill="#3b5770"/>
        <path id="Path_396" data-name="Path 396" d="M189.852,161.948a.725.725,0,1,0-.711-.711A.711.711,0,0,0,189.852,161.948Z" fill="#8dc63f"/>
        <path id="Path_397" data-name="Path 397" d="M126.962,169.429H148.48v-4.452H126.962Zm18.332-2.93a.711.711,0,1,1-.711.711.711.711,0,0,1,.711-.711Z" fill="#103347"/>
        <path id="Path_398" data-name="Path 398" d="M145.294,167.922a.711.711,0,1,0-.711-.711A.711.711,0,0,0,145.294,167.922Z" fill="#8dc63f"/>
        <path id="Path_399" data-name="Path 399" d="M170.766,169.429v-4.452H160V169.4Zm-3.2-2.93a.711.711,0,1,1-.711.711A.711.711,0,0,1,167.566,166.5Z" fill="#3b5770"/>
        <rect id="Rectangle_177" data-name="Rectangle 177" width="10.766" height="4.423" transform="translate(149.234 165.006)" fill="#103347"/>
        <path id="Path_400" data-name="Path 400" d="M167.566,167.922a.711.711,0,1,0-.711-.711A.711.711,0,0,0,167.566,167.922Z" fill="#8dc63f"/>
        <path id="Path_401" data-name="Path 401" d="M171.52,169.429h21.518v-4.452H171.52Zm18.332-2.93a.711.711,0,1,1-.711.711A.711.711,0,0,1,189.852,166.5Z" fill="#3b5770"/>
        <path id="Path_402" data-name="Path 402" d="M189.852,167.922a.711.711,0,1,0-.711-.711A.711.711,0,0,0,189.852,167.922Z" fill="#8dc63f"/>
        <path id="Path_403" data-name="Path 403" d="M126.962,175.4H148.48V170.98H126.962Zm18.332-2.844a.3.3,0,1,1,0-.071Z" fill="#103347"/>
        <path id="Path_404" data-name="Path 404" d="M145.294,173.909a.711.711,0,1,0-.711-.711A.711.711,0,0,0,145.294,173.909Z" fill="#8dc63f"/>
        <rect id="Rectangle_178" data-name="Rectangle 178" width="10.766" height="4.423" transform="translate(149.234 170.98)" fill="#103347"/>
        <path id="Path_405" data-name="Path 405" d="M170.766,175.4V170.98H160V175.4Zm-3.2-2.844a.711.711,0,0,1,.725.711.725.725,0,0,1-.725.711.747.747,0,0,1,0-1.493Z" fill="#3b5770"/>
        <path id="Path_406" data-name="Path 406" d="M167.566,173.909a.725.725,0,0,0,.725-.711.718.718,0,1,0-.725.711Z" fill="#8dc63f"/>
        <path id="Path_407" data-name="Path 407" d="M171.52,175.4h21.518V170.98H171.52Zm18.332-2.844a.3.3,0,1,1,0-.071Z" fill="#3b5770"/>
        <path id="Path_408" data-name="Path 408" d="M189.852,173.909a.711.711,0,1,0-.711-.711A.711.711,0,0,0,189.852,173.909Z" fill="#8dc63f"/>
        <path id="Path_409" data-name="Path 409" d="M126.962,181.39H148.48v-4.423H126.962Zm18.332-2.93a.711.711,0,1,1-.711.711.711.711,0,0,1,.711-.711Z" fill="#103347"/>
        <path id="Path_410" data-name="Path 410" d="M145.294,179.883a.711.711,0,1,0-.711-.711A.711.711,0,0,0,145.294,179.883Z" fill="#8dc63f"/>
        <path id="Path_411" data-name="Path 411" d="M170.766,181.39v-4.423H160v4.423Zm-3.2-2.93a.711.711,0,1,1-.711.711A.711.711,0,0,1,167.566,178.46Z" fill="#3b5770"/>
        <rect id="Rectangle_179" data-name="Rectangle 179" width="10.766" height="4.423" transform="translate(149.234 176.967)" fill="#103347"/>
        <path id="Path_412" data-name="Path 412" d="M167.566,179.883a.711.711,0,1,0-.711-.711A.711.711,0,0,0,167.566,179.883Z" fill="#8dc63f"/>
        <path id="Path_413" data-name="Path 413" d="M171.52,181.39h21.518v-4.423H171.52Zm18.332-2.93a.711.711,0,1,1-.711.711A.711.711,0,0,1,189.852,178.46Z" fill="#3b5770"/>
        <path id="Path_414" data-name="Path 414" d="M189.852,179.883a.711.711,0,1,0-.711-.711A.711.711,0,0,0,189.852,179.883Z" fill="#8dc63f"/>
        <path id="Path_415" data-name="Path 415" d="M126.962,187.364H148.48V182.94H126.962Zm18.332-2.916a.711.711,0,1,1-.711.711.711.711,0,0,1,.711-.711Z" fill="#103347"/>
        <path id="Path_416" data-name="Path 416" d="M145.294,185.87a.711.711,0,1,0-.711-.711A.711.711,0,0,0,145.294,185.87Z" fill="#8dc63f"/>
        <rect id="Rectangle_180" data-name="Rectangle 180" width="10.766" height="4.423" transform="translate(149.234 182.94)" fill="#103347"/>
        <path id="Path_417" data-name="Path 417" d="M170.766,187.364V182.94H160v4.423Zm-3.2-2.916a.711.711,0,0,1,.725.711.725.725,0,0,1-.725.711.711.711,0,1,1,0-1.422Z" fill="#3b5770"/>
        <path id="Path_418" data-name="Path 418" d="M167.566,185.87a.725.725,0,0,0,.725-.711.718.718,0,1,0-.725.711Z" fill="#8dc63f"/>
        <path id="Path_419" data-name="Path 419" d="M171.52,187.364h21.518V182.94H171.52Zm18.332-2.916a.711.711,0,1,1-.711.711A.711.711,0,0,1,189.852,184.448Z" fill="#3b5770"/>
        <path id="Path_420" data-name="Path 420" d="M189.852,185.87a.711.711,0,1,0-.711-.711A.711.711,0,0,0,189.852,185.87Z" fill="#8dc63f"/>
        <path id="Path_421" data-name="Path 421" d="M126.962,193.422H148.48V189H126.962Zm18.332-2.93a.725.725,0,1,1-.711.711.711.711,0,0,1,.711-.782Z" fill="#103347"/>
        <path id="Path_422" data-name="Path 422" d="M145.294,191.858a.725.725,0,1,0-.711-.725.711.711,0,0,0,.711.725Z" fill="#8dc63f"/>
        <rect id="Rectangle_181" data-name="Rectangle 181" width="10.766" height="4.423" transform="translate(149.234 188.928)" fill="#103347"/>
        <path id="Path_423" data-name="Path 423" d="M170.766,193.422V189H160v4.423Zm-3.2-2.93a.725.725,0,1,1-.582.711A.725.725,0,0,1,167.566,190.492Z" fill="#3b5770"/>
        <path id="Path_424" data-name="Path 424" d="M167.566,191.858a.725.725,0,1,0-.582-.711A.725.725,0,0,0,167.566,191.858Z" fill="#8dc63f"/>
        <path id="Path_425" data-name="Path 425" d="M171.52,193.422h21.518V189H171.52Zm18.332-2.93a.725.725,0,1,1-.711.711.711.711,0,0,1,.711-.782Z" fill="#3b5770"/>
        <path id="Path_426" data-name="Path 426" d="M189.852,191.858a.725.725,0,1,0-.711-.725.711.711,0,0,0,.711.725Z" fill="#8dc63f"/>
        <path id="Path_427" data-name="Path 427" d="M126.962,199.324H148.48v-4.48H126.962Zm18.332-2.93a.711.711,0,1,1-.508.213.711.711,0,0,1,.508-.213Z" fill="#103347"/>
        <path id="Path_428" data-name="Path 428" d="M145.294,197.831a.711.711,0,1,0-.711-.711A.711.711,0,0,0,145.294,197.831Z" fill="#8dc63f"/>
        <rect id="Rectangle_182" data-name="Rectangle 182" width="10.766" height="4.423" transform="translate(149.234 194.901)" fill="#103347"/>
        <path id="Path_429" data-name="Path 429" d="M170.766,199.324v-4.48H160v4.423Zm-3.2-2.93a.725.725,0,0,1,.725.725.721.721,0,1,1-.725-.725Z" fill="#3b5770"/>
        <path id="Path_430" data-name="Path 430" d="M167.566,197.831a.711.711,0,0,0,.725-.711.725.725,0,0,0-.725-.725.718.718,0,0,0,0,1.436Z" fill="#8dc63f"/>
        <path id="Path_431" data-name="Path 431" d="M171.52,199.324h21.518v-4.48H171.52Zm18.332-2.93a.711.711,0,1,1-.508.213A.711.711,0,0,1,189.852,196.395Z" fill="#3b5770"/>
        <path id="Path_432" data-name="Path 432" d="M189.852,197.831a.711.711,0,1,0-.711-.711A.711.711,0,0,0,189.852,197.831Z" fill="#8dc63f"/>
        <path id="Path_433" data-name="Path 433" d="M126.962,205.312H148.48v-4.423H126.962Zm18.332-2.93a.711.711,0,1,1-.711.711.711.711,0,0,1,.711-.711Z" fill="#103347"/>
        <path id="Path_434" data-name="Path 434" d="M145.294,203.819a.711.711,0,1,0-.508-.213A.711.711,0,0,0,145.294,203.819Z" fill="#8dc63f"/>
        <rect id="Rectangle_183" data-name="Rectangle 183" width="10.766" height="4.423" transform="translate(149.234 200.889)" fill="#103347"/>
        <path id="Path_435" data-name="Path 435" d="M170.766,205.312v-4.423H160v4.423Zm-3.2-2.93a.711.711,0,0,1,.725.711.725.725,0,0,1-.725.725.718.718,0,0,1,0-1.436Z" fill="#3b5770"/>
        <path id="Path_436" data-name="Path 436" d="M167.566,203.819a.725.725,0,0,0,.725-.725.721.721,0,1,0-.725.725Z" fill="#8dc63f"/>
        <path id="Path_437" data-name="Path 437" d="M171.52,205.312h21.518v-4.423H171.52Zm18.332-2.93a.711.711,0,1,1-.711.711A.711.711,0,0,1,189.852,202.382Z" fill="#3b5770"/>
        <path id="Path_438" data-name="Path 438" d="M189.852,203.819a.711.711,0,1,0-.508-.213A.711.711,0,0,0,189.852,203.819Z" fill="#8dc63f"/>
        <path id="Path_439" data-name="Path 439" d="M176.782,52a13.951,13.951,0,0,0-1.109-1.422,15.033,15.033,0,0,0-22.9,0A13.952,13.952,0,0,0,151.666,52a15.076,15.076,0,0,0,0,16.683,13.954,13.954,0,0,0,1.109,1.422,15.033,15.033,0,0,0,22.9,0,13.952,13.952,0,0,0,1.109-1.422A15.076,15.076,0,0,0,176.782,52Zm.654,7.424h-5.689a28.841,28.841,0,0,0-.626-5.276,26.709,26.709,0,0,0,3.982-1.337A13.3,13.3,0,0,1,177.436,59.42Zm-3.513-8.092a21.332,21.332,0,0,1-3.257,1.052,14.849,14.849,0,0,0-2.2-4.594A13.184,13.184,0,0,1,173.924,51.328Zm-9.7,8.092h-5.689a26.411,26.411,0,0,1,.569-4.892,29.184,29.184,0,0,0,10.268,0,27.619,27.619,0,0,1,.583,4.892Zm5.689,1.835a27.791,27.791,0,0,1-.583,4.892,29.184,29.184,0,0,0-10.268,0,26.567,26.567,0,0,1-.569-4.892H169.87Zm-5.689-14.222c1.749,0,3.57,2.119,4.665,5.689a27.52,27.52,0,0,1-9.33,0c1.152-3.513,2.93-5.632,4.665-5.632Zm-4.267.7a14.848,14.848,0,0,0-2.2,4.594,21.333,21.333,0,0,1-3.257-1.052,13.269,13.269,0,0,1,5.49-3.484Zm-6.642,5.02a25.984,25.984,0,0,0,3.968,1.337,28.842,28.842,0,0,0-.626,5.276h-5.689a13.184,13.184,0,0,1,2.375-6.556ZM150.983,61.2h5.689a28.841,28.841,0,0,0,.626,5.276,24.533,24.533,0,0,0-3.968,1.337,13.184,13.184,0,0,1-2.318-6.556Zm3.513,8.078a24.931,24.931,0,0,1,3.257-1.052,14.791,14.791,0,0,0,2.2,4.608,13.312,13.312,0,0,1-5.433-3.5Zm9.7,4.267c-1.735,0-3.556-2.119-4.665-5.689a27.52,27.52,0,0,1,9.33,0c-1.038,3.612-2.887,5.732-4.636,5.732Zm4.267-.7a14.792,14.792,0,0,0,2.2-4.58,24.93,24.93,0,0,1,3.257,1.052,13.212,13.212,0,0,1-5.461,3.57Zm6.656-5.02a25.174,25.174,0,0,0-3.982-1.337,28.844,28.844,0,0,0,.626-5.276h5.689a13.3,13.3,0,0,1-2.332,6.656Z" fill="#de5f32"/>
      </g>
    </g>
  </g>
</svg>
