<svg xmlns="http://www.w3.org/2000/svg" xmlns:xlink="http://www.w3.org/1999/xlink" width="414" height="734" viewBox="0 0 414 734">
  <defs>
    <clipPath id="clip-login:mobile">
      <rect width="414" height="734"/>
    </clipPath>
  </defs>
  <g id="login:mobile" clip-path="url(#clip-login:mobile)">
    <rect width="414" height="734" fill="#eceaea"/>
    <path id="Rectangle_32" data-name="Rectangle 32" d="M0,0H415a0,0,0,0,1,0,0V580A154,154,0,0,1,261,734H0a0,0,0,0,1,0,0V0A0,0,0,0,1,0,0Z" transform="translate(-1)" fill="#fff"/>
    <g id="contact_form" data-name="contact form" transform="translate(36 121)">
      <text id="login" transform="translate(0 19)" font-size="18" font-family="Roboto-Regular, Roboto"><tspan x="0" y="0">login</tspan></text>
      <g id="Group_8" data-name="Group 8" transform="translate(0 82)">
        <text id="email" transform="translate(0 15)" font-size="14" font-family="Roboto-Light, Roboto" font-weight="300"><tspan x="0" y="0">email</tspan></text>
        <rect id="Rectangle_9" data-name="Rectangle 9" width="342" height="52" transform="translate(0 45)" fill="#f7f7f7"/>
      </g>
      <g id="Group_8-2" data-name="Group 8" transform="translate(0 199)">
        <text id="password" transform="translate(0 15)" font-size="14" font-family="Roboto-Light, Roboto" font-weight="300"><tspan x="0" y="0">password</tspan></text>
        <rect id="Rectangle_9-2" data-name="Rectangle 9" width="342" height="52" transform="translate(0 45)" fill="#f7f7f7"/>
      </g>
      <g id="Rectangle_10" data-name="Rectangle 10" transform="translate(49 342)" fill="#fff" stroke="#707070" stroke-width="1">
        <rect width="215" height="48" rx="24" stroke="none"/>
        <rect x="0.5" y="0.5" width="214" height="47" rx="23.5" fill="none"/>
      </g>
      <text id="login-2" data-name="login" transform="translate(141 372)" font-size="14" font-family="Roboto-Light, Roboto" font-weight="300"><tspan x="0" y="0">login</tspan></text>
    </g>
    <circle id="Ellipse_4" data-name="Ellipse 4" cx="147.5" cy="147.5" r="147.5" transform="translate(266.5 -147.5)" fill="#eceaea"/>
  </g>
</svg>
